<?xml version="1.0" encoding="UTF-8"?>
<svg id="Layer_2" data-name="Layer 2" xmlns="http://www.w3.org/2000/svg" viewBox="0 0 19.04 28.76">
  <defs>
    <style>
      .cls-1 {
        fill: none;
        stroke: #fcfcfc;
        stroke-miterlimit: 10;
      }
    </style>
  </defs>
  <g id="Layer_5" data-name="Layer 5">
    <path class="cls-1" d="M15.07,16.62c2.11-1.65,3.47-4.22,3.47-7.11C18.54,4.54,14.5.5,9.52.5S.5,4.54.5,9.52s4.04,9.02,9.02,9.02c.02,0,.05,0,.07,0l2.48,7.72c.49,1.52,2.13,2.36,3.65,1.87,1.52-.49,2.36-2.13,1.87-3.65l-2.53-7.85ZM9.52,13.17c-2.18,0-3.94-1.76-3.94-3.94s1.76-3.94,3.94-3.94,3.94,1.76,3.94,3.94-1.76,3.94-3.94,3.94Z"/>
  </g>
</svg>