<?xml version="1.0" encoding="UTF-8"?>
<svg id="Layer_2" data-name="Layer 2" xmlns="http://www.w3.org/2000/svg" viewBox="0 0 30 30">
  <defs>
    <style>
      .cls-1 {
        fill: #fcfcfc;
      }
    </style>
  </defs>
  <g id="Layer_5" data-name="Layer 5">
    <path class="cls-1" d="M26.81,0H3.04C1.48,0,0,1.45,0,3.01v24c0,1.63,1.43,2.73,2.94,2.99h24.12c1.78-.32,2.93-1.67,2.93-3.41V3.44C30,1.63,28.71,0,26.81,0ZM8.75,25.82h-4.61v-13.95h4.61v13.95ZM6.43,9.25c-1.55,0-2.81-1.26-2.81-2.81s1.26-2.81,2.81-2.81,2.81,1.26,2.81,2.81-1.26,2.81-2.81,2.81ZM25.82,25.8l-4.64.02v-8.05c-.01-1.31-.79-2.26-1.97-2.46-1.14-.19-2.63.52-2.65,1.98l-.09,8.53-4.62-.03v-13.91s4.61,0,4.61,0l.08,1.76c1.2-1.62,3.1-2.42,5.11-1.92,2.48.61,4.17,2.82,4.16,5.4v8.69Z"/>
  </g>
</svg>