<?xml version="1.0" encoding="UTF-8"?>
<svg id="Layer_2" data-name="Layer 2" xmlns="http://www.w3.org/2000/svg" viewBox="0 0 30 30">
  <defs>
    <style>
      .cls-1 {
        fill: #fcfcfc;
      }
    </style>
  </defs>
  <g id="Layer_5" data-name="Layer 5">
    <g>
      <path class="cls-1" d="M29.99,8.09C29.98,3.8,26.2,0,21.89,0h-13.77C3.59,0,0,4.04,0,8.49v12.95c0,4.87,4.11,8.56,8.92,8.55l12.49-.02c4.66,0,8.6-3.71,8.59-8.33v-13.55ZM21.79,26.96l-13.26.03c-3.12,0-5.55-2.43-5.54-5.54l.02-13.13c0-3.07,2.48-5.4,5.53-5.39l13.15.02c2.74,0,5.3,2.17,5.3,4.98l.02,13.93c0,2.77-2.38,5.1-5.21,5.11Z"/>
      <circle class="cls-1" cx="22.92" cy="7.06" r="1.88"/>
      <path class="cls-1" d="M15.02,7.44c-4.15,0-7.52,3.36-7.52,7.52s3.37,7.52,7.52,7.52,7.52-3.36,7.52-7.52-3.37-7.52-7.52-7.52ZM15.02,19.46c-2.49,0-4.51-2.02-4.51-4.5s2.02-4.5,4.51-4.5,4.51,2.02,4.51,4.5-2.02,4.5-4.51,4.5Z"/>
    </g>
  </g>
</svg>