<?xml version="1.0" encoding="UTF-8"?>
<svg id="Layer_2" data-name="Layer 2" xmlns="http://www.w3.org/2000/svg" viewBox="0 0 30 30">
  <defs>
    <style>
      .cls-1 {
        fill: #fcfcfc;
      }
    </style>
  </defs>
  <g id="Layer_5" data-name="Layer 5">
    <path class="cls-1" d="M21.67,9.92v-3.74c-1.45-.2-2.78-.35-4.18-.23-2.64.22-4.54,2.16-4.76,4.82-.12,1.45-.03,2.85-.05,4.33h-3.81s-.01,4.33-.01,4.33l3.8.04.03,10.54C5.18,28.8-.14,22.28,0,14.82.14,7.36,5.73,1,13.23.11c8.15-.98,15.49,4.84,16.62,12.85s-4.32,15.75-12.53,17.04v-10.51s3.51-.03,3.51-.03l.67-4.35h-4.17s.02-3.15.02-3.15c0-1.17.95-2.03,2.1-2.03h2.21Z"/>
  </g>
</svg>