<?xml version="1.0" encoding="UTF-8"?>
<svg id="Layer_2" data-name="Layer 2" xmlns="http://www.w3.org/2000/svg" viewBox="0 0 54.87 25.62">
  <g id="Layer_5" data-name="Layer 5">
    <path d="M53.8,12.12c-5.05-1.55-12.49-4.1-12.12-10.67.11-1.93-2.89-1.92-3,0-.19,3.45,1.63,6.71,4.23,8.88.62.51,1.27.96,1.94,1.37H1.45c-1.93,0-1.93,3,0,3h43.38c-.83.38-1.62.81-2.36,1.3-2.7,1.78-4.61,4.59-5.28,7.75-.4,1.88,2.49,2.69,2.89.8.57-2.69,2.14-4.99,4.55-6.35,2.78-1.57,6.09-2.44,9.17-3.18,1.49-.36,1.37-2.47,0-2.89Z"/>
  </g>
</svg>