<?xml version="1.0" encoding="UTF-8"?>
<svg id="Layer_2" data-name="Layer 2" xmlns="http://www.w3.org/2000/svg" viewBox="0 0 234.28 244.01">
  <defs>
    <style>
      .cls-1 {
        fill: #f8c158;
      }
    </style>
  </defs>
  <g id="Layer_5" data-name="Layer 5">
    <path class="cls-1" d="M230.54,147.39c-14.62-13.79-14.62-36.98,0-50.77h0c7.3-6.89,3.31-19.14-6.67-20.44h0c-19.97-2.6-33.66-21.36-29.97-41.08h0c1.84-9.85-8.62-17.42-17.46-12.63h0c-17.69,9.58-39.84,2.42-48.5-15.69h0c-4.33-9.05-17.26-9.05-21.58,0h0c-8.66,18.11-30.8,25.27-48.5,15.69h0c-8.84-4.79-19.3,2.78-17.46,12.63h0c3.68,19.72-10,38.47-29.97,41.08h0c-9.98,1.3-13.97,13.55-6.67,20.44h0c14.62,13.79,14.62,36.98,0,50.77h0c-7.3,6.89-3.31,19.14,6.67,20.44h0c19.97,2.6,33.66,21.36,29.97,41.08h0c-1.84,9.85,8.62,17.42,17.46,12.63h0c17.69-9.58,39.84-2.42,48.5,15.69h0c4.33,9.05,17.26,9.05,21.58,0h0c8.66-18.11,30.8-25.27,48.5-15.69h0c8.84,4.79,19.3-2.78,17.46-12.63h0c-3.68-19.72,10-38.47,29.97-41.08h0c9.98-1.3,13.97-13.55,6.67-20.44h0Z"/>
  </g>
</svg>