<?xml version="1.0" encoding="UTF-8"?>
<svg id="Layer_2" data-name="Layer 2" xmlns="http://www.w3.org/2000/svg" viewBox="0 0 79.07 35.87">
  <defs>
    <style>
      .cls-1 {
        fill: #191919;
      }
    </style>
  </defs>
  <g id="Layer_5" data-name="Layer 5">
    <path class="cls-1" d="M78.11,14.65c-3.14-6.24-10.14-9.03-16.48-10.87-4.72-1.37-9.57-2.1-14.45-2.58-.03-.35-.26-.71-.7-.77-6.96-.87-14.02-.4-20.82,1.32-5.7,1.44-11.57,3.57-16.27,7.2C4.87,12.44.89,17.64.11,23.44c-.34,2.54.02,5.4,1.96,7.24,2.04,1.94,5.26,2.9,7.92,3.53,3.34.79,6.8,1.08,10.21,1.32,3.71.26,7.44.37,11.16.32,7.32-.1,14.64-.8,21.86-2.09,6.32-1.13,12.56-2.89,18.16-6.1,2.38-1.36,5.16-2.91,6.63-5.32,1.46-2.4,1.33-5.24.1-7.7ZM72.97,24.94c-5.13,3.4-10.93,5.47-16.92,6.76-12.8,2.75-26.2,3.33-39.22,2.06-3.21-.31-6.43-.77-9.47-1.89-2.66-.97-5.19-2.21-5.74-5.25-1.02-5.62,3.09-11.45,6.99-15.05,4.46-4.11,10.33-6.4,16.08-8,4.37-1.22,8.84-1.9,13.35-2.03.1.25.31.46.66.49,6.37.44,12.77.89,19.02,2.3,2.98.67,5.92,1.56,8.75,2.73,2.52,1.04,5.09,2.26,7.13,4.11,2.06,1.88,4.15,4.7,4.01,7.62-.14,2.95-2.37,4.66-4.63,6.15Z"/>
  </g>
</svg>