<?xml version="1.0" encoding="UTF-8"?>
<svg id="Layer_2" data-name="Layer 2" xmlns="http://www.w3.org/2000/svg" viewBox="0 0 98.48 35.78">
  <defs>
    <style>
      .cls-1 {
        fill: #191919;
      }
    </style>
  </defs>
  <g id="Layer_5" data-name="Layer 5">
    <path class="cls-1" d="M96.83,14.53c-4.28-5.91-11.91-8.28-18.66-10.05-6.48-1.7-13.13-2.59-19.79-3.18-.03-.35-.26-.71-.7-.76-8.24-.92-16.58-.64-24.74.81-7.14,1.27-14.62,3.17-20.91,6.88C6.54,11.45.62,16.94.03,23.64c-.27,3.14,1.1,5.93,3.9,7.41,3.31,1.75,7.16,2.62,10.84,3.19,8.35,1.3,16.95,1.57,25.39,1.53,8.66-.04,17.32-.62,25.91-1.73,7.65-1,15.23-2.54,22.34-5.61,3.01-1.3,6.73-2.76,8.78-5.46,2.02-2.66,1.5-5.85-.37-8.43ZM90.77,25.67c-6.57,3.35-13.77,5.19-21.02,6.34-15.57,2.46-31.57,2.86-47.27,1.58-3.86-.31-7.74-.7-11.51-1.63-1.63-.4-3.23-.9-4.78-1.53-1.48-.6-2.98-1.33-3.86-2.74-1.82-2.93-.43-6.87,1.21-9.54,1.8-2.93,4.48-5.45,7.29-7.39,6.1-4.21,13.67-6.25,20.86-7.66,5.13-1.01,10.34-1.53,15.56-1.58.09.26.31.48.67.5,7.63.5,15.28,1.01,22.81,2.36,3.67.66,7.3,1.52,10.86,2.65,3.29,1.05,6.66,2.24,9.57,4.15,2.58,1.69,6.01,4.75,5.88,8.12-.14,3.39-3.66,5.04-6.27,6.37Z"/>
  </g>
</svg>