<?xml version="1.0" encoding="UTF-8"?>
<svg id="Layer_2" data-name="Layer 2" xmlns="http://www.w3.org/2000/svg" viewBox="0 0 104.23 31.31">
  <defs>
    <style>
      .cls-1 {
        fill: #7575f9;
      }
    </style>
  </defs>
  <g id="Layer_5" data-name="Layer 5">
    <path class="cls-1" d="M102.27,7.91c-2.65-2.41-6.06-3.77-9.5-4.64-3.89-.98-7.9-1.57-11.89-2-6.98-.75-14-.85-21.01-.72C59.81.25,59.58,0,59.18,0c-8.38,0-16.76.88-24.96,2.61-7.42,1.57-15.08,3.62-21.85,7.14-3.09,1.61-5.99,3.63-8.4,6.15C1.79,18.19-.31,21.24.04,24.56c.35,3.27,3.14,4.76,6.04,5.43,4.05.94,8.23,1.25,12.37,1.3,17.28.23,34.75-1.61,51.74-4.69,7.86-1.43,15.72-3.21,23.13-6.26,1.73-.71,3.44-1.49,5.11-2.34,1.49-.76,3.04-1.52,4.24-2.71,2.33-2.3,1.94-5.25-.39-7.37ZM100.26,15.28c-1.58,1.01-3.33,1.82-5.03,2.6-6.75,3.1-13.99,5.01-21.26,6.47-15.55,3.13-31.42,4.85-47.26,5.33-3.87.12-7.74.21-11.61,0-2.01-.11-4.02-.29-6.01-.62-1.66-.28-3.47-.54-5-1.28-3.7-1.76-2.72-5.93-.82-8.7,1.91-2.78,4.76-5.02,7.62-6.77,6.65-4.07,14.58-6.2,22.12-7.91,5.01-1.13,10.08-1.92,15.19-2.39.11.21.31.36.62.35,7.88-.28,15.77-.56,23.66-.22,3.95.17,7.9.48,11.81,1.04,3.64.52,7.36,1.12,10.83,2.34,1.49.52,2.92,1.18,4.25,2.04,1.45.94,3.58,2.42,3.45,4.38-.1,1.47-1.41,2.59-2.56,3.33Z"/>
  </g>
</svg>