<?xml version="1.0" encoding="UTF-8"?>
<svg id="Layer_2" data-name="Layer 2" xmlns="http://www.w3.org/2000/svg" viewBox="0 0 91.71 29.17">
  <defs>
    <style>
      .cls-1 {
        fill: #f8c158;
      }
    </style>
  </defs>
  <g id="Layer_5" data-name="Layer 5">
    <path class="cls-1" d="M89.86,13.59c-2.19-2.66-5.23-4.35-8.37-5.65-3.82-1.58-7.8-2.79-11.83-3.75-4.84-1.15-9.76-1.92-14.69-2.55,0-.3-.14-.57-.53-.63C46.84-.11,39.15-.31,31.51.48c-6.71.69-13.74,1.84-19.92,4.66C6.69,7.38-.13,12.02,0,18.15c.07,2.97,2.15,4.73,4.7,5.81,3.3,1.4,6.8,2.23,10.33,2.81,15.21,2.48,30.93,2.9,46.29,1.91,7.23-.47,14.5-1.38,21.39-3.72,2.66-.91,6.1-1.87,7.94-4.15,1.9-2.37.96-5.08-.8-7.21ZM84.08,22.87c-6.27,2.38-12.92,3.5-19.58,4.07-13.88,1.19-27.95.88-41.8-.66-3.49-.39-6.98-.81-10.41-1.54-2.95-.63-6.55-1.38-9.02-3.21-2.77-2.05-1.77-5.62-.12-8.04,1.73-2.53,4.42-4.5,7.06-5.97,6.04-3.36,13.31-4.61,20.09-5.4,4.73-.55,9.51-.73,14.26-.53.11.22.31.41.62.44,6.77.72,13.55,1.45,20.23,2.78,6.28,1.25,12.98,2.85,18.62,5.99,2.32,1.29,5.58,3.56,6.16,6.35.71,3.41-3.71,4.83-6.1,5.73Z"/>
  </g>
</svg>