<?xml version="1.0" encoding="UTF-8"?>
<svg id="Layer_2" data-name="Layer 2" xmlns="http://www.w3.org/2000/svg" viewBox="0 0 124.35 29.14">
  <defs>
    <style>
      .cls-1 {
        fill: #ff581f;
      }
    </style>
  </defs>
  <g id="Layer_5" data-name="Layer 5">
    <path class="cls-1" d="M124.33,16.52c-.24-1.9-1.85-3.28-3.28-4.38-3.26-2.52-7.22-3.95-11.15-5.06-4.62-1.31-9.33-2.31-14.06-3.11-7.56-1.29-15.2-2.06-22.84-2.64-.07-.3-.29-.58-.69-.62-9.82-.9-19.7-.95-29.52-.12-8.99.76-18.3,1.91-26.88,4.8-3.81,1.29-7.51,3.01-10.74,5.43C2.5,12.82-.7,16.07.13,19.76c.84,3.73,5.27,4.79,8.44,5.59,4.61,1.17,9.34,1.79,14.07,2.23,19.98,1.86,40.19,1.99,60.21.78,9.34-.57,18.72-1.49,27.83-3.73,2.34-.58,4.66-1.25,6.95-2.02,1.71-.58,3.47-1.16,4.89-2.3,1.16-.93,2-2.24,1.81-3.77ZM119.72,20.23c-1.92.88-4.03,1.45-6.06,2.04-8.58,2.47-17.48,3.61-26.36,4.28-18.34,1.39-36.82,1.4-55.18.24-4.59-.29-9.19-.61-13.75-1.17-4.32-.54-8.8-1.25-12.91-2.74-1.75-.64-3.64-1.73-3.91-3.76-.26-1.95,1.01-3.82,2.29-5.17,2.66-2.81,6.4-4.75,9.96-6.18,7.77-3.13,16.39-4.34,24.67-5.25,6.93-.77,13.9-1.09,20.87-.99.11.23.31.41.63.43,8.92.55,17.84,1.11,26.71,2.19,8.74,1.07,17.71,2.49,26.06,5.39,1.92.67,3.79,1.47,5.53,2.51,1.57.94,3.99,2.42,4.51,4.3.53,1.94-1.56,3.21-3.05,3.88Z"/>
  </g>
</svg>