<?xml version="1.0" encoding="UTF-8"?>
<svg id="Layer_2" data-name="Layer 2" xmlns="http://www.w3.org/2000/svg" viewBox="0 0 306.21 10.72">
  <defs>
    <style>
      .cls-1 {
        fill: #ff581f;
      }
    </style>
  </defs>
  <g id="Layer_5" data-name="Layer 5">
    <path class="cls-1" d="M1.08,10.71c19.68-1.94,39.4-3.54,59.13-4.81s39.46-2.2,59.21-2.81c19.86-.61,39.74-.89,59.61-.84,19.79.05,39.57.43,59.35,1.15,19.82.71,39.63,1.76,59.41,3.14,2.45.17,4.9.35,7.34.53,1.44.11,1.44-2.14,0-2.25-19.77-1.46-39.57-2.59-59.38-3.39C225.98.64,206.2.18,186.42.04c-19.87-.14-39.75.06-59.62.59s-39.51,1.38-59.24,2.57S28.08,5.9,8.38,7.76c-2.44.23-4.87.46-7.31.7-1.43.14-1.44,2.39,0,2.25h0Z"/>
  </g>
</svg>