<?xml version="1.0" encoding="UTF-8"?>
<svg id="Layer_2" data-name="Layer 2" xmlns="http://www.w3.org/2000/svg" viewBox="0 0 261.64 261.64">
  <defs>
    <style>
      .cls-1 {
        fill: #f2bbff;
      }
    </style>
  </defs>
  <g id="Layer_5" data-name="Layer 5">
    <path class="cls-1" d="M250.24,124.37c-25.79-14.6-38.33-44.87-30.41-73.43l3.5-12.62-12.62,3.5c-28.56,7.91-58.83-4.63-73.43-30.42l-6.45-11.4-6.45,11.4c-14.6,25.79-44.87,38.33-73.43,30.42l-12.62-3.5,3.5,12.62c7.91,28.56-4.63,58.83-30.41,73.43l-11.4,6.45,11.4,6.45c25.79,14.6,38.33,44.87,30.41,73.43l-3.5,12.62,12.62-3.5c28.56-7.91,58.83,4.63,73.43,30.42l6.45,11.4,6.45-11.4c14.6-25.79,44.87-38.33,73.43-30.42l12.62,3.5-3.5-12.62c-7.91-28.56,4.63-58.83,30.41-73.43l11.4-6.45-11.4-6.45Z"/>
  </g>
</svg>