<?xml version="1.0" encoding="UTF-8"?>
<svg id="Layer_2" data-name="Layer 2" xmlns="http://www.w3.org/2000/svg" viewBox="0 0 168.59 168.59">
  <defs>
    <style>
      .cls-1 {
        fill: none;
        stroke: #f2bbff;
        stroke-miterlimit: 10;
      }
    </style>
  </defs>
  <g id="Layer_5" data-name="Layer 5">
    <path class="cls-1" d="M103.41,156.95l6.34-11.2,12.41,3.44c16.45,4.56,31.59-10.58,27.03-27.03l-3.44-12.41,11.2-6.34c14.86-8.41,14.86-29.81,0-38.22l-11.2-6.34,3.44-12.41c4.56-16.45-10.58-31.59-27.03-27.03l-12.41,3.44-6.34-11.2c-8.41-14.86-29.81-14.86-38.22,0l-6.34,11.2-12.41-3.44c-16.45-4.56-31.59,10.58-27.03,27.03l3.44,12.41-11.2,6.34c-14.86,8.41-14.86,29.81,0,38.22l11.2,6.34-3.44,12.41c-4.56,16.45,10.58,31.59,27.03,27.03l12.41-3.44,6.34,11.2c8.41,14.86,29.81,14.86,38.22,0Z"/>
  </g>
</svg>