<?xml version="1.0" encoding="UTF-8"?>
<svg id="Layer_2" data-name="Layer 2" xmlns="http://www.w3.org/2000/svg" viewBox="0 0 142.54 35.75">
  <defs>
    <style>
      .cls-1 {
        fill: #fbb7ff;
      }
    </style>
  </defs>
  <g id="Layer_5" data-name="Layer 5">
    <path class="cls-1" d="M142.49,19.81c-.31-2.18-2.13-3.86-3.75-5.19-3.57-2.92-7.9-4.66-12.27-6-5.24-1.61-10.61-2.83-16-3.81-8.85-1.62-17.8-2.56-26.76-3.25-.03-.35-.26-.71-.71-.75-11.32-1.07-22.73-1.08-34.04.01-10.33.99-21.06,2.49-30.83,6.11-4.38,1.62-8.55,3.78-12.2,6.7C2.8,16.13-.67,20.03.11,24.38c.83,4.61,6.05,5.98,9.92,7,5.23,1.38,10.6,2.11,15.98,2.62,22.91,2.18,46.11,2.25,69.05.64,10.79-.76,21.62-1.96,32.08-4.82,2.62-.72,5.21-1.53,7.75-2.47,2-.74,4.03-1.49,5.66-2.92,1.33-1.17,2.19-2.81,1.93-4.61ZM130.98,27.1c-9.83,3.17-20.1,4.69-30.36,5.59-21.33,1.88-42.87,1.98-64.24.6-5.35-.34-10.71-.72-16.02-1.44-4.89-.66-10.17-1.47-14.73-3.45-1.93-.84-3.73-2.21-4.07-4.42-.36-2.33.95-4.67,2.38-6.4,2.87-3.47,7.1-5.94,11.14-7.8,8.8-4.04,18.81-5.64,28.34-6.85,8.19-1.04,16.46-1.51,24.71-1.42.09.28.31.51.68.53,10.53.66,21.06,1.32,31.53,2.69,5.23.69,10.44,1.56,15.59,2.7,4.78,1.05,9.61,2.24,14.17,4.02,2.14.83,4.21,1.85,6.11,3.14,1.74,1.18,4.14,2.9,4.72,5.04,1.27,4.62-7.02,6.53-9.95,7.47Z"/>
  </g>
</svg>