<?xml version="1.0" encoding="UTF-8"?>
<svg id="Layer_2" data-name="Layer 2" xmlns="http://www.w3.org/2000/svg" viewBox="0 0 92.27 32.41">
  <defs>
    <style>
      .cls-1 {
        fill: #ff581f;
      }
    </style>
  </defs>
  <g id="Layer_5" data-name="Layer 5">
    <path class="cls-1" d="M90.57,13.06c-2.1-2.73-4.97-4.57-8.11-5.91-3.83-1.63-7.86-2.8-11.92-3.69-5.23-1.15-10.53-1.81-15.86-2.28-.05-.33-.28-.64-.69-.69-7.71-.84-15.5-.61-23.15.69-6.62,1.12-13.54,2.79-19.44,6.1C6.23,10.17.22,15.38,0,21.78c-.1,2.84,1.38,5.16,3.91,6.39,3.29,1.6,6.99,2.39,10.59,2.9,7.9,1.12,15.99,1.39,23.96,1.34,8.01-.05,16.03-.57,23.97-1.58,7.03-.89,14.03-2.28,20.59-5.04,2.77-1.17,6.21-2.45,8.09-4.93,1.9-2.51,1.26-5.44-.54-7.79ZM84.77,23.35c-5.99,2.9-12.51,4.51-19.07,5.51-14.5,2.23-29.4,2.58-44.01,1.44-3.49-.27-6.99-.58-10.42-1.32-1.66-.36-3.31-.82-4.9-1.41-1.47-.55-3.08-1.18-4.01-2.51-1.87-2.67-.47-6.39,1.13-8.82,1.68-2.58,4.13-4.76,6.67-6.46,5.78-3.86,12.92-5.65,19.67-6.91,4.75-.88,9.57-1.33,14.39-1.37.1.24.31.43.64.45,7.07.46,14.16.93,21.15,2.14,3.47.6,6.9,1.38,10.27,2.42,2.99.92,6.03,1.96,8.72,3.58,2.38,1.44,5.69,4.1,5.82,7.13.14,3.33-3.55,4.92-6.04,6.12Z"/>
  </g>
</svg>