<?xml version="1.0" encoding="UTF-8"?>
<svg id="Layer_2" data-name="Layer 2" xmlns="http://www.w3.org/2000/svg" viewBox="0 0 254.62 49.19">
  <defs>
    <style>
      .cls-1 {
        fill: #7575f2;
      }
    </style>
  </defs>
  <g id="Layer_5" data-name="Layer 5">
    <path class="cls-1" d="M254.38,28.46c-1.13-3.5-5.22-5.87-8.2-7.6-7.35-4.28-15.73-6.5-23.95-8.4-9.36-2.16-18.83-3.87-28.33-5.25-15.03-2.19-30.15-3.57-45.29-4.66.11-.42-.11-.97-.69-1.02-19.58-1.68-39.26-1.98-58.88-.87-9.68.55-19.34,1.44-28.96,2.69-8.77,1.13-17.55,2.48-26.12,4.69-8.01,2.06-15.92,4.88-23.02,9.17C5.72,20.34-2.89,26.91.96,34.01c1.7,3.13,5.27,4.72,8.49,5.78,4.3,1.41,8.82,2.3,13.27,3.11,9.35,1.71,18.82,2.64,28.29,3.37,19.71,1.52,39.48,2.42,59.25,2.77,19.78.34,39.56.11,59.33-.71,18.88-.78,37.81-2.13,56.39-5.71,4.52-.87,9.01-1.88,13.46-3.04,3.8-1,7.84-1.9,11.22-3.98,2.46-1.51,4.72-4.05,3.73-7.13ZM247.48,35.53c-3.89,1.67-8.19,2.57-12.29,3.56-17.74,4.27-35.97,6.13-54.16,7.17-18.84,1.08-37.73,1.48-56.59,1.42-19.07-.06-38.13-.67-57.16-1.81-18.4-1.1-37.27-2.02-55.14-6.86-3.39-.92-7.57-2.17-9.59-5.3-2.25-3.47-.1-7.39,2.39-10.05,2.69-2.87,6.17-4.95,9.61-6.79,3.64-1.94,7.45-3.54,11.35-4.88,7.9-2.71,16.12-4.42,24.36-5.74,9.13-1.46,18.33-2.52,27.55-3.3,14.61-1.23,29.28-1.67,43.94-1.34.02.36.25.72.71.74,18.51,1.12,37.03,2.25,55.46,4.31,9.27,1.03,18.51,2.31,27.69,3.94,8.74,1.55,17.53,3.3,26.04,5.85,4.04,1.21,8.02,2.66,11.77,4.6,1.71.89,3.38,1.87,4.96,2.98,1.64,1.16,3.54,2.52,4.4,4.41,1.6,3.55-2.6,5.94-5.28,7.09Z"/>
  </g>
</svg>