<?xml version="1.0" encoding="UTF-8"?>
<svg id="Layer_2" data-name="Layer 2" xmlns="http://www.w3.org/2000/svg" viewBox="0 0 146.47 110.96">
  <g id="Layer_5" data-name="Layer 5">
    <g>
      <path d="M144.09,57.75l.5,4.06.22,1.42.07,1.77.04.9.21,3.57.12,2.06.23,2.84v1.01c.14.28.29.71.31,1.09l.18,3.78.05,1.82.17,2.94.12,4.67.18,2.92c.02.3-.24.93-.41,1.14-.61.74-2.23-.58-3.29.94l-2.41.03-5.28-.24-3.13.08-4.23.32-3.62.29-1.6-.14c-.02,1.64.06,3.04.43,4.63.11.48.04,1.09-.31,1.5l-21.84.61c-.93,1.95-2.31,3.3-3.86,4.63-3.48,2.98-10.08,4.7-14.74,4.56l-2.04-.06c-.89-.03-2.11-.13-2.9-.33l-2.76-.7c-3.03-.77-5.29-2.16-7.3-4.45-.71-.81-1.21-1.55-1.32-2.68l-8.49.3c-1.9.07-1.57-1.98-1.82-2.13-.14-.08-.56-.17-.75-.16l-4,.13c-.37.01-.87-.33-.91-.64l-.47-3.18-19.21.39-3.61.06-3.12.05-3.06.07-6.03.04c-.64,0-1.88.26-2.39-.21-1.76-1.62-3.2-3.41-4.31-5.51l-2.2-4.14-4.46-.03c-.7-.12-1.23-1.64-.87-2.18l1.55-2.35,1.08-1.73c.25-.4,1.02-1.2.99-1.7-.51-6.65,1.16-12.91,4.78-18.45,3.09-4.72,7.24-8.49,12.4-10.79l2.42-1.08c.51-.23.97-1.06,1.3-1.57l.87-1.34,1.25-1.94,1.66-2.56,1.06-1.52,1.38-2.23,3.65-5.53c.97-1.47,2.41-2.96,3.93-3.67l1.27-.59,7.04-.37,2.23-.11,1.95-.1,2.58-.14-.58-9.27-.15-3.3-.67-11.96c-.03-.54.45-.88.81-.97,2.09-.56,4.1-.89,6.26-1.24l4.64-.76C65.81-.02,67.83,0,69.89,0l2.87.29c1.76.18,3.43.84,4.48,2.31l.1,1.67.41,3.93v1.68c1.09.3,2.16.47,3.25.47h3.34s2.04,0,2.04,0h3.07s4.22-.11,4.22-.11l3.05-.15,2.21-.16,1.85-.13.84,1.46c-.69.44-1.01.71-1.51,1.19l-3.41,3.33,2.94.73,2.69,1.14,2,.77c.08,1.16-.83,1.45-1.61,1.81-1.55.72-3.07,1.1-4.68,1.58-2.27.68-4.37,1.12-6.78,1-2.37-.13-4.69.15-7.04.14h-1.52c-2.58-.03-5.2-.05-7.73-.72-.98-.26-1.16-1.82-1.32-2.62l-.69-3.48-.4-1.86c-1.44-.34-2.6-.61-3.97-.55l-5.06.21c-2.62.11-5.16.47-7.66,1.21l-1.56.46.51,7.97.1,4.2,7.41-.38,1.45-.07,2.95-.13,2.25-.09,1.98-.08,9.92-.51,8.13-.37,16.56-.84c1.49-.08,2.75.23,4.1,1.01,1.67.96,2.85,3.61,3.18,5.6l.57,3.38.54,2.23c.83,3.4.73,6.82,1.25,10.27l1.72,11.37,3.51-.37,1.88-.16,1.18-3.97.6-1.61c.36-.98.77-1.83,1.26-2.71l1.6-2.87.69-1.1,1.93-2.93,2.45-3.11,1.27-1.05c.55-.98,1.32-1.61,2.51-1.37l.84,2.21.2,1.89.21,1.39.24,1.6.35,2.81.27,1.67.11,1.89.06,1.2.08,1.34,1.86-1.79c.76-.73,1.24-1.78,2.69-1.26l.67,1.89c.25.71.25,1.44.28,2.21l.21,1.27.22,1.46ZM62.69,12.39l1.4-.17,6.64.08,1.87.16-.41-2.72c-.24-1.62.46-3.02,1.66-4.16l1.24-1.18c.27-.26.85-.89.44-1.22-1.68-1.35-3.72-1.53-5.76-1.54l-2.63-.02-1.86.13-5.46.81-5.91.93c-.3.4-.14,1.09-.12,1.58l.12,2.71.18,3.84.1,2.38c1.07-.4,2.39-.67,3.64-.88l2.96-.5,1.9-.21ZM96.29,17.37l-3.01-.67c-.12-.14-.26-.83-.11-1.03.34-.47,3.64-1.45,5.46-4.1l-3.11.16-2.75.11-1.45.12-3.1-.09-3.95.08-3.68-.07c-1.68-.03-3.48-.25-5.17-.71l-1.71-.47.24,1.59c.15,1.02.29,1.76.33,2.79.05,1.14.6,2.4.77,3.61.08.61.22,1.6.59,2.05l2.67.42,3.22.15h3.5s1.5-.14,1.5-.14l4.82.03,2.71-.06,7.22-1.89c-1.45-1.28-3.15-1.49-5-1.9ZM75.55,101.23l1.47-1.27c.34-.78.73-1.59.86-2.34.51-3.02.46-5.81,0-8.79-.12-.8-.05-1.61,0-2.4.19-3.35-.33-6.11,1.67-8.95l2-.66c.76-.25,1.58.25,1.96.85.12-1.62.78-3.11,2.29-3.82.5-.23,1.73-.37,2.22-.11.7.37,1.22,1.25,1.69,1.7.74.25,1.12-.85,1.51-1.1.88-.58,2.04.1,2.67.77,1.44,1.49,1.58,3.39,1.9,5.51,1.05-1.22,2.21-1.3,3.29-.79.97.46,1.44.94,1.77,1.95.23.71.38,1.36.4,2.09l.11,3.19.06,1.99.04,3.77-.38,6.18-.15,1.46,1.88.03,4.97-.17,5.89-.15,6.76-.22,1.2-.11-.24-1.56-1.09-7.49-.74-4.83-1.87-12.69-2.5-16.68-1.94-13.19-.66-4.3-.92-5.93c-.21-1.34-.49-2.45-1.16-3.69-.69-1.26-2.13-2.67-3.78-2.6l-15.19.66-5.19.24-1.84.09-2.96.13-14.94.71-3.84.17-5.39.28-1.78.05-5.84.35-1.92.07-3.3.17c-2.82.15-5.35-.07-7.44,2.22l-1.35,1.47-1.31,1.88-1.15,1.84-1.49,2.35-1.21,1.74-1.35,2.23-2.17,3.24-.96,1.73,4.9-.81c.55-.09.94-.7,1.23-1.17l1.15-1.85,1.04-1.53c.72-1.06,1.47-2.05,1.93-3.27,1-2.62,3.07-4.17,5.91-3.49l1.2.96c.94,1.2.65,2.56.93,3.95l5.74,27.55,2.01,9.61,1.43,6.77.8,3.81.82,3.94,1.9,8.79,7.74-.23,6.23-.15,4.49-.13ZM44.32,59.76l1.86,10.84,1.64,9.38.31,1.73.35,2.27.48,2.85,2.17,12.67,4.09-.06-1.06-5.03-4.17-19.77-4.34-20.72-.7-3.28-2.63-12.35c-.44-.93-2.13-.87-2.81-.3-1.13.95-1.66,2.08-2.38,3.31l-.64,1.08-3.12,5.03,2.42.08,1.77-3.01.64-1.16.91-1.95c.2-.42,1.07-.85,1.7-1.18l1.03,5.44,1.19,6.69.41,2.42.87,5.03ZM120.79,71.96h1.74s1.84-.03,1.84-.03l4.72-.36.94-3.01.58-1.75c.35-1.06.71-2.05,1.25-3l1.87-3.35,2.29-3.49c.2-.31,0-1.18-.02-1.56l-.19-4.26-.1-1.84-.2-1.68-.21-1.37-.33-3.52-.35-1.97-1.79,1.8-1.2,1.43-.86,1.32-1.34,2.06-1.73,2.87-.64,1.19-.97,1.8-1.55,5.41c-.2.69-.58,1.41-1.03,1.97l-4.76.16-1.46.3.45,3.34.19,1.83.46,2.23.54,3.52,1.9-.05ZM37.3,47.64l3.65.41-1.04-5.47-.89,1.53-.84,1.82-.88,1.7ZM36.73,65.7l1.64,1.55c2.61,2.47,4.9,5.14,6.75,8.21l.68.6-3.07-17.6-1.53-8.61c-9.36-2.21-19.01.36-26.12,6.46,2.35.22,4.38.35,6.48.96,4.6,1.33,8.81,3.47,12.56,6.4l2.61,2.03ZM137.59,92.24l2.33-.08c1.23.48,1.84-.34,3.58.05.19.04.8-.09.73-.26l-.26-.72-.21-4.33c-.04-.74,0-1.25-.08-1.84l.14-1.6c.11-1.24-.65-1.4-.12-2.87l-.16-1.89-.38-3.48v-1.43s-.22-3.16-.22-3.16l-.17-2.59-.06-2.64-.25-3.3-.16-1.61-.21-1.03-.32-3.61-.35-2.09c-.31.1-.71.37-.93.64l-.85,1.02-1.17,1.42-.9,1.28-1.32,2.09-1.54,2.47-1.13,2.06c-.24.44-.63,1.1-.78,1.62l-1.41,4.9c-.48,1.66-.49,2.27-1.99,2.3l-2.56.05-1.28.11c-1.01.09-1.83.07-2.77.09l-3.86.09,1,6.48,1.26,8.1.91,4.62,1.62-.19,3.9-.36,5.08-.42,1.77-.03,3.12.15ZM96.54,104.34l.78-.72c1.46-1.35,1.96-3.1,2.12-5.06l.22-2.74.11-2.14-.1-6.37-.03-2.3c-.02-1.42-.03-2.91-1.59-3.51-.93.53-1.83,2.26-1.84,3.38v1.57s.05,6.18.05,6.18c.02,1.69-.27,3.29-.06,4.97.04.31-.49.82-.79.84s-1-.4-1-.71l.04-3.88.12-3.76-.08-4.07-.61-6.09-.4-1.79c-.1-.46-.3-.9-.56-1.18-.22-.23-.99-.43-1.23-.16-.94,1.04-1.02,2.63-.99,4.03l.12,4.45.06,4.28-.03,1.71-.28,3.96c.21.74.2,1.36-.09,2.19-.39.08-.83.15-1.06.04s-.58-.73-.57-1l.19-3.79v-1.88s.04-1.76.04-1.76v-2.36s-.1-2.26-.1-2.26l-.05-2.37-.31-3.42c-.13-1.45-.78-2.72-1.8-2.62-.54.05-1.42,1.32-1.34,2.65.05.87,0,1.83-.1,2.64l-.2,1.56.15,1.84.08,2.11.16,4.09.12,2.14.15,3.38-.13,1.66c-.16.29-1.14.47-1.41.26-.76-.94-.31-2.3-.35-3.31l-.15-3.29-.18-2.29-.43-6.96c.21-1.09.08-2.47-.88-3.22-.36-.28-1.16.02-1.44.29-.36.35-.57.92-.62,1.47l-.35,3.64-.04,1.6.08,2.02c.02.47-.01,1.06-.06,1.46l.4,4.08-.16,2.19-.37,2.02-.54,2.24c-.28,1.17-1.84,2.15-2.23,2.17l-1.58.08-7.67.35,1.66,1.98c.3.36,1.09.94,1.49,1.18l1.69,1,2.43.97,2.3.54c1.61.38,3.17.53,4.82.46l1.52-.06c2.55-.1,5.05-.44,7.4-1.39,2.01-.81,3.86-1.65,5.52-3.18ZM1.37,86.42l3.7.06-1.08-4.13-1.1,1.54-1.52,2.54Z"/>
      <path d="M38.73,60.92c1.22-1.44,1.74-3.09.89-4.72-1.64-3.13-5.66-3.37-8.96-2.06-.21.08-.72.19-.91.14-.23-.07-.31-.62-.34-.92-.02-.23.45-.35.76-.49,2.09-1,4.17-1.1,6.43-.63,2.4.5,4.7,2.67,4.87,5.33.14,2.18-1.16,4.16-2.83,5.43l-.71-.07c-.17-.02-.25-.76-.14-.89l.95-1.11Z"/>
    </g>
  </g>
</svg>