<?xml version="1.0" encoding="UTF-8"?>
<svg id="Layer_2" data-name="Layer 2" xmlns="http://www.w3.org/2000/svg" viewBox="0 0 511.94 496.32">
  <defs>
    <style>
      .cls-1 {
        fill: none;
        stroke: #f8c158;
        stroke-miterlimit: 10;
      }
    </style>
  </defs>
  <g id="Layer_5" data-name="Layer 5">
    <path class="cls-1" d="M445.92,121.23l-40.67-13.7c-18.58-6.26-34.8-18.04-46.49-33.78l-25.6-34.45c-38.45-51.75-115.93-51.75-154.38,0l-25.6,34.45c-11.69,15.73-27.91,27.52-46.49,33.78l-40.67,13.7C4.92,141.82-19.02,215.5,18.31,268.06l24.85,34.99c11.35,15.98,17.55,35.05,17.76,54.65l.46,42.91c.69,64.47,63.37,110.01,124.9,90.74l40.96-12.82c18.71-5.86,38.76-5.86,57.47,0l40.96,12.82c61.52,19.26,124.21-26.28,124.9-90.74l.46-42.91c.21-19.6,6.41-38.67,17.76-54.65l24.85-34.99c37.33-52.56,13.39-126.25-47.71-146.83Z"/>
  </g>
</svg>