<?xml version="1.0" encoding="UTF-8"?>
<svg id="Layer_2" data-name="Layer 2" xmlns="http://www.w3.org/2000/svg" viewBox="0 0 404.8 421.57">
  <defs>
    <style>
      .cls-1 {
        fill: none;
        stroke: #0095a5;
        stroke-miterlimit: 10;
      }
    </style>
  </defs>
  <g id="Layer_5" data-name="Layer 5">
    <path class="cls-1" d="M397.85,254.54c-25.2-23.78-25.2-63.73,0-87.51h0c12.59-11.88,5.7-32.98-11.5-35.23h0c-34.42-4.49-58.01-36.82-51.66-70.8h0c3.17-16.98-14.86-30.02-30.1-21.77h0c-30.5,16.51-68.67,4.16-83.59-27.04h0c-7.46-15.59-29.74-15.59-37.2,0h0c-14.93,31.21-53.09,43.55-83.59,27.04h0c-15.24-8.25-33.27,4.79-30.1,21.77h0c6.35,33.98-17.24,66.31-51.66,70.8h0c-17.2,2.24-24.08,23.35-11.5,35.23h0c25.2,23.78,25.2,63.73,0,87.51h0c-12.59,11.88-5.7,32.98,11.5,35.23h0c34.42,4.49,58.01,36.82,51.66,70.8h0c-3.17,16.98,14.86,30.02,30.1,21.77h0c30.5-16.51,68.67-4.16,83.59,27.04h0c7.46,15.59,29.74,15.59,37.2,0h0c14.93-31.21,53.09-43.55,83.59-27.04h0c15.24,8.25,33.27-4.79,30.1-21.77h0c-6.35-33.98,17.24-66.31,51.66-70.8h0c17.2-2.24,24.08-23.35,11.5-35.23h0Z"/>
  </g>
</svg>