<?xml version="1.0" encoding="UTF-8"?>
<svg id="Layer_2" data-name="Layer 2" xmlns="http://www.w3.org/2000/svg" viewBox="0 0 61.04 88.62">
  <defs>
    <style>
      .cls-1 {
        fill: #191919;
      }
    </style>
  </defs>
  <g id="Layer_5" data-name="Layer 5">
    <g>
      <g>
        <path class="cls-1" d="M59.94.17c-4.39.35-16.09,1.26-20.12,1.21-3.73-.05-4.77,3.13-4.77,3.13,0,0-2.76,6.51-3.04,6.82-.39.41-.67.7-.88.91l.05-8.52c.76-.25,1.3-.97,1.3-1.81,0-1.05-.85-1.91-1.91-1.91s-1.91.85-1.91,1.91c0,.84.55,1.56,1.3,1.81l.05,8.62c-.22-.21-.53-.53-.98-1.01-.28-.3-3.04-6.82-3.04-6.82,0,0-1.04-3.18-4.77-3.13C17.2,1.43,5.49.52,1.11.17.05.08-.29.43.25,1.11c.34.43.73.91,1.15,1.44.74.74,1.01,1.38,2.68,1.38,5.46.52,14.73,1.4,15.73,1.4,1.44,0,1.1,1.53.1,1.85-1,.32-1.74-.62-1.74-.62,0,0-12.74-1.2-13.48-1.2s-.46.54-.17.86c.63.69,1.31,1.38,2.02,2.06.23.22.81.78,1.92.78s14.2,1.34,15.17,1.34c1.44,0,1.1,1.53.1,1.85-1,.32-1.74-.62-1.74-.62,0,0-10.81-1.02-11.43-1.02s-.84.37-.51.61c2.56,1.82,5.42,3.14,8.47,3.26,0,0,6.98.45,8.22.45s2.16.48,2.65.9c.11.1.45.58.64,1.29v.17s0,0,0,0l.02,2.63c-.37-.13-.76-.29-1.17-.5-1.44-.85-6.71-2.02-7.37,3.09,0,0-.48,3.91,3.87,4.84,1.41.3,3.1.25,4.71.23l.03,5.32c-1.56.11-3.04.27-3.91.87-2.39,1.64-3.06,6.22,3.95,6.47l.03,4.61c-1.26.17-3.25.62-3.15,2.38.1,1.66,1.93,2.27,3.18,2.5l.02,2.64c-1.25.33-2.4.91-2.4,2.19s1.89,2.02,2.42,2.12l.02,3.4.27,1.86.31-1.86.02-3.24c1.28.51,1.21,1.82,1.21,1.82.48-1.28-.3-1.86-1.21-2.31l.02-3.22c.47-.12,1.04-.24,1.73-.36,2.4-.4,1.77-2.7,1.27-2.99-.34-.31-1.22-.66-2.68-.9-.11-.03-.21-.05-.31-.07v-2.9c.61-.11,1.29-.25,2.08-.43,3.27-.75,2.78-3.41,2.77-3.51-.02-.2.03-2.92-4.66-3.28,0,0-.05,0-.14.01l.02-4.11c1.81-.13,3.72-.26,4.93-.94,2.79-1.56,2.57-4.43,1.1-6.23-1.36-1.67-5.08-1.59-5.99-1.56l.02-4.42c3.19.51,4.28-.6,5.4-.76,0,0,2.37.06,2.4-2.61,0,0-1.95-.51-3.19.88,0,0-1.54,1.87-4.6,1.26v-2.91s.01,0,.01,0v-.5c.19-.53.45-.88.54-.96.49-.43,1.4-.9,2.65-.9s8.22-.45,8.22-.45c3.05-.12,5.91-1.44,8.47-3.26.34-.24.11-.61-.51-.61s-11.43,1.02-11.43,1.02c0,0-.75.94-1.74.62-1-.32-1.33-1.85.1-1.85.97,0,14.05-1.34,15.17-1.34s1.69-.56,1.93-.78c.71-.68,1.38-1.37,2.01-2.06.29-.32.57-.86-.17-.86s-13.48,1.2-13.48,1.2c0,0-.75.94-1.74.62-1-.32-1.33-1.85.1-1.85,1.01,0,10.27-.87,15.73-1.4,1.67,0,1.94-.65,2.68-1.38.42-.53.81-1.01,1.15-1.44.54-.67.2-1.02-.85-.94ZM30.28,56.04c-.65-.31-1.23-.64-1.29-1.19-.08-.7.25-1.15,1.27-1.52l.02,2.71ZM31.18,49.85c1.46.13,1.84.63,1.85.64,0,0,.91,1.1-.87,1.46-.37.08-.8.15-1.24.24v-2.38c.11.01.19.02.26.03ZM30.23,48.62c-1.91-.54-2.09-.95-2.08-1.48,0-.62.69-.82,2.07-1.09l.02,2.57ZM31.24,40.25s2.91.13,2.95,1.89c.04,1.78-2.3,2.49-3.22,2.62,0,0,0,0,0,0l.02-4.51c.09,0,.17,0,.26,0ZM30.17,38.72c-1.5,0-4.19-.31-3.9-2.42.16-1.21,1.87-1.48,3.88-1.65l.02,4.07ZM36.12,30.21c.14,2.2-2.44,2.45-5.1,2.63l.03-5.27c2.67,0,4.93.27,5.07,2.64ZM30.1,25.93c-1.99.12-7.03.09-6.77-3.51,0,0,.3-3.3,4.86-1.73.69.24,1.31.42,1.88.55l.03,4.69Z"/>
        <path class="cls-1" d="M3.77,7.01s1.91,2.08,2.6,2.6c.69.52,2.08.78,2.6.74,0,0-.39.87.26,1.65.65.78,4.73,3.04,7.03,3.39s11.07.65,11.98,1.04c.91.39.74,1.65.74,1.65,0,0-1.87-.87-3.56-.65-1.69.22-4.95,1.13-4.99,5.47-.04,4.34,3.52,6.21,8.55,5.95v2.95s-1.3.22-1.78.26H3.72l.04-25.04Z"/>
        <path class="cls-1" d="M57.55,7.1s-1.74,1.87-2.3,2.3c-.56.43-1.69,1.09-2.86.91,0,0,.61.91-.39,1.82-1,.91-5.17,3.08-7.38,3.39-2.21.3-10.42.61-10.76.69-.35.09-1.35.09-1.39,1.26v1.61s1.56.09,2.78-1.3c1.22-1.39,3.95-1.13,4.95-.69,0,0,.69,2.73-1.3,3.99,0,0-.56.43-2.6,1,0,0-2,.87-3.82.69v1.87s5.9-.17,6.77,3.91c0,0,.69,1.91-.09,3.56h18.4V7.1Z"/>
        <path class="cls-1" d="M29,22.22v2.52s-3.3-.1-3.98-1.16c-.68-1.06-.05-2.22,1.28-2.09,1.33.13,2.69.73,2.69.73Z"/>
        <path class="cls-1" d="M32.45,28.87v2.64s2.87-.1,2.59-1.41c-.28-1.31-2.59-1.23-2.59-1.23Z"/>
        <path class="cls-1" d="M29.08,36.02v1.41s-1.38-.18-1.46-.76c-.08-.58,1.46-.65,1.46-.65Z"/>
        <path class="cls-1" d="M32.4,35.72v1.84s3.68.4,4.56,3.22h20.64v-7.7h-18.98s-1.74,2.74-6.22,2.64Z"/>
        <path class="cls-1" d="M26.54,40.78H3.81v-7.73h21.52s-1.91,1.41-1.84,3.9c.08,2.49,3.05,3.83,3.05,3.83Z"/>
        <path class="cls-1" d="M26.02,47.21H3.78v-5.49h25.32v2.02s-3.21.88-3.08,3.47Z"/>
        <path class="cls-1" d="M32.35,41.71v1.32s.81-.42.77-.86-.77-.46-.77-.46Z"/>
        <path class="cls-1" d="M32.35,47.21h25.25v-5.47h-20.46s1.03,4.33-4.81,5.21l.02.26Z"/>
        <path class="cls-1" d="M27.61,52.48H3.8v-3.71h22.57s.88,1.43,2.77,1.93v.77s-.99.33-1.54,1.01Z"/>
        <path class="cls-1" d="M35.43,52.44h22.18v-3.69h-22.86s1.74,1.12.68,3.69Z"/>
        <path class="cls-1" d="M28.29,57.05H3.8v-2.92h22.99s-.31,1.74,1.49,2.92Z"/>
        <path class="cls-1" d="M33.5,57.07h24.11v-2.97h-25.27v1.54s.99.7,1.16,1.43Z"/>
        <path class="cls-1" d="M29.41,61.51H3.8v-2.33h25.41s.09,1.65.2,2.33Z"/>
        <path class="cls-1" d="M32.07,61.47h25.56v-2.31h-25.32s-.04,1.89-.24,2.31Z"/>
        <rect class="cls-1" x="3.69" y="63.66" width="53.92" height="1.64"/>
        <rect class="cls-1" x="3.69" y="67.41" width="53.8" height="1.52"/>
      </g>
      <g>
        <path class="cls-1" d="M25.69,74.29v7.75c0,1.03-.04,1.78-.11,2.21-.06.37-.25.68-.57.94-.32.26-.82.39-1.49.39s-1.18-.14-1.55-.42c-.36-.28-.59-.64-.69-1.11-.04-.21-.09-.77-.09-2.16v-7.6h-3.38v7.49c0,1.54.09,2.67.27,3.47.13.57.41,1.11.82,1.63.41.51.98.93,1.68,1.25.71.32,1.69.47,3.02.47,1.09,0,1.99-.15,2.68-.43.7-.29,1.27-.69,1.69-1.19.42-.5.72-1.12.87-1.83.15-.7.22-1.83.22-3.48v-7.38h-3.38ZM28.37,74.99v6.68c0,1.57-.07,2.69-.21,3.33-.13.6-.37,1.12-.72,1.53-.35.41-.83.75-1.42.99-.6.25-1.41.38-2.41.38-1.21,0-2.12-.14-2.73-.41-.6-.27-1.08-.62-1.42-1.05-.34-.43-.57-.88-.68-1.34-.17-.74-.25-1.85-.25-3.32v-6.79h1.97v6.89c0,1.18.03,1.94.11,2.3.13.63.45,1.15.95,1.53.49.38,1.15.57,1.98.57s1.49-.18,1.93-.55c.45-.37.73-.83.82-1.37.08-.48.12-1.24.12-2.33v-7.05h1.97Z"/>
        <path class="cls-1" d="M49.32,74.55c-.78.34-1.39.84-1.81,1.49-.42.65-.63,1.36-.63,2.1,0,1.16.45,2.15,1.33,2.96.63.57,1.66,1.03,3.16,1.41,1.1.28,1.8.47,2.11.58.49.18.71.35.8.47.13.16.19.35.19.58,0,.39-.17.72-.53,1.02-.37.31-.94.47-1.71.47-.72,0-1.29-.18-1.7-.53-.41-.36-.69-.94-.83-1.74l-.06-.32-3.28.32.04.36c.18,1.58.76,2.81,1.72,3.65.96.84,2.33,1.26,4.08,1.26,1.19,0,2.2-.17,3.01-.52.83-.35,1.49-.9,1.95-1.63.45-.72.68-1.51.68-2.34,0-.91-.19-1.69-.58-2.32-.38-.63-.92-1.13-1.59-1.49-.65-.35-1.62-.68-2.96-1-1.54-.37-2.11-.65-2.31-.82-.19-.16-.27-.33-.27-.54,0-.23.09-.41.28-.55.38-.28.92-.42,1.61-.42s1.16.13,1.47.37c.3.24.51.67.61,1.26l.05.31,3.33-.15v-.35c-.06-1.32-.54-2.4-1.45-3.2-.9-.79-2.24-1.19-3.98-1.19-1.06,0-1.98.17-2.74.49ZM54.41,85.71c.52-.44.78-.96.78-1.56,0-.4-.12-.75-.36-1.03-.23-.27-.59-.5-1.11-.69-.33-.12-1.04-.31-2.17-.6-1.37-.34-2.33-.76-2.86-1.25-.74-.67-1.1-1.47-1.1-2.44,0-.61.17-1.19.52-1.72.34-.53.84-.94,1.49-1.22.67-.29,1.5-.44,2.46-.44,1.56,0,2.75.34,3.52,1.02.69.6,1.06,1.38,1.16,2.35-.49.02-1.62.07-2.01.09-.15-.61-.41-1.09-.79-1.39-.44-.35-1.08-.53-1.91-.53s-1.53.19-2.03.55c-.37.27-.57.66-.57,1.11,0,.42.17.79.52,1.08.39.33,1.21.64,2.6.97,1.26.3,2.2.62,2.8.93.56.3,1.01.72,1.33,1.24.32.52.48,1.17.48,1.95,0,.7-.19,1.36-.58,1.97-.38.6-.93,1.06-1.62,1.36-.72.31-1.64.46-2.74.46-1.58,0-2.79-.37-3.62-1.09-.75-.66-1.23-1.61-1.43-2.84.47-.05,1.53-.15,1.92-.19.19.8.52,1.42.99,1.83.54.47,1.27.71,2.16.71.94,0,1.67-.21,2.17-.64Z"/>
        <path class="cls-1" d="M4.98,76.02c-1.19,1.29-1.8,3.12-1.8,5.43,0,2.19.6,3.94,1.79,5.22,1.19,1.28,2.74,1.93,4.58,1.93,1.49,0,2.74-.38,3.73-1.14.95-.73,1.65-1.86,2.07-3.34l.13-.45h-3.55l-.09.22c-.19.47-.43.83-.72,1.09-.45.4-.97.6-1.6.6-.86,0-1.54-.31-2.07-.95-.54-.65-.82-1.79-.82-3.39,0-1.5.28-2.59.83-3.23.55-.64,1.24-.94,2.12-.94.63,0,1.15.17,1.59.52.25.21.46.46.61.76l.1.19h3.56l-.13-.45c-.32-1.07-.79-1.91-1.41-2.5-1.07-1.03-2.48-1.55-4.18-1.55-1.95,0-3.54.66-4.74,1.96ZM5.48,86.19c-1.06-1.14-1.6-2.74-1.6-4.74,0-2.13.54-3.79,1.61-4.95,1.08-1.17,2.46-1.74,4.22-1.74,1.52,0,2.76.46,3.7,1.35.44.42.79,1.01,1.06,1.74h-2.19c-.18-.3-.4-.58-.67-.8-.56-.45-1.24-.68-2.03-.68-1.08,0-1.98.4-2.65,1.19-.67.78-1,1.99-1,3.69,0,1.79.32,3.05.98,3.84.67.8,1.55,1.2,2.61,1.2.79,0,1.49-.26,2.06-.78.32-.28.58-.67.8-1.13h2.12c-.38,1.1-.93,1.96-1.67,2.53-.86.66-1.96.99-3.3.99-1.67,0-3-.56-4.07-1.71Z"/>
        <path class="cls-1" d="M33.48,76.02c-1.19,1.29-1.8,3.12-1.8,5.43,0,2.19.6,3.94,1.79,5.22,1.19,1.28,2.74,1.93,4.58,1.93,1.49,0,2.74-.38,3.73-1.14.95-.73,1.65-1.86,2.07-3.34l.13-.45h-3.55l-.09.22c-.19.47-.43.83-.72,1.09-.45.4-.97.6-1.6.6-.86,0-1.54-.31-2.07-.95-.54-.65-.82-1.79-.82-3.39,0-1.5.28-2.59.83-3.23.55-.64,1.24-.94,2.12-.94.63,0,1.15.17,1.59.52.25.21.46.46.61.76l.1.19h3.56l-.13-.45c-.32-1.07-.79-1.91-1.41-2.5-1.07-1.03-2.48-1.55-4.18-1.55-1.95,0-3.54.66-4.74,1.96ZM33.99,86.19c-1.06-1.14-1.6-2.74-1.6-4.74,0-2.13.54-3.79,1.61-4.95,1.08-1.17,2.46-1.74,4.22-1.74,1.52,0,2.76.46,3.7,1.35.44.42.79,1.01,1.06,1.74h-2.19c-.18-.3-.4-.58-.67-.8-.56-.45-1.24-.68-2.03-.68-1.08,0-1.98.4-2.65,1.19-.66.77-1,2.01-1,3.69,0,1.79.32,3.05.98,3.84.67.8,1.55,1.2,2.61,1.2.79,0,1.49-.26,2.06-.78.32-.28.58-.67.8-1.13h2.12c-.38,1.1-.93,1.96-1.67,2.53-.86.66-1.96.99-3.3.99-1.67,0-3-.56-4.07-1.71Z"/>
      </g>
    </g>
  </g>
</svg>