<?xml version="1.0" encoding="UTF-8"?>
<svg id="Layer_2" data-name="Layer 2" xmlns="http://www.w3.org/2000/svg" viewBox="0 0 105.07 61.25">
  <defs>
    <style>
      .cls-1 {
        fill: #191919;
      }
    </style>
  </defs>
  <g id="Layer_5" data-name="Layer 5">
    <g>
      <path class="cls-1" d="M86.24,54.57c-6.72,4.47-17.63,4.23-24.08-.5l-.11,7.14h-18.9s-.11-7.36-.11-7.36c-5.91,4.99-17.59,5.16-24.17.75l-.15,6.59-18.69.04-.02-26.85h18.69c.03,6.6,5.44,12.03,11.92,12.18,6.76.16,12.48-5.21,12.47-12.14l18.92-.02c.15,6.95,5.61,12.17,12.18,12.17,6.6,0,12.04-5.2,12.28-12.16l18.55-.04.07,26.86h-18.62c-.02-2.3.24-4.23-.21-6.67Z"/>
      <g>
        <path class="cls-1" d="M59.3,13.42c-1.43-3.82-4.98-5.8-8.74-5.14-3.52.62-6.39,3.71-6.47,7.47-.08,3.65,2.55,7.09,6.05,7.75,3.95.74,7.63-.92,9.12-4.98l7.67,3.07c-2.93,7.44-10.39,11.38-18.01,10.06s-12.92-7.92-13.02-15.49S41.24,1.81,48.55.34c7.8-1.57,15.39,2.45,18.33,9.95l-7.59,3.13Z"/>
        <path class="cls-1" d="M58.48,16c.01,3.82-3.12,6.64-6.56,6.58-3.47-.07-6.62-2.66-6.64-6.6l13.19.03Z"/>
      </g>
    </g>
  </g>
</svg>