<?xml version="1.0" encoding="UTF-8"?>
<svg id="Layer_2" data-name="Layer 2" xmlns="http://www.w3.org/2000/svg" viewBox="0 0 121.33 30.24">
  <defs>
    <style>
      .cls-1 {
        fill: #191919;
      }
    </style>
  </defs>
  <g id="Layer_5" data-name="Layer 5">
    <g>
      <path class="cls-1" d="M110.75,29.63c-2.37-2.2-5.53-2.12-8.46-3.32l-.03-3.08c.79-.21,1.37.12,2.08.29l4.16,1.02c1.31.32,2.37.89,3.31,2.02,2-2.47,6.03-2.28,9.46-3.69l.06,3.39c-2.98,1.38-6.14,1.14-8.61,3.56-.29.29-.73.44-1.06.41-.35-.02-.61-.32-.92-.61Z"/>
      <g>
        <path class="cls-1" d="M44.9,25.29c-.5,1.02-5.25,1.5-8.44-1.1l-3.75-3.06c-5.22-.71-8.04-4.92-6.99-10,.96-4.63,5.66-6.95,10.1-5.85,4.38,1.09,6.58,5.25,5.67,9.65-.54,2.62-2.33,4.59-5.06,5.8,2.21,2.49,4.63,3.3,8.05,2.47.35.47.74,1.42.42,2.08ZM38.91,13.09c0-2.91-2.37-5.27-5.29-5.27s-5.29,2.36-5.29,5.27,2.37,5.27,5.29,5.27,5.29-2.36,5.29-5.27Z"/>
        <path class="cls-1" d="M68.32,18.34c2.47.55,4.74.09,6.65-1.36.79.53,1.1,1.32,1.17,2.33-2.51,1.63-5.63,2.27-8.47,1.6-3.2-.76-5.21-2.88-5.63-6-.38-2.89.04-5.66,2.13-7.71s4.95-2.54,7.85-1.82c2.33.58,3.97,2.51,4.45,4.83.27,1.28.71,2.43.28,3.84l-11.85.06c.26,1.94,1.37,3.78,3.44,4.24ZM70.1,7.5c-2.63-.09-5.12,1.57-4.91,4.34h8.05c.32,0,.56-.25.62-.41.4-1.1-1-3.84-3.76-3.93Z"/>
        <g>
          <path class="cls-1" d="M93.11,18.36c2.4.55,4.66,0,6.59-1.23.73.13,1.27,1.27,1.21,2.17-2.5,1.67-5.6,2.26-8.48,1.61-3.47-.78-5.45-3.36-5.76-6.84-.24-2.76.55-5.36,2.56-7.12,2.06-1.8,4.78-2.24,7.58-1.56,3.51.85,5.09,4.83,4.57,8.69l-11.55.03c-.14,1.93,1.21,3.78,3.27,4.25ZM98.45,11.91c.93-1.72-1.2-4.08-2.99-4.35-2.11-.31-3.87.51-5.04,2.11-.35.48-.86,1.93-.16,2.09l8.19.15Z"/>
          <path class="cls-1" d="M120.26,13.08c0,4.49-3.66,8.13-8.17,8.13s-8.17-3.64-8.17-8.13,3.66-8.13,8.17-8.13,8.17,3.64,8.17,8.13ZM117.38,13.09c0-2.91-2.37-5.26-5.29-5.26s-5.29,2.36-5.29,5.26,2.37,5.26,5.29,5.26,5.29-2.36,5.29-5.26Z"/>
        </g>
        <path class="cls-1" d="M85.47,18.34l.35,1.98c-1.28.83-2.91,1.09-4.39.62s-2.03-1.7-2.04-3.2L79.3.01h3.04s-.01,15.97-.01,15.97c0,.82.08,1.99.85,2.35.63.29,1.46.07,2.3,0Z"/>
        <path class="cls-1" d="M60.49,18.44c.44.1.79,1.4.47,1.79-.71.83-2.07.95-3.14.91-1.4-.05-2.36-.84-2.83-2.24-2.32,2.67-7.24,3.17-9.42.59-1.21-1.43-1.55-3.27-1.56-5.21l-.05-8.47c.95-.59,2.05-.57,2.94-.16l.07,9.52c0,.6.43,1.65.84,2.06,1.18,1.16,2.79,1.49,4.36.92,1.08-.4,2.81-1.43,2.82-2.99l.11-9.51c.75-.39,1.71-.35,2.68-.09l.08,10.95c0,.59.21,1.37.66,1.81.28.28,1.26-.04,1.98.13Z"/>
        <g>
          <path class="cls-1" d="M23.66,13.08c0,4.49-3.66,8.14-8.17,8.14s-8.17-3.64-8.17-8.14,3.66-8.14,8.17-8.14,8.17,3.64,8.17,8.14ZM20.79,13.09c0-2.91-2.37-5.26-5.28-5.26s-5.28,2.36-5.28,5.26,2.37,5.26,5.28,5.26,5.28-2.36,5.28-5.26Z"/>
          <path class="cls-1" d="M3.72,18.27c.56.43,1.84-.08,2.51.23.49.23.44,1.14.31,1.61-.14.52-.62.55-1.34.82-1.85.71-5.02-.14-5.04-2.53L0,0h3.06s.01,15.97.01,15.97c0,.69.12,1.64.65,2.3Z"/>
        </g>
      </g>
    </g>
  </g>
</svg>