<?xml version="1.0" encoding="UTF-8"?>
<svg id="Layer_2" data-name="Layer 2" xmlns="http://www.w3.org/2000/svg" viewBox="0 0 211.94 30.32">
  <defs>
    <style>
      .cls-1 {
        fill: #191919;
      }
    </style>
  </defs>
  <g id="Layer_5" data-name="Layer 5">
    <g>
      <g>
        <path class="cls-1" d="M10.62,17.62c0,5.31.81,7.54,2.92,9.04,1.58,1.04,2.89,1.08,3.85,1.08,1.23,0,2.89-.27,4.23-1.42,2.16-1.85,2.16-5.89,2.16-9.85v-4.62c0-5.66,0-6.66-.08-7.89-.08-1.46-.38-2.12-1.65-2.35-.42-.08-.65-.08-1.42-.15-.5,0-.69-.15-.69-.38s.19-.38.88-.38c2.19,0,4.54.12,5.16.12.69,0,3.19-.12,5.08-.12.58,0,.81.12.81.38,0,.19-.15.35-.65.38-.42.04-.65.04-1.19.15-1.04.19-1.35.77-1.46,2.35-.08,1.23-.12,2.23-.12,7.89v3.77c0,4.39-.19,9.12-3.93,12.16-2.39,2-5.39,2.54-8,2.54-3.39,0-6.77-.5-9.16-2.58-2.04-1.69-3.58-4.5-3.58-10.04v-5.85c0-5.96,0-7.04-.12-8.27-.08-1.08-.31-1.58-1.19-1.85-.42-.15-1.31-.23-1.65-.27-.58-.04-.81-.19-.81-.42s.31-.35,1.04-.35c1.65,0,5.54.12,5.89.12.31,0,4.89-.12,6.27-.12.65,0,.85.12.85.35,0,.31-.19.38-.69.42-.35.04-.89.08-1.27.15-1.08.23-1.27,1.04-1.35,2.27-.08,1.23-.12,3.04-.12,7.97v5.77Z"/>
        <path class="cls-1" d="M56.07,12.54c.12,0,.23-.08.23-.27v-.81c0-5.96,0-6.62-.08-7.85-.08-1.12-.38-1.77-1.65-2.04-.31-.04-.89-.08-1.35-.12-.54,0-.73-.23-.73-.38,0-.23.19-.38.77-.38,2.23,0,5.7.12,6.08.12.35,0,4.77-.12,6.43-.12.58,0,.77.15.77.38,0,.19-.19.38-.58.38-.65.08-.89.08-1.35.15-1,.15-1.31.81-1.42,2.04-.08,1.23-.08,2.23-.08,8.2v6.77c0,3.66,0,6.5.19,8.12.12,1.27.42,1.92,1.58,2.12.54.08,1.31.12,1.69.15.46,0,.65.19.65.38,0,.27-.31.38-.77.38-2.66,0-6.54-.12-7.23-.12-.62,0-3.62.12-5.5.12-.69,0-.85-.19-.85-.42,0-.19.23-.35.73-.35.38-.04.85-.08,1.19-.15.92-.19,1.15-.92,1.27-2.16.15-1.62.23-4.04.23-7.7v-3.12c0-.15-.12-.23-.23-.23h-12.01c-.12,0-.23.04-.23.23v4c0,3.66.04,5.23.19,6.89.12,1.12.46,1.85,1.62,2.04.81.12,1.19.15,1.62.19.42,0,.73.12.73.38,0,.19-.19.38-.77.38-2.19,0-6.73-.12-7.12-.12-.35,0-4.39.12-5.62.12-.42,0-.85-.08-.85-.35s.15-.42.65-.42c.46-.04.69-.08,1.19-.15.92-.12,1.27-1.12,1.35-2.27.12-1.62.19-4.31.19-7.97v-6.7c0-5.96-.04-6.85-.12-8.08-.08-1.35-.5-2.08-1.85-2.27-.46-.08-.65-.08-1.08-.12-.69-.04-.77-.23-.77-.42,0-.27.42-.35.85-.35,2.23,0,5.2.12,6.08.12,1.46,0,4.69-.12,6.35-.12.69,0,.81.15.81.38,0,.19-.23.38-.69.38-.46.04-.96.08-1.35.15-1.04.23-1.23,1.12-1.31,2.23-.12,1.23-.12,2.81-.12,7.62v.81c0,.19.12.27.23.27h12.01Z"/>
      </g>
      <path class="cls-1" d="M72.17,11.76c0-5.96,0-7.08-.12-8.31-.08-1.08-.5-1.77-1.35-1.92-.27-.08-.65-.12-1.15-.15-.46,0-.73-.15-.73-.42,0-.23.19-.35.85-.35,1.54,0,5.31.12,5.62.12.35,0,4.89-.12,6.27-.12.65,0,.85.15.85.38,0,.31-.35.38-.73.38-.38.04-.62.04-1.12.12-1,.19-1.39.69-1.46,2.08-.12,1.23-.12,2.23-.12,8.2v6.77c0,3.04.04,6.62.19,8.24.08,1,.31,1.69,1.46,1.96.5.12,1.19.15,1.69.19.65,0,.81.15.81.38,0,.19-.19.38-.81.38-2.62,0-6.73-.12-7.08-.12-.19,0-4.23.12-5.54.12-.62,0-.92-.08-.92-.38,0-.27.31-.38.77-.38.38-.04.77-.08,1.19-.15.81-.12,1.08-.96,1.19-2.08.15-1.62.23-4.39.23-8.16v-6.77Z"/>
      <g>
        <path class="cls-1" d="M101.91,7.37c.07,0,.13-.04.13-.15v-.46c0-3.35,0-3.97-.04-4.67-.04-.75-.22-1.1-.95-1.26-.18-.04-.55-.07-.86-.07-.24,0-.38-.04-.38-.2s.15-.2.46-.2c1.19,0,2.59.07,3.18.07.53,0,1.92-.07,2.79-.07.31,0,.46.04.46.2s-.13.2-.4.2c-.18,0-.38.02-.64.07-.6.11-.77.48-.82,1.26-.04.71-.04,1.32-.04,4.67v3.88c0,2.03,0,3.77.11,4.72.07.62.2,1.1.86,1.19.31.04.8.09,1.13.09.24,0,.35.07.35.18,0,.15-.18.22-.44.22-1.44,0-2.83-.07-3.45-.07-.51,0-1.9.07-2.76.07-.31,0-.46-.07-.46-.22,0-.11.09-.18.35-.18.33,0,.6-.04.8-.09.44-.09.55-.57.64-1.21.11-.93.11-2.67.11-4.69v-1.94c0-.09-.07-.13-.13-.13h-8.44c-.07,0-.13.02-.13.13v1.94c0,2.03,0,3.77.11,4.72.07.62.2,1.1.86,1.19.31.04.8.09,1.13.09.24,0,.35.07.35.18,0,.15-.18.22-.44.22-1.44,0-2.83-.07-3.45-.07-.51,0-1.9.07-2.79.07-.29,0-.44-.07-.44-.22,0-.11.09-.18.35-.18.33,0,.6-.04.8-.09.44-.09.55-.57.64-1.21.11-.93.11-2.67.11-4.69v-3.88c0-3.35,0-3.97-.04-4.67-.04-.75-.22-1.1-.95-1.26-.18-.04-.55-.07-.86-.07-.24,0-.38-.04-.38-.2s.15-.2.46-.2c1.19,0,2.59.07,3.18.07.53,0,1.92-.07,2.79-.07.31,0,.46.04.46.2s-.13.2-.4.2c-.18,0-.38.02-.64.07-.6.11-.77.48-.82,1.26-.04.71-.04,1.32-.04,4.67v.46c0,.11.07.15.13.15h8.44Z"/>
        <path class="cls-1" d="M110.47,8.98c0-2.62,0-3.1-.03-3.65-.03-.59-.21-.88-.59-.96-.19-.05-.41-.07-.62-.07-.17,0-.28-.03-.28-.17,0-.1.14-.14.41-.14.66,0,1.75.05,2.25.05.43,0,1.45-.05,2.11-.05.22,0,.36.03.36.14,0,.14-.1.17-.28.17s-.31.02-.52.05c-.47.09-.61.38-.64.98-.03.55-.03,1.03-.03,3.65v3.03c0,1.67,0,3.03.07,3.77.05.47.17.78.69.84.24.03.62.07.88.07.19,0,.28.05.28.14,0,.12-.14.17-.33.17-1.14,0-2.23-.05-2.7-.05-.4,0-1.49.05-2.18.05-.22,0-.35-.05-.35-.17,0-.09.07-.14.28-.14.26,0,.47-.03.62-.07.35-.07.45-.36.5-.86.09-.72.09-2.08.09-3.76v-3.03Z"/>
        <path class="cls-1" d="M117.66,8.98c0-2.62,0-3.1-.03-3.65-.03-.59-.17-.86-.74-.98-.14-.03-.43-.05-.67-.05-.19,0-.29-.03-.29-.16s.12-.16.38-.16c.92,0,2.01.05,2.49.05.71,0,1.71-.05,2.51-.05,2.16,0,2.94.72,3.22.98.38.36.86,1.14.86,2.05,0,2.45-1.8,4.17-4.25,4.17-.09,0-.28,0-.36-.02s-.21-.03-.21-.16c0-.14.12-.19.48-.19.97,0,2.32-1.09,2.32-2.84,0-.57-.05-1.72-1.02-2.58-.62-.57-1.33-.67-1.73-.67-.26,0-.52.02-.67.07-.09.03-.14.14-.14.33v6.89c0,1.59,0,2.95.09,3.69.05.48.16.86.67.93.24.03.62.07.88.07.19,0,.28.05.28.14,0,.12-.14.17-.33.17-1.14,0-2.23-.05-2.68-.05-.4,0-1.49.05-2.18.05-.22,0-.35-.05-.35-.17,0-.09.07-.14.28-.14.26,0,.47-.03.62-.07.35-.07.43-.45.5-.95.09-.72.09-2.08.09-3.67v-3.03Z"/>
        <path class="cls-1" d="M126.47,10.49c0-2.95,1.95-6.75,7.14-6.75,4.3,0,6.98,2.5,6.98,6.44s-2.77,7.06-7.16,7.06c-4.96,0-6.97-3.7-6.97-6.75ZM138.18,10.82c0-3.86-2.23-6.25-5.06-6.25-1.99,0-4.25,1.1-4.25,5.39,0,3.58,1.99,6.43,5.31,6.43,1.21,0,4.01-.59,4.01-5.57ZM136.4,1.24c.1.21,0,.26-.09.26s-.24-.03-.59,0c-.95.12-2.32.67-2.96,1.02-.14.07-.26.14-.29.14s-.1-.03-.1-.1.07-.14.16-.22c.69-.65,2.51-2,2.78-2.17.17-.12.29-.16.35-.16.12,0,.16.05.24.21.14.24.29.57.5,1.03Z"/>
        <path class="cls-1" d="M143.95,15.37c-1.69-1.48-2.14-3.41-2.14-5.08,0-1.17.36-3.2,2.02-4.72,1.24-1.14,2.89-1.83,5.46-1.83,1.07,0,1.71.07,2.51.17.66.09,1.21.24,1.73.29.19.02.26.1.26.21,0,.14-.05.34-.09.95-.03.57-.02,1.52-.05,1.86-.02.26-.05.4-.21.4-.14,0-.17-.14-.17-.38-.02-.53-.24-1.14-.67-1.59-.57-.6-1.92-1.07-3.51-1.07-1.5,0-2.49.38-3.25,1.07-1.26,1.15-1.59,2.79-1.59,4.46,0,4.1,3.13,6.13,5.45,6.13,1.54,0,2.47-.17,3.16-.96.29-.33.52-.83.59-1.14.05-.28.09-.34.22-.34.12,0,.16.12.16.26,0,.21-.21,1.71-.38,2.29-.09.29-.16.38-.45.5-.69.28-2.01.4-3.11.4-2.37,0-4.36-.52-5.93-1.88Z"/>
        <path class="cls-1" d="M157.33,8.98c0-2.62,0-3.1-.03-3.65-.03-.59-.17-.86-.74-.98-.14-.03-.43-.05-.67-.05-.19,0-.29-.03-.29-.16s.12-.16.38-.16c.92,0,2.01.05,2.37.05.59,0,1.9-.05,2.44-.05,1.09,0,2.25.1,3.18.74.48.33,1.18,1.21,1.18,2.36,0,1.28-.54,2.45-2.28,3.86,1.54,1.93,2.73,3.46,3.75,4.53.97,1,1.68,1.12,1.94,1.17.19.03.35.05.48.05s.21.05.21.14c0,.14-.12.17-.33.17h-1.64c-.97,0-1.4-.09-1.85-.33-.74-.4-1.4-1.21-2.37-2.53-.69-.95-1.49-2.12-1.71-2.38-.09-.1-.19-.12-.31-.12l-1.5-.03c-.09,0-.14.03-.14.14v.24c0,1.6,0,2.96.09,3.69.05.5.16.88.67.95.26.03.64.07.85.07.14,0,.21.05.21.14,0,.12-.12.17-.35.17-1,0-2.28-.05-2.54-.05-.33,0-1.42.05-2.11.05-.22,0-.35-.05-.35-.17,0-.09.07-.14.28-.14.26,0,.47-.03.62-.07.35-.07.43-.45.5-.95.09-.72.09-2.08.09-3.67v-3.03ZM159.37,10.34c0,.19.03.26.16.31.36.12.88.17,1.31.17.69,0,.92-.07,1.23-.29.52-.38,1.02-1.17,1.02-2.58,0-2.45-1.62-3.15-2.64-3.15-.43,0-.74.02-.92.07-.12.03-.16.1-.16.24v5.24Z"/>
        <path class="cls-1" d="M171.52,12.61c-.09,0-.12.03-.16.14l-.93,2.36c-.17.43-.26.84-.26,1.05,0,.31.16.53.69.53h.26c.21,0,.26.03.26.14,0,.14-.1.17-.29.17-.55,0-1.3-.05-1.83-.05-.19,0-1.14.05-2.04.05-.22,0-.33-.03-.33-.17,0-.1.07-.14.21-.14.16,0,.4-.02.54-.03.8-.1,1.12-.69,1.47-1.55l4.34-10.68c.21-.5.31-.69.48-.69.16,0,.26.16.43.55.41.95,3.18,7.84,4.29,10.46.66,1.55,1.16,1.79,1.52,1.88.26.05.52.07.73.07.14,0,.22.02.22.14,0,.14-.16.17-.8.17s-1.88,0-3.27-.03c-.31-.02-.52-.02-.52-.14,0-.1.07-.14.24-.16.12-.03.24-.19.16-.4l-1.38-3.55c-.03-.09-.09-.12-.17-.12h-3.85ZM175.05,11.75c.09,0,.1-.05.09-.1l-1.56-4.24c-.02-.07-.03-.16-.09-.16s-.09.09-.1.16l-1.59,4.22c-.02.07,0,.12.07.12h3.18Z"/>
        <path class="cls-1" d="M185.68,4.94l-2.58.07c-1,.03-1.42.12-1.68.5-.17.26-.26.47-.29.6-.03.14-.09.21-.19.21-.12,0-.16-.09-.16-.28,0-.28.33-1.84.36-1.98.05-.22.1-.33.21-.33.14,0,.31.17.74.21.5.05,1.16.09,1.73.09h6.85c.55,0,.93-.05,1.19-.09.26-.05.4-.09.47-.09.12,0,.14.1.14.36,0,.36-.05,1.55-.05,2-.02.17-.05.28-.16.28-.14,0-.17-.09-.19-.34l-.02-.19c-.03-.45-.5-.93-2.04-.96l-2.18-.05v7.06c0,1.59,0,2.95.09,3.69.05.48.16.86.67.93.24.03.62.07.88.07.19,0,.28.05.28.14,0,.12-.14.17-.33.17-1.14,0-2.23-.05-2.71-.05-.4,0-1.49.05-2.18.05-.22,0-.35-.05-.35-.17,0-.09.07-.14.28-.14.26,0,.47-.03.62-.07.35-.07.45-.45.5-.95.09-.72.09-2.08.09-3.67v-7.06Z"/>
        <path class="cls-1" d="M195.36,8.98c0-2.62,0-3.1-.03-3.65-.03-.59-.17-.86-.74-.98-.14-.03-.43-.05-.67-.05-.19,0-.29-.03-.29-.16s.12-.16.38-.16c.47,0,.97.02,1.4.02.45.02.85.03,1.09.03.55,0,3.99,0,4.32-.02.33-.03.61-.07.74-.1.09-.02.19-.07.28-.07s.1.07.1.16c0,.12-.09.33-.14,1.12-.02.17-.05.93-.09,1.14-.02.09-.05.19-.17.19s-.16-.09-.16-.24c0-.12-.02-.41-.1-.62-.12-.31-.29-.52-1.16-.62-.29-.03-2.11-.07-2.45-.07-.09,0-.12.05-.12.17v4.36c0,.12.02.19.12.19.38,0,2.37,0,2.77-.03.41-.03.67-.09.83-.26.12-.14.19-.22.28-.22.07,0,.12.03.12.14s-.07.38-.14,1.26c-.02.34-.07,1.03-.07,1.15,0,.14,0,.33-.16.33-.12,0-.16-.07-.16-.16-.02-.17-.02-.4-.07-.62-.09-.34-.33-.6-.97-.67-.33-.03-2.04-.05-2.45-.05-.09,0-.1.07-.1.17v1.36c0,.59-.02,2.17,0,2.67.03,1.19.31,1.45,2.07,1.45.45,0,1.18,0,1.62-.21.45-.21.66-.57.78-1.28.03-.19.07-.26.19-.26.14,0,.14.14.14.31,0,.4-.14,1.57-.22,1.91-.12.45-.28.45-.93.45-1.3,0-2.25-.03-2.99-.05-.74-.03-1.28-.05-1.8-.05-.19,0-.57,0-.99.02-.4,0-.85.03-1.19.03-.22,0-.35-.05-.35-.17,0-.09.07-.14.28-.14.26,0,.47-.03.62-.07.35-.07.43-.45.5-.95.09-.72.09-2.08.09-3.67v-3.03Z"/>
        <path class="cls-1" d="M205.04,16.8c-.28-.12-.33-.21-.33-.59,0-.95.07-1.98.09-2.26.02-.26.07-.45.21-.45.16,0,.17.16.17.29,0,.22.07.59.16.88.38,1.28,1.4,1.74,2.47,1.74,1.56,0,2.32-1.05,2.32-1.96,0-.84-.26-1.64-1.69-2.76l-.8-.62c-1.9-1.48-2.56-2.69-2.56-4.08,0-1.9,1.59-3.26,3.99-3.26,1.12,0,1.85.17,2.3.29.16.03.24.09.24.21,0,.22-.07.72-.07,2.07,0,.38-.05.52-.19.52-.12,0-.17-.1-.17-.31,0-.16-.09-.69-.45-1.14-.26-.33-.76-.84-1.88-.84-1.28,0-2.06.74-2.06,1.77,0,.79.4,1.4,1.83,2.48l.48.36c2.09,1.57,2.84,2.76,2.84,4.39,0,1-.38,2.19-1.62,3-.86.55-1.83.71-2.75.71-1,0-1.78-.12-2.52-.45Z"/>
      </g>
      <path class="cls-1" d="M211.23,20.79h-123.82c-.26,0-.47-.2-.47-.44s.21-.44.47-.44h123.82c.26,0,.47.2.47.44s-.21.44-.47.44Z"/>
      <g>
        <path class="cls-1" d="M112.77,24.52c0-.12-.07-.18-.18-.18h-.35v-.7h.82c.37,0,.52.15.52.52v3.18c0,.86.55,1.38,1.38,1.38s1.38-.51,1.38-1.38v-3.17c0-.37.16-.52.53-.52h.81v.7h-.35c-.11,0-.18.06-.18.18v2.86c0,1.25-.87,2.11-2.18,2.11s-2.2-.85-2.2-2.11v-2.86Z"/>
        <path class="cls-1" d="M120.11,28.69h.35c.11,0,.18-.07.18-.18v-4.87h.74l2.56,3.64c.21.31.48.78.48.78h.02s-.06-.46-.06-.78v-3.12c0-.37.15-.52.53-.52h.81v.7h-.35c-.11,0-.18.06-.18.18v4.87h-.73l-2.56-3.64c-.21-.31-.47-.78-.47-.78h-.02s.05.46.05.78v3.12c0,.37-.15.52-.52.52h-.82v-.7Z"/>
        <path class="cls-1" d="M128.29,28.69h.56v-4.35h-.56v-.7h1.9v.7h-.56v4.35h.56v.7h-1.9v-.7Z"/>
        <path class="cls-1" d="M132.93,24.52c-.05-.15-.13-.18-.27-.18h-.11v-.7h.46c.41,0,.55.09.68.47l1.26,3.54c.11.31.22.79.22.79h.02s.11-.48.22-.79l1.26-3.54c.14-.38.27-.47.68-.47h.46v.7h-.11c-.15,0-.22.03-.27.18l-1.81,4.87h-.86l-1.81-4.87Z"/>
        <path class="cls-1" d="M140.65,24.34h-.53v-.7h3.38c.37,0,.52.15.52.52v.72h-.74v-.37c0-.12-.07-.18-.18-.18h-1.64v1.8h2.01v.7h-2.01v1.67c0,.11.07.18.18.18h1.68c.11,0,.18-.07.18-.18v-.37h.75v.72c0,.37-.15.52-.52.52h-2.56c-.37,0-.52-.15-.52-.52v-4.53Z"/>
        <path class="cls-1" d="M147.2,24.34h-.53v-.7h2.51c1.01,0,1.72.63,1.72,1.69,0,.96-.63,1.43-1.03,1.52v.02s.15.07.24.26l.69,1.38c.08.17.21.19.41.19h.11v.7h-.4c-.45,0-.61-.06-.8-.43l-.78-1.55c-.15-.27-.25-.31-.57-.31h-.75v2.29h-.81v-5.05ZM149.07,26.4c.62,0,.99-.4.99-1.04s-.37-1.02-.97-1.02h-1.07v2.06h1.06Z"/>
        <path class="cls-1" d="M154.07,28.05s.59.69,1.44.69c.54,0,.99-.33.99-.85,0-1.2-2.78-1.02-2.78-2.81,0-.86.76-1.54,1.84-1.54.61,0,1.64.28,1.64,1.06v.47h-.75v-.27c0-.3-.43-.52-.89-.52-.62,0-1.01.34-1.01.77,0,1.16,2.77.9,2.77,2.79,0,.88-.68,1.64-1.82,1.64-1.22,0-1.9-.85-1.9-.85l.48-.58Z"/>
        <path class="cls-1" d="M159.91,28.69h.56v-4.35h-.56v-.7h1.9v.7h-.56v4.35h.56v.7h-1.9v-.7Z"/>
        <path class="cls-1" d="M164.91,24.34h-.53v-.7h2.33c1.75,0,2.91,1.05,2.91,2.87s-1.16,2.88-2.91,2.88h-1.28c-.37,0-.52-.15-.52-.52v-4.53ZM165.9,28.69h.75c1.28,0,2.12-.77,2.12-2.18s-.85-2.17-2.12-2.17h-.93v4.17c0,.11.07.18.18.18Z"/>
        <path class="cls-1" d="M171.81,28.69h.11c.15,0,.22-.03.27-.18l1.8-4.87h.85l1.8,4.87c.05.15.13.18.27.18h.12v.7h-.46c-.41,0-.54-.1-.67-.47l-.43-1.18h-2.12l-.43,1.18c-.14.37-.27.47-.68.47h-.45v-.7ZM175.27,27.05l-.63-1.75c-.11-.3-.23-.81-.23-.81h-.02s-.11.5-.22.81l-.63,1.75h1.72Z"/>
        <path class="cls-1" d="M179.88,24.34h-.53v-.7h2.33c1.75,0,2.91,1.05,2.91,2.87s-1.16,2.88-2.91,2.88h-1.28c-.37,0-.52-.15-.52-.52v-4.53ZM180.87,28.69h.75c1.28,0,2.12-.77,2.12-2.18s-.85-2.17-2.12-2.17h-.93v4.17c0,.11.07.18.18.18Z"/>
      </g>
    </g>
  </g>
</svg>