<?xml version="1.0" encoding="UTF-8"?>
<svg id="Layer_2" data-name="Layer 2" xmlns="http://www.w3.org/2000/svg" viewBox="0 0 130.9 16.43">
  <defs>
    <style>
      .cls-1 {
        fill: #191919;
        fill-rule: evenodd;
      }
    </style>
  </defs>
  <g id="Layer_5" data-name="Layer 5">
    <g>
      <path class="cls-1" d="M0,15.17s.28-2.94,2.87-2.49c2.87.5,6.27.93,6.17-1-.11-2.03-8.32-1.87-8.37-7.25C.6-2.61,12.49.85,12.49.85c0,0,.08,2.95-2.44,2.78-1.92-.13-5.52-.74-5.61.73-.12,1.85,8.6,2.12,8.37,7.23C12.45,19.7,0,15.17,0,15.17H0Z"/>
      <path class="cls-1" d="M22.64,1.18c-.74-1.9-3.91-.9-3.91-.9l-5.74,14.6c-.74,2.06,3.51,1.37,3.51,1.37l1.17-3.19h5.54l.62,1.79c.83,2.23,4.55,1.4,4.55,1.4L22.64,1.18ZM18.93,9.6l1.58-4.33,1.49,4.33h-3.08Z"/>
      <path class="cls-1" d="M47.25,3.98v10.83c0,2.12,3.36,1.4,3.36,1.4V3.98h4.03c1.84,0,1.22-3.87,1.22-3.87h-12.64c-1.84,0-1.21,3.87-1.21,3.87h5.25Z"/>
      <path class="cls-1" d="M72.43,16.32h-7.81c-.94.03-2.2-.18-2.2-1.52V.23s3.19-.72,3.19,1.4v10.82h5.66c1.74,0,1.15,3.87,1.15,3.87h0Z"/>
      <path class="cls-1" d="M28.49.24v14.57c0,2.12,3.13,1.4,3.13,1.4V6.8l6.16,8.21c.19.25.38.56.59.79.82.87,2.78.42,2.78.42V1.64c0-2.12-3.13-1.4-3.13-1.4v9.4L31.36.74s-.01-.01-.01-.02c-.62-.81-2.11-.65-2.86-.48h0Z"/>
      <path class="cls-1" d="M57.32.23v14.57c0,2.12,3.79,1.4,3.79,1.4V1.63c0-2.12-3.79-1.4-3.79-1.4h0Z"/>
      <path class="cls-1" d="M94.12,1.18c-.74-1.9-3.91-.9-3.91-.9l-5.74,14.6c-.74,2.06,3.51,1.37,3.51,1.37l1.17-3.19h5.54l.62,1.79c.83,2.23,4.55,1.4,4.55,1.4l-5.73-15.08ZM90.42,9.6l1.58-4.33,1.49,4.33h-3.08Z"/>
      <path class="cls-1" d="M83.29,16.32h-7.81c-.94.03-2.2-.18-2.2-1.52V.23s3.19-.72,3.19,1.4v10.82h5.66c1.74,0,1.15,3.87,1.15,3.87h0Z"/>
      <path class="cls-1" d="M101.22.24v14.57c0,2.12,3.13,1.4,3.13,1.4V6.8l6.16,8.21c.19.25.38.56.59.79.82.87,2.78.42,2.78.42V1.64c0-2.12-3.13-1.4-3.13-1.4v9.4l-6.65-8.9s-.01-.01-.01-.02c-.62-.81-2.11-.65-2.86-.48h0Z"/>
      <path class="cls-1" d="M125.17,1.18c-.74-1.9-3.91-.9-3.91-.9l-5.74,14.6c-.74,2.06,3.51,1.37,3.51,1.37l1.17-3.19h5.54l.62,1.79c.83,2.23,4.55,1.4,4.55,1.4l-5.73-15.08ZM121.46,9.6l1.58-4.33,1.49,4.33h-3.08Z"/>
    </g>
  </g>
</svg>