<?xml version="1.0" encoding="UTF-8"?>
<svg id="Layer_2" data-name="Layer 2" xmlns="http://www.w3.org/2000/svg" viewBox="0 0 224.14 25.28">
  <defs>
    <style>
      .cls-1 {
        fill: #191919;
      }
    </style>
  </defs>
  <g id="Layer_5" data-name="Layer 5">
    <g>
      <g>
        <path class="cls-1" d="M49.57,17.1c.34.69.89,1.09,1.59,1.25.04,1.01.5,1.88,1.43,2.37-.09,2.05.38,3.48,2.54,3.77-2.62.82-5.32.7-7.98-.03-5.17-1.44-8.6-5.4-8.88-11.01-1.03.84-2.1,1.44-3.38,1.88.27.37.61.64.97.89l1.25,1.77,4.38,6.68-9.98-.02-3.79-7.48-.09,7.48-8.51.02-.02-9.88c-1.43,1.51-3.14,2.52-5.2,2.66h-3.3c-.73-.02-1.41-.08-2.18.06l-.06,2.92.02,4.23H0S0,.79,0,.79c4.32.19,8.48-.31,12.64.16,2.67.36,4.6.93,6.4,3.2l.07-3.36,3.19.03,7.33-.02c1.71,0,3.33.27,4.91.81,2.63.85,4.27,2.88,4.86,5.76,2.44-4.64,6.46-6.72,11.53-6.9,5.31-.31,9.25,1.98,13.21,5.28l-5.59,2.63c-.47.22-.96.32-1.28.81-.01,1.27.76,2.57,1.97,3.04,1.02.39,2.05.07,3-.38.68-.33,1.4-.95,2.21-.92l1.58,1.29c.34.28.29.82.33,1.22l.98,10.73c-.44.8-1.69,1.03-2.33.51l-.8-6.68c-.04-.3-.22-.55-.45-.61s-.6.21-.57.55l.72,6.55c-.36.75-1.94,1.14-2.3.37-.53-1.19-.41-2.64-.53-3.91l-.31-3.33c-.03-.31-.27-.51-.53-.52-.28,0-.54.33-.5.69l.48,4.84c.05.51.14.93-.29,1.36s-1.96.59-2.17-.17l-.51-4.7c.8-.46,1.12-1.35,1.06-2.33-.06-.89-.46-1.59-1.21-2.1.52-1.53-.27-3.06-1.78-3.46.14-1.44-.49-2.23-1.83-2.82.15-1.1-.18-2.18-1.14-2.71-.81-.46-1.8-.3-2.55.2l-1.87,1.27c-.5.34-.98.73-1.19,1.32-.33.95-.15,1.96.43,2.8-.32,1.3-.3,2.61.25,3.82.46.9,1.09,1.65,2.12,1.96ZM12.38,9.42c.06-1-.5-1.75-1.5-1.94-.8-.16-1.65-.15-2.45-.14l-.05,4.05c1.97.18,3.88-.03,3.99-1.97ZM31.04,9.35c.01-.97-.45-1.68-1.36-1.87-.65-.13-1.32-.16-2.03-.13v4.05c.73,0,1.44-.05,2.1-.22.88-.23,1.28-.86,1.29-1.83Z"/>
        <path class="cls-1" d="M200.78,20.32l.35,1.01c.09-.26.03-.45.03-.64V.42s9.03-.05,9.03-.05l.13.02c3.89.02,8.74,1.15,11.25,4.28l.5.62c1.02,1.53,1.65,3.17,1.92,4.99.05.35.14.61.13,1l-.03,2.25v.14c-.3,3.95-1.93,6.8-5.28,9-1.33.87-4.2,1.54-6.01,1.54l-19.75.02-.82-2.95-6.51-.02-.62,2.63c-.07.12-.1.22-.11.34h-9.15s1.04-3.11,1.04-3.11c0,0,7.08-20.23,7.26-20.72h9.52s7.1,19.92,7.1,19.92ZM215.18,10.7c-.72-2.25-2.96-2.98-5.32-2.83v9.21c1.13.08,2.25-.07,3.3-.55,2.22-1.02,2.74-3.59,2.02-5.82ZM190.69,15.61l-1.76-7.4-1.65,7.4h3.41Z"/>
        <path class="cls-1" d="M166.22,24.18s-.1.03-.13.04h-5.77s-.12,0-.12,0h-5.39s-.1-.14-.1-.14l.02-20.52.03-2.89.05-.24h8.8c1.75,0,3.4.24,5.11.56.78.15,1.53.46,2.29.76,3.22,1.3,5.53,3.95,6.3,7.35,1.34,5.94-.54,11.82-6.37,14.2-1.11.46-2.24.62-3.44.83-.45.08-.86.16-1.28.05ZM168.42,9.97c-.92-1.66-3.03-2.28-4.98-2.07v9.18c1.22.08,2.37-.08,3.42-.62,2.39-1.21,2.74-4.36,1.56-6.49Z"/>
        <polygon class="cls-1" points="137.67 24.23 137.68 24.01 137.68 .39 153.69 .4 153.69 6.91 146.43 6.91 146.43 9.14 153.06 9.17 153.06 15.41 146.45 15.42 146.43 17.66 153.97 17.66 153.96 24.23 137.67 24.23"/>
        <polygon class="cls-1" points="136.67 9.99 136.68 24.23 128 24.23 128.01 .4 136.61 .39 136.67 9.99"/>
        <path class="cls-1" d="M53.49,16.3c-.59.41-1.28.66-1.91.37-.39-.18-.58-.58-.59-.95s.12-.89.5-1.13l2.79-1.82c.51-.33,1.34-.37,1.78.04.59.55.33,1.51-.3,1.94l-2.27,1.55Z"/>
        <path class="cls-1" d="M51.56,13.36c-.66.45-1.55.61-2.1.03-.5-.52-.25-1.44.35-1.84l2.62-1.74c.66-.44,1.47-.45,2.05.08.35.81-.08,1.56-.79,2.04l-2.13,1.44Z"/>
        <path class="cls-1" d="M50.27,10.06c-.62.4-1.23.4-1.68-.02-.41-.39-.64-1.19-.18-1.63.73-.71,1.56-1.25,2.46-1.69.61-.3,1.37.05,1.62.57.32.65.03,1.32-.59,1.72l-1.63,1.05Z"/>
        <path class="cls-1" d="M54.51,19.48c-.54.34-1.31-.21-1.48-.67-.24-.64-.02-1.24.54-1.61l1.88-1.23c.58-.38,1.33-.18,1.68.33.38.55.28,1.34-.34,1.74l-2.28,1.44Z"/>
        <path class="cls-1" d="M56.4,23.14c-.6.58-1.89.4-2.34-.28s-.17-1.5-.21-2.17c1.28.1,1.81-.75,2.5-.96l.23,2.23c.03.31.14.88-.19,1.19Z"/>
        <path class="cls-1" d="M154.81,24.21c.02.09.03.19-.09.26-.09-.19-.01-.3-.01-.4l.1.14Z"/>
        <path class="cls-1" d="M185.01,24.23c0-.11.03-.22.11-.34-.02.1.06.34-.11.34Z"/>
        <path class="cls-1" d="M224.1,13.68v-.14c.05.04.04.1,0,.14Z"/>
        <path class="cls-1" d="M154.76.66c0-.07-.03-.09.05-.24l-.05.24Z"/>
        <path class="cls-1" d="M210.31.4l-.13-.02c0-.14.16-.11.13.02Z"/>
        <path class="cls-1" d="M137.67,24.23c-.14-.02-.16-.14,0-.21v.21Z"/>
        <path class="cls-1" d="M160.2,24.21h.12c-.01.08-.12.11-.12,0Z"/>
        <path class="cls-1" d="M166.09,24.22s.09,0,.13-.04c0,.13-.11.11-.13.04Z"/>
        <path class="cls-1" d="M121.69,24.66s.1-.06.15-.06c-.03.05-.09.06-.15.06Z"/>
      </g>
      <path class="cls-1" d="M127.22,14.79c-1,.81-1.99,1.52-3.22,1.91-2,.63-4.22.17-5.55-1.51-1.16-1.46-1.32-3.58-.41-5.2,1.13-2,3.46-2.75,5.61-2.13,1.36.37,2.36,1.16,3.56,2.18l-.25-9.06c-2.26-.65-4.47-1.14-6.78-.94-1.12.1-2.32.31-3.35.69-3.97,1.48-6.7,4.58-7.82,8.75-1.65-6.69-7.92-10.05-14.59-9.35-.26-.13-.46.01-.68.07l-2.6.62-2.65,1.22c-.41.19-.7.62-1.08.88-.96.67-1.66,1.5-2.33,2.44l-.61.85c-.22.31-.2.38-.32.67-.66,1.55-1.03,3.1-1.23,4.78-.08.66-1.51-1.33-3.76-1.92l-4.26-1.11c-.42-.11-.81-.38-.9-.7-.51-1.97,3.58-1.97,5.66-.33l1.19.58,2.29-6.08c-4.57-2.9-11.48-3-15.38.86-.23.23-.44.32-.62.64-.44.77-1.11,1.39-1.29,2.22.74.05,1.19.59,1.67,1.03,1.54,1.44,3.12,2.77,4.5,4.38.5.58.35,2.14.73,3.16l4.23,2.64c.32.2.22.73.11.95-.18.33-.53.37-.91.24-1.49-.51-2.54-1.57-3.44-2.8-.54-.73-.95-1.38-.91-2.36.02-.52-.25-1.01-.61-1.38l-3.44-3.44-.91-.86c-.72-.67-1.76-1.03-2.7-.59l-5.81,2.68c.3.63.37,1.25.78,1.66.48.48,1.52.53,2.12.25l3.07-1.45c.37-.17.66-.08.95.18l1.09.99c.93.56,1.03,1.32,1.1,2.34l.58,7.59c.02.24-.12.61.04.79.89,1.05,2.03,1.74,3.28,2.35,1.36.67,2.96.59,4.45.28,1.23-.26,2.36-.53,3.47-1.07,2.19-1.06,3.78-2.85,4.47-5.19.03-.12.26-.28.4-.35.81,1.38,1.63,2.58,2.82,3.65,2.43,2.17,5.63,3.2,8.91,3.11,1.04-.03,2.03.03,2.99-.17,1.93-.42,3.7-.97,5.34-2.08,2.42-1.63,3.94-4.09,4.76-6.84v.03s0,0,0,0c0,0,.24,1.16,1,2.65l.08.22c.35.73.83,1.42,1.39,2.06,1.58,1.95,4.09,3.8,8.01,4.16.39.04.78.06,1.17.06,1.01.01,2.11-.07,3.3-.27l.42-.04.51-.14c.68-.14,1.38-.32,2.12-.54,0-.01,0-.02,0-.03h0s.23-8.88.23-8.88ZM100.01,14.94c-.69,1.35-2.1,1.96-3.32,2.11-1.5.18-2.9-.31-3.88-1.39-1.04-1.16-1.29-2.7-1.01-4.21.37-2,1.92-3.44,3.99-3.54,1.23-.06,2.6.21,3.47,1.18,1.37,1.54,1.72,3.97.75,5.85Z"/>
    </g>
  </g>
</svg>