<?xml version="1.0" encoding="UTF-8"?>
<svg id="Layer_2" data-name="Layer 2" xmlns="http://www.w3.org/2000/svg" viewBox="0 0 60 82.06">
  <defs>
    <style>
      .cls-1 {
        fill: #fff;
      }

      .cls-2 {
        fill: #191919;
      }
    </style>
  </defs>
  <g id="Layer_5" data-name="Layer 5">
    <g>
      <polygon class="cls-2" points="34.3 .87 34.3 1.38 34.82 1.38 34.82 2.59 34.3 2.59 34.3 3.08 33.06 3.08 33.06 2.59 32.58 2.59 32.58 1.38 33.06 1.38 33.06 .87 34.3 .87 34.3 .87"/>
      <polygon class="cls-2" points="27.04 .87 27.04 1.38 27.53 1.38 27.53 2.59 27.04 2.59 27.04 3.08 25.82 3.08 25.82 2.59 25.31 2.59 25.31 1.38 25.82 1.38 25.82 .87 27.04 .87 27.04 .87"/>
      <polygon class="cls-1" points="33.96 1.15 33.96 1.7 34.51 1.7 34.51 2.27 33.96 2.27 33.96 2.78 33.38 2.78 33.38 2.27 32.89 2.27 32.89 1.7 33.38 1.7 33.38 1.15 33.96 1.15 33.96 1.15"/>
      <polygon class="cls-1" points="26.69 1.2 26.69 1.7 27.22 1.7 27.22 2.27 26.69 2.27 26.69 2.78 26.08 2.78 26.08 2.27 25.63 2.27 25.63 1.7 26.08 1.7 26.08 1.2 26.69 1.2 26.69 1.2"/>
      <path class="cls-2" d="M42.69,23.91c-.38.24-.75.62-.85,1.04v7.69c.11.45.15.95.51,1.31-2.98-1.04-6.07-2.25-9.07-3.45-.53-.94.84-1.44,1.13-2.22.45-.49.29-1.36,1.06-1.62.36-.36.45-.89.35-1.4-.13-.31-.42-.6-.66-.82-.16-1.78-1.58-3.51-3.24-4.15-1.64-.73-3.67-.27-5.02.78-1.15.91-1.73,2.13-2,3.44-.33.16-.62.51-.71.84-.13.46.04.87.27,1.22,1.09.62.98,2.04,2.09,2.8.25.29.45.64.31,1.04l-.44.27-8.78,3.4-.16.04c.58-.47.49-1.24.6-1.91v-7.2c-.29-1.04-1.4-1.22-2.22-1.53-2.58-.85-5.18-1.64-7.73-2.53,10.26-2.51,22.08-2.55,32.95-1.84,3.71.31,7.35.84,10.82,1.74l-9.2,3.05h0ZM30.13,82.06c.42-.31,3.29-2.33,5.14-2.43l8.76-.04c1.13-.09,2.14-.45,3.11-.96,1.87-1.16,2.92-3.14,2.94-5.33v-20.45l4.19,2.65v-4.93l4.69-1.66-6.8-4.45s2.44-1.67,3.05-2.8l.04-7.15c.09-1.09-.07-2.11-.97-2.75-1.31-.69-2.65-1.33-3.96-2.05,2.27-.84,4.62-1.51,6.93-2.22,1.04-.38,2.27-1.04,2.74-2.11v-7.81c-.56-2.11-2.89-3.27-4.65-3.98-7.24-2.36-15.33-2.75-23.42-2.91v-1.66h-.78v-2.38h2.4v.5h2.07v-3.27h-2.07v.5h-2.4V1.99h.67V0s-2.31.04-3.56,0v1.99h.69v2.38h-2.48v-.5h-2.01v3.27h2.01v-.5h2.48v2.38h-.69v1.66c-8.09.2-16.16.65-23.4,2.96-1.78.75-4.12,1.7-4.85,3.81v7.84c.18.82.96,1.47,1.7,1.75,2.64.98,5.36,1.69,7.95,2.75-1.67,1.25-4.66,1.33-4.96,3.93v8.02c.58,1.27,2.96,2.84,2.96,2.84l-6.73,4.45,4.74,1.75v4.84l4.05-2.93v19.69c-.04,1.22.18,2.38.51,3.45.84,2.31,3.25,3.71,5.6,3.87,3.09,0,6.16-.2,9.29,0,1.74.25,3.55,1.18,4.93,2.34h.1Z"/>
      <polygon class="cls-1" points="31.45 .33 31.45 1.63 30.74 1.63 30.74 4.73 33.98 4.73 33.98 4.22 35.25 4.22 35.25 6.78 33.98 6.78 33.98 6.25 30.74 6.25 30.74 9.4 31.45 9.4 31.45 10.62 28.68 10.62 28.68 9.4 29.35 9.4 29.35 6.25 26.13 6.25 26.13 6.78 24.85 6.78 24.85 4.22 26.13 4.22 26.13 4.73 29.35 4.73 29.35 1.63 28.65 1.63 28.65 .33 31.45 .33 31.45 .33"/>
      <polygon class="cls-2" points="34.35 7.75 34.35 8.25 34.86 8.25 34.86 9.46 34.35 9.46 34.35 9.95 33.18 9.95 33.18 9.46 32.64 9.46 32.64 8.25 33.18 8.25 33.18 7.75 34.35 7.75 34.35 7.75"/>
      <polygon class="cls-2" points="27.03 7.75 27.03 8.26 27.53 8.26 27.53 9.44 27.03 9.44 27.03 9.97 25.81 9.97 25.81 9.44 25.3 9.44 25.3 8.26 25.81 8.26 25.81 7.75 27.03 7.75 27.03 7.75"/>
      <polygon class="cls-1" points="26.69 8.06 26.69 8.55 27.15 8.55 27.15 9.18 26.69 9.18 26.69 9.64 26.11 9.64 26.11 9.18 25.6 9.18 25.6 8.55 26.11 8.55 26.11 8.06 26.69 8.06 26.69 8.06"/>
      <polygon class="cls-1" points="34.01 8.57 34.55 8.57 34.55 9.11 34.01 9.11 34.01 9.62 33.46 9.62 33.46 9.11 32.96 9.11 32.96 8.57 33.46 8.57 33.46 8.06 34.01 8.06 34.01 8.57 34.01 8.57"/>
      <path class="cls-1" d="M54.37,14.02c1.69.62,3.53,1.27,4.66,2.89l-.56.13.62.74-.66.13.6.87-.65.18.71.82-.75.13.75.93h-.78l.73,1.09-.87-.05s.31.58.44.87c-3.24-2.25-7.16-2.89-11.04-3.65-12.55-1.75-26.97-1.76-39.13.91-2.38.67-4.76,1.35-6.82,2.8.18-.4.71-1.15.71-1.15l-.96.09.82-1.13-.82-.05.75-.87-.8-.16.75-.78-.65-.22.65-.8-.69-.16.6-.75s-.42-.06-.6-.13c1.69-1.91,4.09-2.45,6.36-3.15,10.76-2.33,22.47-2.51,34-1.71,4.33.45,8.66.91,12.66,2.18h0Z"/>
      <path class="cls-1" d="M29.44,21.88c-1.24.2-2.36.66-3.31,1.53.44-1.29,1.87-2.42,3.27-2.62l.04,1.09h0Z"/>
      <path class="cls-1" d="M34.07,23.4v.09c-.98-.91-2.11-1.44-3.4-1.56-.15-.33-.11-.78-.05-1.15,1.49.05,2.93,1.26,3.46,2.62h0Z"/>
      <path class="cls-2" d="M57.67,23.06c.73.49,1.42,1.22,1.56,2.05-.56,1.15-1.84,1.51-2.91,1.87l-6.95,2.18c-1.89-.8-3.69-1.8-5.55-2.71-.47-.38-1.25-.8-1.16-1.47.58-.75,1.56-.71,2.35-1.06l8.2-2.71c1.6.36,3.07.96,4.45,1.84h0Z"/>
      <path class="cls-2" d="M16.83,24.64c.22.2.67.44.44.82-1.84,1.96-4.42,2.49-6.6,3.8l-8.98-3.06c-.35-.16-.73-.53-.87-.87.35-1.87,2.4-2.58,3.84-3.31l1.96-.71,10.22,3.33h0Z"/>
      <path class="cls-1" d="M34.42,24.59c.09.6.04,1.26-.13,1.8-2.35,1.46-6.11,1.55-8.47.07-.16-.6-.25-1.36-.09-2,2.36-1.58,6.16-1.55,8.56-.04l.13.16h0Z"/>
      <polygon class="cls-2" points="30.02 26.86 29.4 25.42 30.02 23.89 30.62 25.42 30.02 26.86 30.02 26.86"/>
      <polygon class="cls-2" points="28.31 26.73 27.74 25.37 28.31 24.06 28.87 25.37 28.31 26.73 28.31 26.73"/>
      <path class="cls-2" d="M32.27,25.37c-.18.44-.33.89-.56,1.31l-.56-1.31.56-1.31.56,1.31h0Z"/>
      <polygon class="cls-2" points="26.78 26.46 26.36 25.38 26.78 24.33 27.22 25.33 26.78 26.46 26.78 26.46"/>
      <polygon class="cls-2" points="33.67 25.33 33.24 26.42 32.84 25.29 33.24 24.33 33.67 25.33 33.67 25.33"/>
      <polygon class="cls-1" points="15.65 28.48 17 28.08 15.62 29.48 17.05 29.22 15.62 30.48 17.05 30.31 15.56 31.57 17.05 31.44 15.53 32.79 16.93 32.79 15.53 33.8 16.49 33.8 15.96 34.21 9.72 34.21 9.72 37.24 6.14 39.08 7.11 37.99 5.65 38.24 7.05 36.93 5.62 37.15 7.05 35.71 5.62 35.93 7.02 34.71 5.65 34.84 6.96 33.59 5.62 33.75 6.92 32.57 5.96 32.62 6.71 32.13 16.62 27.17 15.65 28.48 15.65 28.48"/>
      <polygon class="cls-1" points="53.75 32.28 54 32.5 53 32.5 54.31 33.62 52.91 33.49 54.27 34.71 52.91 34.59 54.31 35.8 52.87 35.62 54.31 36.99 52.87 36.81 54.22 38.08 52.78 37.86 53.75 38.9 50.07 37.11 50.07 34.1 43.93 34.1 43.31 33.62 44.36 33.66 43.02 32.62 44.4 32.62 42.89 31.35 44.36 31.44 42.89 30.17 44.36 30.35 42.93 29.08 44.33 29.29 42.93 27.95 44.24 28.35 43.46 27.17 53.75 32.28 53.75 32.28"/>
      <path class="cls-1" d="M32.45,30.47c-1.31.9-3.48.87-4.84,0,.23-1.5-1.47-1.87-1.36-2.83.95.8,2.07,1.13,3.27,1.27.14.13.09.46.05.66-.35-.02-.66-.05-.93-.22l-.44.6c.96.62,2.44.53,3.45.09.07-.25-.22-.47-.31-.69-.29.16-.62.18-.96.22v-.66c1.35-.13,2.53-.6,3.55-1.53-.24,1.2-2.05,1.65-1.49,3.09h0Z"/>
      <path class="cls-1" d="M36.82,34.28l-3.06-2.96h.25l8.29,3.18c-.09.49-.49.98-.95,1.4-1.36,1.38-3.2,1.6-5.02,1.82-2.33.56-3.55,3.78-6.2,3.49-2.67.45-3.91-2.56-6.07-3.35-2.49-.22-5.16-.82-6.36-3.27l8.55-3.33-3.4,3.33.04.04,5.2-3.4-1.71,5.4.05.05,2.84-5.02.65,7.24.75-7.29,2.87,4.67-1.56-5.14,4.84,3.15h0Z"/>
      <path class="cls-1" d="M49.32,34.93v37.18c.04,2.15-.25,4.18-2.03,5.53-3.47,2.33-8.44.65-12.62,1.27-1.75.25-3.19,1.02-4.57,2.15-2.58-2.36-6.3-2.18-9.86-2.18-3.38.18-7.49.51-9.16-2.98-.47-1.02-.51-2.24-.55-3.44v-37.53h6.26c1.29,2.62,4,3.84,6.76,3.89,1.42.31,2.34,1.88,3.55,2.72h-10v27.46c.09,1.47,1,2.87,2.36,3.55,2.24,1.04,5.11.18,7.64.56,1.15.27,2.1.82,3.01,1.66,2.33-3.13,7.03-1.04,10.17-2.15,1.13-.36,2.16-1.51,2.53-2.62l.22-1.35v-27.12h-10.09c1.2-.8,2.13-2.36,3.49-2.72,2.76-.18,5.6-1.15,6.86-3.89,2.15,0,6.05,0,6.05,0h0Z"/>
      <path class="cls-2" d="M54.49,40.86c.24,1.15-1.25,1.6-1.93,2.31l-2.43,1.96v-6.84c1.46.84,3.19,1.2,4.35,2.57h0Z"/>
      <path class="cls-2" d="M9.7,45.13c-1.42-1.06-2.81-2.11-4.17-3.31-.09-.27-.18-.6,0-.87,1.16-1.26,2.77-1.67,4.17-2.44v6.62h0Z"/>
      <path class="cls-1" d="M42.23,68.57c-.09,1.07-.35,2.06-1.26,2.8-2.42,1.75-6.04.24-8.82,1.13-.73.25-1.43.69-2.05,1.18-2.33-2.11-5.9-1.22-8.95-1.44-1.31-.14-2.69-1.09-3.09-2.4l-.18-1.09v-26.41h24.36v26.23h0Z"/>
      <polygon class="cls-2" points="53.55 50.02 53.55 54.08 50.14 51.86 50.14 46.19 51.53 45.01 57.27 48.62 53.55 50.02 53.55 50.02"/>
      <polygon class="cls-2" points="9.72 51.99 6.41 54.22 6.41 50.15 2.6 48.81 8.27 45.1 9.72 46.19 9.72 51.99 9.72 51.99"/>
      <path class="cls-2" d="M37.91,69.53h-2c.35-.24.71-.42,1.04-.69.38-.94-.58-1-1.04-1.36l.22-1.31c.38-.29.82-.49,1.25-.65l.53,4.02h0Z"/>
      <path class="cls-2" d="M24.29,67.61c-.36.2-.74.33-1.09.58-.4.96.62,1.09,1.09,1.53l-2.05.04.53-4.18,1.27.65.25,1.38h0Z"/>
      <path class="cls-2" d="M14.13,64.36c-.04-.19-.12-.35-.23-.46-.11-.11-.24-.17-.4-.17-.18,0-.33.09-.46.26-.12.17-.18.46-.18.86v1.21h.06c0-.13.01-.22.03-.26.02-.05.05-.08.08-.1.03-.02.11-.03.25-.03h1.55c.13,0,.21.01.25.03.03.02.06.05.08.1.02.05.03.14.03.27h.06v-1.43h-.06c0,.13,0,.22-.03.26-.02.05-.05.08-.08.1-.03.02-.12.03-.25.03h-.67c0-.31-.01-.54-.04-.67h0ZM13.01,64.94c0-.18.04-.31.12-.4.08-.09.21-.13.39-.13s.31.04.4.13c.09.09.13.22.13.39,0,.02,0,.06,0,.1h-1.03v-.08h0Z"/>
      <path class="cls-2" d="M15.2,61.96h.06v1.45h-.06v-.09c0-.08-.01-.15-.04-.2-.02-.03-.04-.06-.08-.08-.03-.02-.1-.02-.23-.02h-1.57c-.12,0-.2,0-.23.02-.03.02-.06.05-.08.09-.02.05-.04.11-.04.19v.09h-.06v-1.45h.06v.09c0,.08.01.14.04.19.02.04.04.06.09.08.03.01.1.02.22.02h1.57c.12,0,.2,0,.23-.02.03-.02.06-.05.08-.09.02-.05.03-.11.03-.19v-.09h0Z"/>
      <path class="cls-2" d="M13.01,60.6h.96v-.05c0-.18-.05-.3-.14-.38-.1-.08-.24-.13-.42-.15v-.07h1.26v.07c-.14.02-.25.05-.34.1-.09.05-.15.11-.18.18-.03.07-.04.17-.04.3h.67c.13,0,.21,0,.24-.02.03-.01.05-.04.07-.07.02-.04.03-.09.03-.17v-.16c0-.26-.05-.47-.15-.62-.1-.16-.26-.27-.47-.33v-.07l.76.12v2.39h-.06v-.09c0-.08-.01-.15-.04-.2-.02-.03-.04-.06-.08-.08-.03-.01-.1-.02-.23-.02h-1.57c-.11,0-.18,0-.2.01-.04.01-.07.04-.1.08-.03.05-.05.12-.05.21v.09h-.06v-2.32h.71v.07c-.17.04-.3.1-.37.17-.08.07-.13.17-.17.31-.02.08-.03.22-.03.43v.28h0Z"/>
      <path class="cls-2" d="M12.87,57.78l1.46-1.36h-1.01c-.14,0-.24.02-.29.07-.07.06-.1.18-.1.33h-.06v-.92h.06c.01.12.03.2.05.24.02.04.05.07.1.09.05.02.13.03.24.03h1.99v.07l-1.98,1.87h1.52c.14,0,.23-.04.28-.11.05-.07.07-.16.07-.25v-.07h.06v.99h-.06c0-.15-.02-.26-.08-.32-.05-.06-.14-.09-.27-.09h-1.69l-.07.06c-.07.06-.11.11-.13.15-.02.05-.03.11-.04.19h-.06v-.99h0Z"/>
      <path class="cls-2" d="M12.82,53.72l.8-.02v.08c-.2.04-.36.14-.48.29-.12.15-.18.32-.18.5,0,.14.03.25.1.33.06.08.14.12.22.12.05,0,.1-.01.14-.04.05-.04.11-.1.16-.19.04-.06.11-.21.2-.44.14-.32.27-.54.39-.66.12-.11.26-.17.42-.17.2,0,.37.09.51.27.14.18.22.41.22.69,0,.09,0,.17-.02.25-.01.08-.04.18-.08.29-.02.06-.04.12-.04.16,0,.04.01.07.04.11.02.04.06.07.11.1v.07h-.9v-.07c.25-.06.44-.18.58-.35.13-.17.2-.36.2-.55,0-.15-.04-.27-.11-.36-.07-.09-.15-.14-.25-.14-.06,0-.11.02-.16.05-.05.03-.1.09-.15.16-.05.07-.11.2-.18.37-.11.25-.2.43-.27.54-.07.11-.16.2-.25.26-.09.06-.19.09-.31.09-.19,0-.35-.08-.49-.24-.13-.16-.2-.37-.2-.61,0-.09,0-.18.03-.26.01-.07.04-.14.08-.23.04-.09.06-.16.06-.19,0-.03,0-.06-.03-.08-.02-.02-.07-.04-.14-.06v-.06h0Z"/>
      <path class="cls-2" d="M14.88,51.35c.08-.04.12-.06.13-.06.02,0,.04-.01.07-.01.04,0,.06.02.08.05.02.04.04.12.04.23v.05h.06v-1.33h-.06c0,.08-.03.15-.06.2-.05.06-.17.14-.35.23l-1.97,1v.04l1.91.99c.18.09.3.17.36.24.06.06.09.14.1.24h.06v-.92h-.06c0,.15-.02.23-.04.27-.03.06-.08.09-.15.09-.05,0-.11-.02-.19-.06l-.23-.12v-.97l.3-.15h0ZM14.45,52.4l-.83-.43.83-.41v.84h0Z"/>
      <path class="cls-2" d="M12.87,46.34h.06c.01.09.04.16.07.21.05.07.18.18.4.32l.87.6h.58c.12,0,.2,0,.23-.02.03-.02.06-.05.08-.09.02-.04.03-.1.03-.18v-.15h.06v1.56h-.06v-.15c0-.08-.01-.15-.04-.19-.02-.04-.04-.06-.08-.08-.03-.02-.1-.02-.23-.02h-.48l-1.03.65c-.2.13-.32.22-.36.27-.04.05-.05.12-.06.21h-.06v-1.33h.06v.06c0,.08.01.14.03.17.02.03.04.05.06.05.04,0,.15-.05.32-.16l.79-.5-.72-.5c-.18-.12-.3-.19-.35-.19-.03,0-.06.02-.08.05-.03.05-.05.13-.05.25h-.06v-.84h0Z"/>
      <path class="cls-2" d="M47.51,49.08h-.65v-.07c.15-.04.26-.09.32-.15.07-.05.12-.13.16-.22.02-.05.03-.14.03-.27v-.21h-1.84c-.12,0-.2,0-.23.02-.03.02-.06.05-.08.09-.02.04-.03.11-.03.19v.09h-.06v-1.45h.06v.09c0,.08.01.14.04.19.02.03.04.06.09.08.03.02.1.02.22.02h1.84v-.21c0-.19-.03-.32-.1-.41-.09-.12-.23-.19-.41-.23v-.07h.65v2.49h0Z"/>
      <path class="cls-2" d="M46.21,50.65l-1.09.89v.87h.07c0-.07.02-.14.06-.19.03-.04.09-.1.19-.19l.82-.66c.04.17.09.3.16.39.11.15.26.22.44.22.14,0,.27-.05.38-.15.11-.1.18-.22.22-.38.04-.16.06-.4.06-.74v-1.29h-.06c0,.13,0,.22-.03.26-.02.05-.05.08-.08.1-.03.02-.12.03-.24.03h-1.56c-.13,0-.21,0-.24-.03-.03-.02-.06-.05-.08-.1-.02-.05-.03-.13-.03-.26h-.06v1.44h.06c0-.13.01-.22.03-.27.02-.05.05-.08.08-.1.03-.02.11-.03.24-.03h.68v.18h0ZM47.38,50.68c0,.22-.04.38-.13.47-.09.1-.22.15-.4.15-.12,0-.23-.03-.3-.08-.08-.05-.13-.13-.16-.22-.03-.09-.04-.24-.04-.42v-.12h1.04v.22h0Z"/>
      <path class="cls-2" d="M45.5,54.38c-.08.04-.12.06-.13.06-.02,0-.04.01-.07.01-.03,0-.06-.01-.08-.04-.03-.04-.04-.12-.04-.23v-.06h-.06v1.34h.06c0-.08.03-.15.06-.2.05-.06.16-.14.35-.23l1.97-1v-.04l-1.91-.99c-.18-.09-.3-.17-.36-.24-.06-.06-.09-.15-.11-.25h-.06v.92h.06c0-.14.02-.24.04-.27.03-.06.08-.09.15-.09.05,0,.11.02.19.06l.23.12v.98l-.3.15h0ZM45.93,53.33l.83.43-.83.41v-.84h0Z"/>
      <path class="cls-2" d="M46.25,57.22c-.03.11-.1.19-.18.25-.09.06-.19.09-.3.09-.1,0-.18-.02-.26-.07-.08-.05-.14-.12-.18-.21-.04-.09-.06-.19-.06-.3,0-.07.02-.13.05-.17.03-.04.08-.06.14-.06h.85c0,.21-.02.37-.05.47h0ZM46.6,58.01c.09.1.2.15.31.15s.21-.04.31-.11c.1-.08.17-.18.22-.31.05-.13.07-.36.07-.68v-1.33h-.06c0,.13,0,.22-.03.27-.02.05-.05.08-.08.1-.03.02-.11.03-.25.03h-1.55c-.13,0-.21-.01-.25-.03-.03-.02-.06-.05-.08-.1-.02-.05-.03-.13-.03-.27h-.06v1.41c0,.39.07.69.21.9.12.17.27.25.44.25s.31-.08.42-.23c.08-.11.14-.29.19-.55.05.24.12.42.21.51h0ZM47.38,56.75c0,.2-.01.34-.05.44-.04.09-.09.16-.15.21-.07.05-.16.07-.26.07s-.19-.03-.26-.07c-.07-.05-.12-.12-.16-.21-.04-.09-.06-.24-.06-.43h.94Z"/>
      <path class="cls-2" d="M45.5,60.43c-.08.04-.12.06-.13.06-.02,0-.04.01-.07.01-.03,0-.06-.02-.08-.05-.03-.04-.04-.12-.04-.23v-.06h-.06v1.33h.06c0-.08.03-.15.06-.19.05-.06.16-.14.35-.24l1.97-1v-.04l-1.91-.99c-.18-.09-.3-.17-.36-.24-.06-.06-.09-.14-.11-.24h-.06v.92h.06c0-.15.02-.23.04-.27.03-.06.08-.09.15-.09.05,0,.11.02.19.06l.23.12v.97l-.3.15h0ZM45.93,59.38l.83.43-.83.42v-.84h0Z"/>
      <path class="cls-2" d="M47.45,62.28h.06v1.48h-.06v-.09c0-.08-.01-.15-.04-.2-.02-.03-.05-.06-.09-.08-.03-.02-.1-.02-.22-.02h-1.17c-.23,0-.39-.03-.5-.08-.1-.05-.19-.15-.26-.28-.07-.14-.1-.3-.1-.49,0-.23.05-.42.16-.57.11-.14.22-.22.35-.22.08,0,.15.03.2.09.05.06.08.13.08.21s-.02.15-.07.21c-.04.06-.1.09-.17.09-.03,0-.06,0-.08-.01-.01,0-.04-.03-.09-.06-.05-.04-.08-.06-.1-.06-.03,0-.05.02-.08.05-.03.05-.05.12-.05.21,0,.06.01.11.04.15.02.04.06.06.12.08.05.01.21.02.45.02h1.28c.12,0,.2,0,.23-.02.03-.02.06-.05.08-.09.02-.05.03-.11.03-.19v-.12h0Z"/>
      <path class="cls-2" d="M45.5,65.79c-.08.04-.12.06-.13.06-.02,0-.04.01-.07.01-.03,0-.06-.01-.08-.05-.03-.04-.04-.12-.04-.23v-.05h-.06v1.33h.06c0-.08.03-.15.06-.2.05-.06.16-.14.35-.23l1.97-1v-.04l-1.91-.99c-.18-.09-.3-.17-.36-.24-.06-.06-.09-.14-.11-.25h-.06v.92h.06c0-.14.02-.23.04-.27.03-.06.08-.09.15-.09.05,0,.11.02.19.06l.23.12v.97l-.3.15h0ZM45.93,64.73l.83.43-.83.42v-.84h0Z"/>
      <path class="cls-2" d="M2.16,16.34l1.07-.38.04.11-.05.02c-.08.03-.13.06-.15.11-.02.04-.02.1-.02.16,0,.06.05.21.13.44l.71,1.98c.13.36.23.6.3.7.07.11.15.19.24.24.09.05.19.06.29.03.11-.04.19-.12.23-.25.04-.13.06-.28.03-.47-.02-.19-.11-.49-.26-.92l-.59-1.65c-.06-.18-.12-.31-.17-.38-.05-.07-.09-.12-.13-.13-.06-.03-.13-.03-.22,0l-.04-.11.72-.26.04.11h-.04c-.06.04-.1.07-.12.14-.02.06-.03.14-.01.24,0,.07.04.19.1.35l.55,1.53c.17.47.28.82.32,1.04.04.22.03.44-.03.67-.06.22-.2.37-.41.45-.18.06-.33.07-.46,0-.18-.08-.33-.21-.46-.39-.13-.18-.25-.44-.37-.77l-.71-1.98c-.08-.23-.14-.37-.17-.43-.03-.05-.07-.09-.12-.11-.04-.02-.11-.02-.2.02l-.04-.11h0Z"/>
      <path class="cls-2" d="M5.32,15.29l1.79,2.24-.52-1.77c-.07-.25-.14-.41-.2-.48-.08-.1-.18-.14-.3-.1l-.03-.11.69-.21.03.11c-.08.05-.13.09-.15.14-.02.04-.03.11-.02.19,0,.08.04.22.1.42l1.01,3.42-.05.02-2.44-3,.77,2.61c.07.24.15.39.22.45.08.07.16.09.23.07l.05-.02.03.11-.75.22-.03-.11c.12-.04.18-.11.2-.21.02-.1,0-.27-.07-.48l-.86-2.9-.08-.1c-.08-.1-.14-.16-.18-.18-.04-.02-.1-.03-.17-.01l-.03-.11.75-.22h0Z"/>
      <path class="cls-2" d="M9.14,18.55l.03.11-1.11.28-.03-.11.07-.02c.06-.02.1-.05.13-.1.02-.04.03-.09.03-.16,0-.05-.03-.18-.08-.39l-.7-2.73c-.05-.21-.09-.34-.12-.39-.02-.05-.06-.09-.11-.12-.04-.03-.1-.04-.16-.02l-.07.02-.03-.11,1.11-.28.03.11-.07.02c-.06.02-.11.05-.13.1-.02.04-.03.09-.03.16,0,.05.03.18.08.39l.7,2.73c.06.21.09.34.12.39.03.05.06.09.11.12.05.03.1.04.16.02l.07-.02h0Z"/>
      <path class="cls-2" d="M10.59,13.95l.03.11c-.07.04-.12.14-.15.29-.02.11-.03.37-.04.77l-.04,3.36h-.05s-1.47-3.15-1.47-3.15c-.18-.38-.29-.6-.33-.67-.05-.06-.11-.1-.2-.1l-.03-.11,1.03-.23.03.11h-.04c-.09.03-.15.07-.17.12-.02.04-.02.08,0,.14,0,.04.02.08.04.13.02.05.08.18.18.39l.92,1.98v-1.95c.02-.24.01-.39,0-.47,0-.08-.01-.14-.03-.2-.01-.06-.03-.11-.06-.16-.03-.04-.06-.07-.1-.09-.05-.03-.12-.03-.19-.01l-.02-.11.7-.16h0Z"/>
      <path class="cls-2" d="M11.67,14.01l.31,1.72h.04c.14-.03.22-.13.25-.31.03-.18.03-.43-.02-.77h.06s.4,2.2.4,2.2h-.06c-.06-.23-.12-.42-.19-.57-.07-.15-.14-.24-.2-.28-.06-.04-.15-.05-.25-.04l.22,1.19c.04.23.07.37.09.42.02.05.05.09.08.12.03.03.08.04.14.03l.13-.02c.2-.04.35-.16.43-.36.09-.2.13-.5.11-.88h.06s.15,1.35.15,1.35l-1.87.34-.02-.12h.08c.06-.02.11-.05.14-.11.02-.03.04-.09.04-.16,0-.05-.02-.18-.06-.4l-.5-2.78c-.03-.19-.06-.31-.07-.35-.02-.07-.05-.12-.09-.16-.05-.05-.11-.07-.18-.06h-.07s-.02-.1-.02-.1l1.81-.33.23,1.25h-.06c-.08-.29-.17-.5-.25-.62-.08-.12-.18-.21-.29-.25-.07-.03-.18-.02-.35,0l-.22.04h0Z"/>
      <path class="cls-2" d="M14.4,15.67l.98,1.83.68-.1-.02-.12c-.06,0-.11-.03-.17-.09-.04-.04-.1-.15-.2-.32l-.73-1.36c.12-.08.21-.2.27-.34.08-.22.11-.49.06-.8-.04-.26-.11-.47-.21-.65-.1-.18-.22-.3-.35-.35-.13-.05-.33-.06-.59-.02l-1.01.15.02.12c.1-.01.17,0,.21.02.04.03.07.07.1.13.02.06.05.2.08.43l.4,2.75c.03.23.05.37.04.43,0,.06-.02.11-.05.15-.03.04-.09.07-.19.08l.02.12,1.11-.16-.02-.12c-.1.01-.17,0-.21-.02-.04-.03-.07-.07-.1-.13-.02-.06-.05-.2-.08-.43l-.17-1.19.14-.02h0ZM14.12,13.59c.17-.03.31.03.41.18.1.14.17.38.22.7.03.22.04.41.01.55-.02.14-.07.25-.13.31-.06.06-.17.11-.32.13h-.09s-.27-1.85-.27-1.85l.17-.02h0Z"/>
      <path class="cls-2" d="M17.05,12.88l.18,1.42h-.07c-.07-.34-.18-.62-.33-.82-.15-.2-.29-.3-.43-.28-.11.01-.19.08-.24.2-.05.12-.07.26-.05.41.01.09.03.18.06.25.04.09.1.19.18.27.06.06.19.17.39.33.28.22.48.43.6.63.11.21.19.45.22.73.04.36,0,.67-.11.94-.11.27-.28.42-.5.45-.07,0-.14,0-.2-.02-.06-.02-.15-.06-.25-.13-.06-.04-.1-.05-.13-.05-.03,0-.05.03-.08.07-.03.04-.04.11-.05.2h-.06s-.19-1.6-.19-1.6h.06c.1.44.23.77.39,1,.16.22.32.32.48.31.12-.01.21-.09.27-.22.06-.14.08-.29.06-.46-.01-.1-.04-.2-.08-.29-.04-.09-.09-.18-.16-.26-.07-.08-.18-.18-.33-.3-.22-.17-.38-.31-.49-.44-.1-.12-.19-.27-.25-.43-.07-.16-.11-.34-.14-.54-.04-.34,0-.64.09-.89.1-.25.25-.39.44-.41.07,0,.14,0,.21.03.06.02.12.06.2.12.08.06.14.09.17.08.03,0,.05-.02.06-.06.01-.03.02-.12.02-.25h.05Z"/>
      <path class="cls-2" d="M19.01,16.97v.12s-1.13.11-1.13.11v-.12s.06,0,.06,0c.06,0,.11-.03.14-.08.03-.03.04-.08.05-.16,0-.05,0-.18-.02-.4l-.27-2.81c-.02-.22-.04-.35-.06-.41-.02-.05-.05-.1-.09-.14-.04-.04-.09-.05-.15-.05h-.08s-.01-.11-.01-.11l1.15-.11v.12s-.06,0-.06,0c-.06,0-.12.03-.15.08-.02.03-.04.08-.05.16,0,.05,0,.18.02.4l.27,2.81c.02.22.04.35.06.41.02.05.05.1.09.14.04.04.09.05.15.05h.07Z"/>
      <path class="cls-2" d="M20.08,17.01c.14-.01.24-.03.31-.06.14-.07.26-.15.36-.26.1-.11.18-.25.24-.42.07-.17.11-.39.15-.64.03-.26.03-.54.01-.84-.03-.44-.11-.82-.24-1.16-.13-.34-.29-.58-.5-.74-.17-.13-.39-.18-.65-.16l-.98.07v.12s.08,0,.08,0c.06,0,.11.01.15.05.04.04.07.08.08.14.01.05.03.19.05.41l.21,2.81c.02.22.02.35.02.4-.01.07-.03.12-.06.16-.03.04-.08.07-.14.07h-.07s0,.12,0,.12l.98-.07h0ZM20.03,13.05c.12.08.22.25.31.5.11.32.19.76.23,1.31.05.68.02,1.19-.08,1.52-.08.25-.21.38-.39.39-.05,0-.1,0-.13-.04-.02-.02-.04-.05-.05-.09-.01-.04-.02-.15-.04-.32l-.25-3.34c.18-.02.31,0,.39.07h0Z"/>
      <path class="cls-2" d="M22.89,16.14c.04.14.06.22.06.23,0,.04.01.08.02.12,0,.06,0,.11-.03.15-.03.05-.09.07-.18.08h-.04s0,.12,0,.12l1.06-.05v-.12c-.07,0-.13-.04-.17-.11-.05-.08-.13-.29-.22-.62l-.96-3.47h-.03s-.61,3.46-.61,3.46c-.06.33-.11.55-.16.66-.04.11-.11.17-.18.2v.12s.74-.04.74-.04v-.12c-.12-.01-.19-.03-.22-.06-.05-.05-.08-.14-.09-.26,0-.09,0-.21.03-.35l.07-.42.77-.04.14.53h0ZM22.01,15.42l.26-1.49.4,1.46-.66.03h0Z"/>
      <path class="cls-2" d="M24.82,16.76c.14,0,.25-.02.31-.05.15-.06.27-.14.37-.24.1-.1.19-.24.26-.41.07-.17.13-.38.18-.63.04-.25.06-.53.05-.84-.01-.44-.07-.83-.18-1.17-.11-.34-.26-.6-.46-.76-.16-.13-.38-.2-.64-.19l-.98.03v.12s.08,0,.08,0c.06,0,.11.02.15.06.04.04.06.09.07.14.01.05.02.19.03.41l.07,2.82c0,.22,0,.35,0,.4-.02.07-.04.12-.07.16-.03.04-.08.06-.15.06h-.07s0,.12,0,.12l.98-.02h0ZM24.96,12.8c.11.09.21.26.28.52.1.33.15.76.17,1.31.02.68-.03,1.19-.15,1.52-.09.24-.22.37-.4.37-.05,0-.1-.01-.13-.04-.02-.02-.04-.05-.05-.09,0-.04-.02-.15-.02-.33l-.09-3.35c.18,0,.31.02.39.09h0Z"/>
      <path class="cls-2" d="M28.01,16.72c.14,0,.25-.01.31-.04.15-.06.27-.13.38-.23.1-.1.19-.23.27-.4.08-.17.14-.37.19-.63.05-.25.07-.53.07-.83,0-.44-.05-.83-.15-1.17-.1-.35-.25-.6-.45-.77-.16-.14-.37-.21-.63-.21h-.98v.12h.07c.06,0,.11.02.15.06.04.04.06.09.07.14.01.05.02.19.02.41v2.82c0,.22,0,.35-.01.4-.02.07-.04.12-.08.16-.03.04-.08.06-.15.06h-.07v.12h.98ZM28.25,12.77c.11.09.2.27.27.52.09.33.13.77.13,1.32,0,.68-.06,1.19-.19,1.51-.1.24-.23.36-.41.36-.06,0-.1-.02-.13-.05-.02-.02-.04-.05-.04-.09,0-.04-.01-.15-.01-.33v-3.35c.18,0,.31.03.39.09h0Z"/>
      <path class="cls-2" d="M30.28,12.68v1.75h.05c.14,0,.24-.08.3-.26.06-.17.1-.42.12-.76h.06s0,2.25,0,2.25h-.06c-.01-.24-.04-.45-.08-.6-.04-.16-.09-.26-.15-.31-.05-.05-.13-.08-.24-.08v1.21c0,.24,0,.38.02.43.01.05.03.1.06.13.03.03.07.05.13.05h.13c.2,0,.37-.09.49-.28.12-.19.21-.47.27-.85h.06l-.1,1.36h-1.9s0-.12,0-.12h.08c.06,0,.11-.02.15-.07.03-.03.05-.08.07-.15.01-.05.02-.18.02-.4v-2.82c0-.19,0-.31,0-.36-.01-.07-.03-.13-.06-.17-.04-.06-.1-.09-.17-.09h-.08v-.12h1.84s0,1.27,0,1.27h-.06c-.03-.31-.07-.53-.13-.67-.06-.13-.14-.23-.24-.3-.06-.04-.17-.06-.34-.06h-.23Z"/>
      <path class="cls-2" d="M34.77,12.37l-.03,1.51h-.06c-.06-.42-.17-.73-.31-.95-.14-.22-.3-.33-.47-.33-.17,0-.3.08-.41.26-.11.18-.19.43-.24.75-.05.32-.08.65-.09.99,0,.41.01.77.05,1.08.04.31.12.54.23.69.11.15.24.22.39.23.05,0,.11,0,.16-.03.06-.02.11-.05.17-.09l.02-.89c0-.17,0-.28-.01-.33-.01-.05-.04-.1-.07-.14-.04-.04-.08-.06-.13-.06h-.06s0-.12,0-.12l1.07.02v.12c-.08,0-.14.03-.17.06-.03.03-.06.09-.08.16-.01.04-.02.14-.02.29l-.02.89c-.14.12-.29.21-.44.27-.15.06-.31.09-.48.08-.21,0-.38-.06-.51-.18-.14-.11-.26-.26-.36-.44-.1-.18-.18-.39-.23-.61-.07-.29-.1-.62-.1-.98.01-.64.14-1.19.38-1.63.24-.44.53-.66.89-.65.11,0,.21.02.29.06.05.02.12.07.23.15.11.08.17.12.19.12.03,0,.06-.02.08-.06.03-.04.05-.12.08-.24h.06Z"/>
      <path class="cls-2" d="M35.21,12.49l1.13.04v.12s-.06,0-.06,0c-.09,0-.15.01-.18.05-.03.03-.06.08-.07.14-.02.06-.03.21-.04.46l-.08,2.1c-.02.38-.01.64.01.76.03.13.07.23.13.32.07.08.15.13.25.13.12,0,.22-.04.31-.14.09-.1.15-.24.2-.42.05-.18.08-.5.1-.95l.07-1.75c0-.19,0-.33-.01-.41-.02-.08-.04-.14-.07-.17-.05-.05-.11-.08-.2-.08v-.12s.76.03.76.03v.12s-.05,0-.05,0c-.06,0-.11.02-.16.07-.04.05-.08.12-.1.21-.02.07-.03.19-.04.36l-.06,1.63c-.02.5-.05.87-.09,1.09-.04.22-.13.42-.27.61-.14.18-.32.27-.55.26-.19,0-.33-.06-.43-.17-.14-.14-.23-.32-.28-.53-.05-.21-.07-.5-.06-.85l.08-2.1c0-.25,0-.4,0-.46-.01-.06-.03-.11-.07-.15-.03-.04-.1-.06-.19-.06v-.12h0Z"/>
      <path class="cls-2" d="M38.87,16.26c.02.14.03.22.03.24,0,.04,0,.08,0,.12,0,.06-.02.11-.04.14-.04.04-.1.06-.18.06h-.04s0,.11,0,.11l1.06.06v-.12c-.06-.02-.11-.06-.14-.12-.04-.09-.09-.3-.15-.64l-.58-3.56h-.03s-.99,3.37-.99,3.37c-.09.32-.17.53-.23.63-.06.1-.12.16-.2.18v.12s.72.04.72.04v-.12c-.11-.02-.18-.05-.2-.09-.05-.06-.07-.15-.06-.27,0-.09.03-.2.06-.34l.12-.41.77.05.09.54h0ZM38.07,15.45l.43-1.46.24,1.49-.66-.04h0Z"/>
      <path class="cls-2" d="M40.72,17.08c.14.01.25,0,.32-.01.15-.04.28-.11.39-.2.11-.09.21-.22.31-.37.09-.16.17-.36.24-.61.07-.25.12-.52.14-.82.04-.43.02-.83-.05-1.18-.07-.35-.2-.62-.38-.81-.15-.15-.35-.24-.62-.26l-.98-.08v.12s.06,0,.06,0c.06,0,.11.03.14.07.03.04.05.09.06.15,0,.06,0,.19-.02.41l-.23,2.81c-.02.22-.03.35-.04.4-.02.07-.05.12-.09.15-.04.04-.09.05-.15.05h-.07s0,.11,0,.11l.98.08h0ZM41.29,13.16c.1.1.18.28.22.55.06.33.07.78.02,1.32-.06.68-.16,1.18-.32,1.49-.11.23-.26.34-.44.32-.05,0-.1-.02-.12-.06-.02-.02-.03-.05-.04-.09,0-.04,0-.15.01-.33l.28-3.34c.18.01.31.06.38.13h0Z"/>
      <path class="cls-2" d="M43.61,16.67c.01.14.02.22.02.24,0,.04,0,.08,0,.12,0,.06-.02.11-.05.14-.04.04-.1.06-.19.05h-.04s-.01.11-.01.11l1.05.11v-.12c-.05-.02-.1-.06-.13-.13-.04-.09-.08-.31-.12-.64l-.41-3.58h-.03s-1.15,3.31-1.15,3.31c-.11.32-.2.52-.26.62-.06.1-.13.15-.21.17v.12s.71.08.71.08v-.12c-.1-.03-.17-.06-.19-.1-.04-.06-.06-.15-.05-.27,0-.09.04-.2.08-.34l.14-.4.77.08.06.54h0ZM42.86,15.82l.5-1.43.16,1.5-.66-.07h0Z"/>
      <path class="cls-2" d="M46.68,16.24l-.28,1.48-1.93-.26.02-.12h.07c.06.02.12,0,.16-.03.03-.03.06-.07.08-.14.02-.05.04-.18.07-.39l.38-2.79c.03-.22.04-.35.04-.41,0-.06-.02-.11-.05-.15-.03-.05-.08-.07-.14-.08h-.07s.02-.13.02-.13l1.16.16-.02.12h-.09c-.06-.02-.12,0-.16.03-.03.03-.06.07-.09.14-.02.05-.04.18-.07.39l-.37,2.7c-.03.22-.04.36-.04.42,0,.06.02.11.06.14.02.02.09.04.19.05l.18.03c.12.02.22-.01.3-.08.09-.07.17-.19.25-.35.08-.16.17-.41.26-.74h.07Z"/>
      <path class="cls-2" d="M48.15,17.31c0,.14,0,.22,0,.24,0,.04,0,.08-.01.12-.01.06-.03.11-.06.14-.04.04-.1.05-.19.04h-.04s-.02.11-.02.11l1.05.18.02-.12c-.06-.02-.11-.07-.13-.14-.03-.09-.06-.31-.08-.65l-.19-3.6h-.03s-1.34,3.24-1.34,3.24c-.13.31-.23.51-.29.61-.07.09-.14.15-.22.16l-.02.11.72.12.02-.11c-.11-.04-.18-.07-.2-.11-.04-.06-.05-.16-.03-.28.01-.09.05-.2.1-.33l.16-.4.76.13.03.55h0ZM47.45,16.42l.58-1.4.08,1.51-.66-.11h0Z"/>
      <path class="cls-2" d="M50.18,14.14l.02-.12,1.14.23-.02.11h-.07c-.06-.03-.12-.02-.17.02-.03.02-.06.07-.09.14-.02.05-.06.18-.1.39l-.41,2.06c-.08.4-.16.69-.24.87-.08.17-.18.31-.31.41-.13.1-.27.14-.42.11-.18-.04-.31-.16-.38-.37-.07-.21-.09-.43-.04-.65.03-.14.08-.26.14-.34.06-.08.13-.11.19-.1.06.01.11.06.14.15.03.09.03.19,0,.31-.01.06-.02.11-.04.15,0,.02-.04.07-.08.15-.05.08-.07.13-.08.17-.01.05,0,.1.01.15.03.07.07.11.14.12.05,0,.09,0,.13-.05.04-.04.07-.11.11-.2.03-.09.09-.36.18-.8l.45-2.25c.04-.21.06-.35.06-.41,0-.06-.02-.11-.04-.16-.03-.05-.07-.08-.13-.09l-.09-.02h0Z"/>
      <path class="cls-2" d="M52.09,18.13c0,.14,0,.22,0,.24,0,.04,0,.08-.02.12-.01.06-.04.11-.07.13-.04.04-.11.05-.19.03h-.04s-.03.1-.03.1l1.03.25.03-.11c-.06-.03-.1-.08-.12-.15-.03-.1-.04-.31-.03-.66l.05-3.6h-.03s-1.56,3.14-1.56,3.14c-.15.3-.26.49-.33.58-.07.09-.15.14-.23.14l-.03.11.71.17.03-.11c-.11-.04-.17-.08-.19-.12-.04-.07-.04-.16-.01-.28.02-.09.06-.2.12-.32l.19-.38.75.18v.55h-.01ZM51.46,17.19l.67-1.36-.03,1.51-.65-.15h0Z"/>
      <path class="cls-2" d="M54.29,17.4l.13,2.08.66.19.03-.11c-.05-.02-.09-.07-.12-.15-.01-.05-.03-.18-.04-.38l-.1-1.54c.15-.02.28-.09.38-.19.17-.17.3-.4.39-.7.07-.25.1-.48.08-.68-.02-.21-.08-.36-.18-.47-.1-.1-.27-.19-.53-.27l-.98-.29-.03.11c.1.03.16.07.18.11.02.04.04.1.03.16,0,.06-.04.2-.1.43l-.79,2.67c-.07.22-.11.36-.14.41-.03.05-.07.09-.11.12-.04.03-.12.02-.21,0l-.03.11,1.08.32.03-.11c-.1-.03-.16-.07-.18-.11-.03-.04-.04-.1-.03-.16,0-.06.04-.2.1-.43l.34-1.15.14.04h0ZM54.91,15.39c.17.05.27.16.3.33.03.17,0,.42-.09.73-.06.22-.14.39-.22.51-.08.12-.16.2-.25.23-.09.03-.2.03-.35-.02l-.09-.03.53-1.8.17.05h0Z"/>
      <path class="cls-2" d="M56.63,19.51c-.02.14-.03.22-.04.24,0,.04-.02.08-.03.11-.02.06-.05.1-.08.13-.05.03-.11.03-.19,0l-.04-.02-.04.11,1,.36.04-.11c-.06-.03-.1-.09-.11-.16-.02-.1,0-.32.04-.66l.46-3.58h-.03s-1.91,2.94-1.91,2.94c-.18.28-.32.46-.4.54-.08.08-.17.12-.25.11l-.04.11.69.25.04-.11c-.1-.06-.16-.1-.18-.15-.03-.07-.02-.16.02-.27.03-.09.08-.19.16-.31l.23-.36.73.26-.07.54h0ZM56.1,18.5l.82-1.27-.2,1.5-.62-.23h0Z"/>
      <polygon class="cls-2" points="16.29 37.91 15.29 36.91 14.32 37.88 13.34 36.91 12.34 37.91 13.31 38.88 12.34 39.85 13.34 40.85 14.32 39.88 15.29 40.85 16.29 39.85 15.32 38.88 16.29 37.91 16.29 37.91"/>
      <polygon class="cls-2" points="47.65 37.91 46.65 36.91 45.68 37.88 44.71 36.91 43.71 37.91 44.68 38.88 43.71 39.85 44.71 40.85 45.68 39.88 46.65 40.85 47.65 39.85 46.68 38.88 47.65 37.91 47.65 37.91"/>
      <polygon class="cls-2" points="16.83 73.18 15.83 72.18 14.86 73.15 13.89 72.18 12.89 73.18 13.86 74.15 12.89 75.12 13.89 76.13 14.86 75.16 15.83 76.13 16.83 75.12 15.86 74.15 16.83 73.18 16.83 73.18"/>
      <polygon class="cls-2" points="47.11 73.18 46.11 72.18 45.14 73.15 44.17 72.18 43.16 73.18 44.13 74.15 43.16 75.12 44.17 76.13 45.14 75.16 46.11 76.13 47.11 75.12 46.14 74.15 47.11 73.18 47.11 73.18"/>
      <path class="cls-2" d="M35.37,49.67c-.39,0-.79.39-1.18.39h-.39c-.39,0-.79-.39-.79-.39v-.39c.79.39,1.58.39,2.36,0v.39h0ZM34.58,53.17h-.39c-.39,0-.79-.39-1.18-.39h2.36s-.39.39-.79.39h0ZM34.19,54.73s-.39.39-.79.39h-.4c-.39,0-.79-.39-1.18-.39v-.39c.79.39,1.58.39,2.37,0q.39,0,0,.39h0ZM31.03,50.45c.79.39,1.58.39,2.37,0v.39s-.4.39-.79.39h-.39c-.39,0-.79-.39-1.18-.39v-.39h0ZM30.25,50.06h-.39c-.39,0-.79-.39-.79-.39v-.39c.79.39,1.58.39,2.36,0v.39c-.39,0-.79.39-1.18.39h0ZM29.06,50.84s-.39.39-.79.39h-.39c-.39,0-.79-.39-1.18-.39v-.39c.79.39,1.58.39,2.36,0v.39h0ZM28.67,54.73c-.39,0-.79.39-1.18.39h-.39c-.39,0-.79-.39-.79-.39v-.39c.79.39,1.58.39,2.37,0v.39h0ZM25.12,52.78c.79.39,1.58.39,2.36,0-.39.39-.79.78-1.18.78h-.39c-.39-.39-.79-.39-.79-.78h0ZM24.73,49.28c.79.39,1.58.39,2.37,0,0,.39-.39.78-.79.78h-.39c-.39,0-.79-.39-1.18-.39v-.39h0ZM35.76,49.28c.79-1.55-.79-3.89-2.76-3.5-1.18-1.94-4.33-2.33-5.51,0-2.76-.39-3.94,2.33-3.15,3.5-1.58,1.55-1.18,3.5.39,4.66.79,1.94,2.76,2.72,4.73,1.55h1.58c1.18,1.17,3.94.39,4.33-1.55,1.58-1.17,1.97-3.11.39-4.66h0Z"/>
      <path class="cls-2" d="M37.13,60.62l-.05-1.22c.14.27.47.56.22.87-.05.11-.14.22-.16.35h0ZM36.51,59.46l-.04-1.27.35.62c-.09.22-.16.45-.31.65h0ZM36.56,61.9l-.05.04-.04-1.22c.31.33.4.78.09,1.18h0ZM35.85,60.62l-.04-1.22.35.56c-.11.22-.15.47-.31.66h0ZM35.01,57.96l.38.05.19.23-.57-.28h0ZM24.69,57.93c-.07-.24.2-.24.35-.22-.13.07-.2.2-.35.22h0ZM24.38,60.46l-.35-.62.35-.69v1.31h0ZM23.69,59.24c-.11-.31-.49-.58-.22-.93l.22-.38c.05.36.05.89,0,1.31h0ZM23.69,61.81c-.11-.29-.49-.56-.22-.91l.22-.35c.05.35.05.87,0,1.26h0ZM23.07,60.46c-.11-.29-.49-.58-.22-.93l.22-.38c.07.36.07.89,0,1.31h0ZM40.75,61.72c.38-.73.64-1.53.53-2.47l-1.71-1.14c-.38.47-.75.93-1.13,1.4.36,1.56.85,3.14,1.09,4.71l-.13-.13c-.24-1.07-1.33-1.24-2.05-1.84.16-.78.35-1.56.53-2.35l-.53-1.96c-.64-.27-1.25-.55-1.96-.62-.36.33-.76.13-1.18.09-.18.2-.25.51-.22.82.18.22.49.11.65.36.09.14.04.36-.09.47-.24.13-.49-.09-.6-.31-.24-.02-.22.29-.27.44-.04.4.33.47.62.53.27.07.36.44.26.69-.26.58-.96.2-1.4.18l-2.26-2.4.04-2.65s0,0,0,0c0-.76.78-1.52,1.94-1.9-.78,0-1.55,0-1.94.38,0-.76.39-1.53.78-1.91-.78.38-1.16.76-1.55,1.53-.39-.38-.78-1.15-1.55-1.53.39.38.78,1.15.78,1.91-.78-.38-1.16-.38-1.94-.38,1.16.38,1.55,1.14,1.93,1.9,0,0,0,0,0,0v2.56l-2.24,2.36-1.18.13c-.27-.09-.24-.4-.29-.62.02-.67,1.25-.18.91-1.13-.16-.75-.45.33-.84.09-.18-.11-.18-.29-.16-.49.16-.24.44-.22.66-.34.11-.33,0-.54-.09-.87-.27-.04-.62.05-.91.09-.33-.31-.76-.11-1.15-.18-.33.35-.84.42-1.25.62l-.53,1.87c.02.93.44,1.75.47,2.62l-1.47.87-.71,1.15c.24-1.64.73-3.27,1.09-4.89l-1.22-1.44-1.71,1.22c-.13.98.18,1.8.58,2.53.22-.49.47-.96.65-1.49-.2-.29-.34-.6-.4-.95.27-.2.58-.33.91-.4.2.22.35.45.44.69l-1.31,4.76.36,1.18c-.51.73.24,1.26.38,1.91-.89.47-.38,1.55-.53,2.33h1.89c-.49-.4-1.4-.55-1.09-1.45.29-.29.73-.47,1.13-.66l.47-2.62,3.42-.78c.34-.76.66-1.56,1.09-2.31l1.35-.78c.38-.65.2-1.76,1.22-1.93.07.45.04.96.05,1.44l-1.27,1.36c-1.15-.11-1.11,1.16-1.4,1.78.93-.53,1.85-1.13,2.49-2.09h.13c.05,2.07.11,4.24-.04,6.29-.07.95-1.16,1.53-1.87,1.82.51.44,1.18.45,1.87.49.16.53.31,1.15.87,1.44.49-.35.69-.89.78-1.44.69-.06,1.42-.02,1.93-.53-.76-.25-1.78-.84-1.89-1.74l-.04-6.29h.09c.76.8,1.56,1.62,2.56,2.05-.18-.47-.31-1.02-.56-1.44-.98,0-1.47-1.09-2.13-1.71l.04-1.35c.98.2,1,1.25,1.31,1.96l1.35.75,1.02,2.22c1.09.35,2.31.36,3.35.84l.31,2.05c0,.64.86.58,1.18,1,.4.93-.62,1.04-1.05,1.44.6.13,1.16-.07,1.8,0v-1.71c-1.11-.44.02-1.18.09-1.75-.29-.6-.05-1.16.13-1.75l-1.18-4.44c-.22-.4.22-.69.44-.93.31.07.67.23.84.49-.82.75,0,1.53.25,2.25h0Z"/>
    </g>
  </g>
</svg>