<?xml version="1.0" encoding="UTF-8"?>
<svg id="Layer_2" data-name="Layer 2" xmlns="http://www.w3.org/2000/svg" viewBox="0 0 207.52 38.73">
  <defs>
    <style>
      .cls-1 {
        fill: #191919;
      }
    </style>
  </defs>
  <g id="Layer_5" data-name="Layer 5">
    <g>
      <path class="cls-1" d="M.75,27.86h206.77v10.87H.75v-10.87ZM8.82,34.71c-1.1,1.2-2.32.88-3.01,0-.56-.72-.44-2.06.29-2.62.84-.65,1.97-.51,2.8.33l1.1-1.09c-1.6-1.69-4.4-1.49-5.72.25-.74.98-.86,2.29-.35,3.41.5,1.1,1.67,1.79,2.62,1.91,1.39.17,2.46-.09,3.45-1.15l-1.19-1.03ZM45.74,31.84c-.84-1.33-2.28-1.81-3.7-1.61-1.92.26-3.21,1.82-3.04,3.64.15,1.72,1.58,3.02,3.44,3.09,1.36.05,2.57-.55,3.25-1.57s.75-2.44.05-3.55ZM95.01,36.6c.8-.33,1.22-1.15,1.18-1.89-.04-.69-.64-1.36-1.44-1.56l-1.82-.47c-.16-.04-.44-.34-.51-.49-.21-.48,1.22-.91,2.96-.18l.48-1.32c-1.39-.63-2.75-.72-4.09-.14-.74.32-1.18,1.23-1.09,1.96s.71,1.32,1.5,1.52l1.81.47c.19.05.48.42.43.59-.19.66-1.87.59-3.29-.13l-.53,1.34c1.52.68,2.89.91,4.41.28ZM132.03,32.29c-.63-1.5-2.16-2.24-3.76-2.1-1.9.17-3.28,1.68-3.24,3.46s1.5,3.2,3.46,3.3c1.24.06,2.37-.47,3.07-1.31.76-.93.96-2.21.48-3.35ZM159.3,34.72c-1.03,1.15-2.33.9-2.99,0-.57-.77-.48-2.04.3-2.66s1.96-.49,2.78.34l1.11-1.07c-.91-.93-1.93-1.24-3.15-1.15-1.82.14-3.23,1.54-3.26,3.3s1.22,3.21,3.05,3.42c1.29.14,2.43-.12,3.37-1.18l-1.21-1.02ZM15.98,34.17l-.08-1.32-2.91-.02.03-1.11h3.28s.02-1.41.02-1.41h-5.03s0,6.48,0,6.48h5.21s-.01-1.37-.01-1.37h-3.47s.01-1.26.01-1.26h2.97ZM24.08,36.77v-6.43s-1.77,0-1.77,0l-.04,3.45-2.88-3.43h-1.53s0,6.47,0,6.47l1.75-.04.04-3.5,2.88,3.46h1.55ZM28.96,36.78l.02-5.02,2.01-.02-.16-1.42-5.44.04c-.36,0-.35,1.35.01,1.37l1.74.05v5.04s1.81-.02,1.81-.02ZM36.1,36.79h1.87s-1.34-2.02-1.34-2.02c1.05-.59,1.46-1.44,1.25-2.58-.41-2.21-3.16-1.9-5.81-1.87v6.49s1.73,0,1.73,0l.06-1.75,1.1.09,1.14,1.64ZM54.91,30.36v3.79c.02.79-.56,1.38-1.28,1.34-.67-.04-1.21-.54-1.21-1.28l-.02-3.88-1.82.02.06,4.03c.02,1.59,1.36,2.55,2.91,2.6,1.33.04,3.03-.7,3.06-2.2l.11-4.43-1.8.02ZM64.57,36.66v-6.33s-1.78.03-1.78.03l-.04,3.46-2.7-3.24c-.28-.34-1.24-.3-1.71-.16v6.38s1.74,0,1.74,0l.1-3.38,2.79,3.24c.27.28,1.37.19,1.6,0ZM66.23,30.32v6.48s1.8,0,1.8,0v-6.48s-1.8,0-1.8,0ZM74.5,30.43l-1.8,4.14-1.81-4.23-1.91.04,2.75,6.43,1.8-.03,2.77-6.4c-.52-.04-1.31-.03-1.81.04ZM81.81,34.17v-1.32s-2.86,0-2.86,0l-.04-1.12h3.31s-.1-1.42-.1-1.42l-5.02.03v6.46s5.2,0,5.2,0l-.04-1.38-3.32.02-.03-1.27h2.89ZM87.78,36.79h1.88s-1.33-2.02-1.33-2.02c1.09-.62,1.52-1.57,1.2-2.76-.19-.7-1.07-1.63-2.08-1.64l-3.7-.04v6.46s1.75.03,1.75.03l.05-1.76,1.11.1,1.12,1.64ZM97.43,30.32v6.48h1.8v-6.48h-1.8ZM104.13,36.78v-5.02s2.02-.02,2.02-.02l-.15-1.42-5.68.02-.03,1.41,2.04.02v5.03s1.8-.01,1.8-.01ZM111.32,35.54l.47,1.26h1.85s-2.83-6.42-2.83-6.42l-1.84-.05-2.84,6.43,1.79.06.59-1.3,2.81.02ZM118.63,36.79h1.87s-1.33-2.04-1.33-2.04c1.05-.49,1.43-1.45,1.25-2.48-.15-.86-.93-1.86-2.03-1.88l-3.79-.06v6.47s1.77-.01,1.77-.01l.02-1.73c.27-.03,1.02-.03,1.17.19l1.07,1.54ZM123.67,36.78v-6.43s-1.86-.01-1.86-.01v6.45s1.86-.01,1.86-.01ZM140.56,36.73c1.87-.02,2.9-1.72,2.86-3.29s-1.26-3.04-3.02-3.07l-3.76-.06v6.47s3.92-.05,3.92-.05ZM149.47,34.18l-.03-1.33-2.88-.02.06-1.1h3.2s.01-1.42.01-1.42l-5.08.02v6.48s5.21,0,5.21,0l.06-1.37h-3.5s.05-1.27.05-1.27l2.9.02ZM167.93,36.75v-6.39s-1.82-.04-1.82-.04v2.44s-2.55.02-2.55.02l-.02-2.45-1.82.03v6.42s1.82,0,1.82,0l.03-2.54h2.51s.02,2.56.02,2.56l1.82-.06ZM174.03,35.53l.44,1.29,1.89-.06-2.84-6.42-1.85.04-2.8,6.37,1.74.03.68-1.27h2.74ZM179.16,35.12l1.65-.06c1.34-.05,2.32-1.02,2.38-2.26.05-1.08-.87-2.4-2.19-2.42l-3.68-.05v6.46s1.75.01,1.75.01l.08-1.68ZM188.58,35.54l.46,1.27,1.84-.05-2.8-6.37-1.86-.06-2.82,6.45,1.77.05.57-1.3h2.84ZM196.74,35.4h-3.1s.01-5.06.01-5.06l-1.82.03v6.44s4.9,0,4.9,0v-1.4ZM202.37,35.55l.61,1.27,1.72-.06-2.8-6.38-1.86-.06-2.81,6.44,1.77.05.57-1.31,2.8.04Z"/>
      <path class="cls-1" d="M93.23,17.08c-1.93.21-3.43.83-5.04,1.56l-3.46,1.56-.04-4.43-5.2-.02-.03,4.56c-3.05-.37-5.21-2.72-8.51-3.09V1.44c0-.51.49-.95.95-.95l6.77.04c.48,0,.8.61.8,1.06v6.84s5.21,0,5.21,0l.02-7.05c0-.33.45-.86.8-.86h6.77c.44,0,.94.45.94.93v15.63Z"/>
      <path class="cls-1" d="M11.76,15.83c3.27.99,5.34-1.98,6.01-.93l3.02,4.74c.44.69.27,1.28-.37,1.79-2.59,2.06-5.83,2.92-9.17,2.71C4.75,23.74-.06,18.51,0,12.04.05,6.65,3.44,1.99,8.7.55c4.02-1.1,8.34-.3,11.63,2.21.27.21.59.54.69.76.12.25-.08.85-.24,1.11l-2.76,4.39c-.99,1.57-2.16-.87-5.08-.8-2.27.05-3.81,1.87-3.72,4.03.07,1.6.87,3.08,2.55,3.58Z"/>
      <path class="cls-1" d="M129.34,16.25l-.1,3.58-2.01-.92c-2.11-.96-4.12-1.88-6.5-1.86V1.4c0-.29.45-.92.73-.93l8.49-.33c2.05-.08,4.13.24,6.01.85,3.33,1.09,5.13,3.89,5.13,7.3,0,3.95-2.49,7.11-6.44,7.85-1.7.32-3.2.24-5.3.1ZM131.09,9.99c.86-.12,1.38-.96,1.41-1.6.03-.6-.34-1.39-.97-1.68-.72-.33-1.47-.3-2.24-.14v3.4c.63.06,1.14.1,1.8.01Z"/>
      <path class="cls-1" d="M117.58,17.26c-4.33,1.11-5.05,3.16-10.25,3.12-2.08-.02-3.91-.29-5.74-1.38-1.51-.9-3.14-1.55-4.89-1.8L101.57.54l10.4-.04c.27,0,.78.35.92.59l4.69,16.17ZM108.24,14.92l-.87-4.45c-.03-.14-.43-.31-.45-.19l-.07.46-.81,4.25,2.21-.07Z"/>
      <path class="cls-1" d="M163.08,19.9c-3.25.86-6.68.91-9.52-.75-3.79-2.21-8.11-2.85-12.35-1.21l4.85-16.72c.17-.29.49-.56.81-.73l10.56.05,5.65,19.36ZM152.96,14.94c-.41-1.95-.5-3.2-1.16-4.93l-1.05,4.97,2.21-.04Z"/>
      <path class="cls-1" d="M203.36,18.26c-4.08-1.91-8.72-1.53-12.49.66-2.09,1.21-4.32,1.69-6.79,1.52l5.67-19.51c.33-.28.85-.44,1.3-.44l9.98.05,5.61,19.24-3.27-1.53ZM196.57,14.96l-1.09-4.95-1.1,4.96h2.18Z"/>
      <path class="cls-1" d="M60.98,15.98c2.55-.06,4.03-2.11,4.68-1.08l1.38,2.2c-2.18.31-3.78,1.05-5.59,2.02-3.57,1.93-7.97,1.82-11.5-.11-1.91-2.83-2.51-6.12-1.85-9.46.81-4.11,3.69-7.44,7.68-8.81,4.27-1.47,8.94-.67,12.49,2.04.56.42.84,1.04.44,1.66l-3.09,4.88c-.61.97-2.42-1.31-4.91-1.17-2.28.12-3.75,1.94-3.65,4.14.1,2.11,1.63,3.77,3.93,3.71Z"/>
      <path class="cls-1" d="M182.09,15.97c.33,0,.89.51.88.84v3.56c-1.37-.25-2.68-.62-3.93-1.36-4.08-2.41-9-2.71-13.39-.42V1.41c0-.48.45-.87.87-.9h6.78c.31,0,.87.54.87.89v13.72c0,.51.51.87.95.87h6.96Z"/>
      <path class="cls-1" d="M35.53,21.76c1.42-.9,2.19.77,3.38.05.44-.27.68-.73.92-1.36l1.25-.8c.75-.48,1.31-1.31,1.39-2.09.24-2.45-2.86-3.96-5.48-4.92l.06-3.72c.02-1.15.01-2.19-.01-3.33l-.08-3.82c0-.29.56-.79.85-.79h6.77c.44,0,.95.38.95.87l-.12,12.95c-.31,5.24-4.35,9.2-9.39,9.74l-.48-2.78Z"/>
      <path class="cls-1" d="M182.43,23.62l-15.85.02c-.32,0-.91-.42-.91-.71v-2.77c3.58-2.39,8.68-2.37,12.43-.17,1.49.88,3.05,1.38,4.76,1.75.29.36.2,1.71-.43,1.88Z"/>
      <path class="cls-1" d="M197.07,20.35h-3.49c-.94,1.56-.26,3.28-1.78,3.29h-7.01c-.43,0-1.07-.2-1.21-.51-.17-.36-.03-1.11.2-1.39,2.83.26,5.49-.34,7.91-1.76,1.89-1.11,3.88-1.62,6.08-1.61,2.11.01,3.93.59,5.83,1.45l3.56,1.62.27,1.32c.06.29-.47.86-.77.86h-8.11c-.99-1.09-.54-3.28-1.48-3.27Z"/>
      <path class="cls-1" d="M30.15,21.28l-4.3-.18c-1.55-1.77-2.4-3.9-2.64-6.22l2.17-3.15,5.3.38,2.38,4.75-2.9,4.42ZM29.34,16.23c0-.9-.73-1.63-1.64-1.63s-1.64.73-1.64,1.63.73,1.63,1.64,1.63,1.64-.73,1.64-1.63Z"/>
      <path class="cls-1" d="M148.37,23.63h-7.48c-.25.01-.78-.23-.89-.43-.13-.24-.11-.78-.03-1.07l.76-2.49c3.65-1.94,8.62-1.66,12.06.66l-2.91.12-.58,2.2c-.11.42-.36,1-.93,1.01Z"/>
      <path class="cls-1" d="M68.97,20.68c-4.32,4.24-12.05,4.66-16.79.72,3.7.79,7.21.47,10.37-1.38,1.61-.94,3.34-1.51,5.19-1.63.56.59,1.01,1.36,1.22,2.29Z"/>
      <path class="cls-1" d="M129.24,23c0,.24-.67.63-.95.63h-6.61c-.41-.07-.96-.52-.96-.88v-4.37c2.1,0,3.86.71,5.69,1.57l2.85,1.35-.03,1.71Z"/>
      <path class="cls-1" d="M104.11,23.63h-8.18c-.36,0-.88-.79-.77-1.14l1.2-4.06c3.19.43,5.28,2.53,8.38,3.17-.03.59-.21,1.38-.63,2.04Z"/>
      <path class="cls-1" d="M28.34,7.09c-1.96-1.01-1.02-2.26-1.77-3.08-.84-.92-2.85.23-3.36-.95-.26-.59-.07-1.47.28-2.05l7.25-.04c.31,0,.95.39.95.68v2.97c-1.22.82-2.03,1.43-3.35,2.48Z"/>
      <path class="cls-1" d="M92.41,23.63l-7.11-.06c-.69-.16-.82-1.73-.39-2.08,3.07-.87,5.24-2.99,8.33-3.03v4.19c0,.33-.43.99-.83.98Z"/>
      <path class="cls-1" d="M110.25,23.63c-.47-.49-.69-1.31-.65-1.92,3.31-.53,5.37-2.57,8.34-3.18l1.1,3.75c.07.23.02.84-.13.99s-.47.27-.76.38h-7.9Z"/>
      <path class="cls-1" d="M78.98,23.59l-6.71.06c-.42.08-1.3-.31-1.3-.71l-.02-4.47c3.07.64,5.19,2.61,8.35,3.2.41.27.25,1.6-.32,1.91Z"/>
      <path class="cls-1" d="M39.22,19.14c-.79-.57-1.98-.57-2.45.46-.12.26-.41.62-.62.75s-.9.07-1.05-.08l-1.2-3.71c1.66-.31,2.76-.98,2.99-2.61,1.99.63,4.62,2.03,4.35,3.61-.12.69-1.09,1.49-2.02,1.59Z"/>
      <path class="cls-1" d="M163.05,23.63l-7.57.02c-.33,0-.95-.42-1.02-.74l-.38-1.98c3.23,1.12,6.21,1.14,9.34.21l.42,1.58c.07.26-.51.91-.79.91Z"/>
      <path class="cls-1" d="M27.41,8.02l-2.48,2.9-1.81.1v-6.32s.43-.02.43-.02c.32-.01.05,1.26.88,1.84.41.29.97.3,1.59.16l1.39,1.33Z"/>
      <path class="cls-1" d="M34.84,24.67c-2.02.02-3.7-.24-5.59-1.03l1.28-1.51,3.78-.26.53,2.79Z"/>
      <path class="cls-1" d="M30.96,11.05l-1.96-2.87c.82-.72,1.55-1.31,2.67-2.11l.05,5.26c.01.1-.63-.09-.76-.28Z"/>
      <polygon class="cls-1" points="29.55 11.11 26.46 10.97 28.16 8.98 29.55 11.11"/>
      <polygon class="cls-1" points="33.99 20.68 31.49 20.83 33.17 18.27 33.99 20.68"/>
      <path class="cls-1" d="M28.84,22.12c-.03.24-.57.94-.79.79l-1.19-.82,1.99.03Z"/>
      <path class="cls-1" d="M140.83,35.08c-.77.39-1.54.36-2.3.32v-3.65c.7-.01,1.44-.02,2.23.22.47.14.82,1.05.84,1.48.02.47-.24,1.35-.77,1.62Z"/>
      <path class="cls-1" d="M87,33.66l-1.45.07-.02-2,1.61.06c.31.01.7.69.66.99s-.49.86-.81.88Z"/>
      <path class="cls-1" d="M130.44,33.55c.01,1.05-.68,1.85-1.64,1.92-1.02.08-1.86-.61-1.94-1.72-.08-1.12.59-1.94,1.55-2.05,1.16-.14,2.02.63,2.03,1.85Z"/>
      <path class="cls-1" d="M44.38,33.44c.05,1.17-.66,1.94-1.63,2.03-.96.09-1.86-.65-1.95-1.73s.63-1.95,1.56-2.04c1.06-.11,1.97.46,2.02,1.75Z"/>
      <path class="cls-1" d="M117.77,33.67l-1.41.06v-1.96s1.83.1,1.83.1c.28.01.51.83.42,1.1s-.56.69-.85.7Z"/>
      <path class="cls-1" d="M35.27,33.68l-1.41.04v-2s1.59.07,1.59.07c.31.01.69.69.66.99s-.53.88-.84.89Z"/>
      <path class="cls-1" d="M181,33.45c-.54.24-1.25.28-1.85.3l-.03-2.03,1.76.14c.47.04.74,1.32.13,1.59Z"/>
      <polygon class="cls-1" points="188 34.21 186.23 34.2 187.12 32.08 188 34.21"/>
      <polygon class="cls-1" points="173.5 34.19 171.7 34.22 172.56 32.14 173.5 34.19"/>
      <polygon class="cls-1" points="110.75 34.21 108.99 34.2 109.87 32.08 110.75 34.21"/>
      <polygon class="cls-1" points="201.83 34.21 200.05 34.2 200.93 32.09 201.83 34.21"/>
    </g>
  </g>
</svg>