<?xml version="1.0" encoding="UTF-8"?>
<svg id="Layer_2" data-name="Layer 2" xmlns="http://www.w3.org/2000/svg" viewBox="0 0 56.24 80.73">
  <defs>
    <style>
      .cls-1 {
        fill: #fff;
      }

      .cls-1, .cls-2 {
        fill-rule: evenodd;
      }

      .cls-2 {
        fill: #191919;
      }
    </style>
  </defs>
  <g id="Layer_5" data-name="Layer 5">
    <g>
      <path class="cls-1" d="M28.12,55.95c15.45,0,27.97-12.52,27.97-27.97S43.57,0,28.12,0,.15,12.53.15,27.98s12.52,27.97,27.97,27.97h0Z"/>
      <path class="cls-2" d="M2.74,80.54c-.98,0-1.58-.23-1.58-1.7s.02-9.57.02-9.57l-.69-.37c-.22-.2-.48-.4-.49-.6h3.59v12.23h-.85ZM17.75,69.13c-1.26,0-4.34,0-4.34,0v11.44l-.89-.02c-1.28,0-1.54-.97-1.54-2.2v-9.22s-2.72.1-3.68.43c-.12.31-.34.53-.34.53-.23.27-.8.53-.8.53l.4-2.33h11.19v.84h0ZM27.58,69.57c-.08-.12-.36-.37-4.28-.48l.03,4.6s2.44.02,3.17.07c.83.06.98.09,1.21.39.16.2.25.43.25.43l-4.63.1v1.92c0,1.9-.02,2.68,1.29,2.96.93.2,2.81.1,3.43-.02,1-.2,1.08.3,1.08.3,0,0-1.15.83-4.09.83s-3.91-.43-3.97-2.44c-.07-2.19-.1-3.27-.1-8.91l-.53-.33c-.45-.24-.53-.69-.53-.69h8.66v2.52s-.36-.11-.57-.42c-.21-.31-.41-.81-.41-.81h0ZM39.21,69.99c-.46-.37-1.42-1.11-2.92-.94-.78.09-2.19.49-2.13,1.67.06,1.11.69,1.29,2.86,2.24,2.31,1,4.08,2.16,4.04,4.37-.04,2.09-2.09,3.4-4.67,3.4-2.04,0-3.16-.47-4.49-.95,0,0-.1-.8,1.49-.45,2.43.53,2.64.43,3.5.3,1.18-.18,2.22-1.32,1.64-2.45-.42-.82-1.21-1.14-2.86-1.86-1.75-.76-3.47-1.57-3.53-3.53-.07-2.05,1.68-3.53,4.01-3.66,1.43-.08,3.02.28,4.07.89l-.03,2.15c-.37-.1-.72-.36-.98-1.18h0ZM56.24,74.39c0,3.95-2.62,6.35-6.47,6.35s-6.2-2.7-6.2-6.13c0-3.61,2.52-6.51,6.41-6.51s6.26,2.96,6.26,6.29h0ZM46.25,76.12c1.04,2.86,3.43,4.41,5.71,3.43,2.3-.99,2.46-3.77,1.53-6.66-1-3.12-3.25-4.64-5.6-3.62-2.3.99-2.68,4.01-1.64,6.85h0Z"/>
      <path class="cls-2" d="M39.09,25.42c5.48-7.1,7.89-13.46,5.49-15.72-2.38-2.24-8.79.19-15.91,5.55,2.07,1.66,4.16,3.54,6.21,5.61,1.5,1.51,2.91,3.03,4.21,4.56h0ZM38.74,25.87c-1.29-1.54-2.7-3.08-4.21-4.62-2.1-2.11-4.22-4.01-6.29-5.66-2.25,1.73-4.56,3.74-6.83,5.99-1.38,1.37-2.66,2.74-3.85,4.11,1.77,2.32,3.84,4.71,6.17,7.06,1.44,1.45,2.89,2.8,4.33,4.04,1.61-1.34,3.24-2.81,4.85-4.41,2.19-2.17,4.15-4.38,5.84-6.52h0ZM48.8,9.13c1.76,3.57-1.3,11-7.56,18.91,6.14,7.92,9.15,15.37,7.39,18.95,4.63-4.99,7.47-11.67,7.47-19.02s-2.77-13.87-7.3-18.84h0ZM35.25,34.74c-1.51,1.5-3.03,2.9-4.56,4.21,7.1,5.48,13.46,7.89,15.72,5.48,2.23-2.38-.19-8.79-5.55-15.91-1.67,2.06-3.55,4.16-5.61,6.21h0ZM28.06,41.09c-7.94,6.16-15.4,9.16-18.98,7.38,4.99,4.64,11.68,7.48,19.04,7.48s13.86-2.76,18.83-7.28c-3.58,1.73-11-1.33-18.89-7.58h0ZM15.37,28.35c-5.59,7.18-8.07,13.64-5.64,15.92,2.35,2.21,8.66-.14,15.68-5.39-1.35-1.18-2.7-2.44-4.04-3.78-2.22-2.23-4.24-4.5-6-6.75h0ZM15.02,27.92c-6.17-7.96-9.18-15.44-7.37-19.01C3,13.91.14,20.61.14,27.98s2.77,13.89,7.32,18.86c-1.76-3.57,1.3-11,7.56-18.92h0ZM21.01,21.23c2.23-2.22,4.51-4.24,6.75-6-7.17-5.59-13.64-8.07-15.91-5.64-2.21,2.36.14,8.66,5.39,15.68,1.18-1.35,2.44-2.7,3.78-4.04h0ZM28.19,14.88c7.94-6.16,15.4-9.16,18.97-7.38C42.17,2.85,35.48,0,28.12,0S14.22,2.78,9.24,7.33c3.56-1.79,11.01,1.26,18.95,7.55h0Z"/>
      <path class="cls-1" d="M29.03,25.44c-.26-.04-.36-.15-.38-.35l.15-6.26h-1.25l.15,6.26h0s0,0,0,0c-.03.22-.14.34-.39.35l-6.18-.19v1.25l6.18-.19h0,0c.24-.01.38.11.39.35l-.15,6.26h1.25l-.15-6.26s0,0,0,0h0c0-.22.15-.35.39-.35l6.18.19v-1.25l-6.18.19Z"/>
    </g>
  </g>
</svg>