<?xml version="1.0" encoding="UTF-8"?>
<svg id="Layer_2" data-name="Layer 2" xmlns="http://www.w3.org/2000/svg" viewBox="0 0 158.56 31.38">
  <defs>
    <style>
      .cls-1 {
        fill: #191919;
      }
    </style>
  </defs>
  <g id="Layer_5" data-name="Layer 5">
    <g>
      <path class="cls-1" d="M12.79,3.24v-.26h-.41v.26h-.27v.41h.27v.27h.41v-.27h.24v-.41h-.24ZM12.98,3.59h-.26v.27h-.29v-.27h-.2v-.29h.26v-.27h.29v.27h.26l-.05.29ZM10.1,3.24v-.26h-.41v.26h-.27v.41h.27v.27h.41v-.27h.26v-.41h-.26ZM10.29,3.59h-.26v.27h-.29v-.27h-.23v-.29h.26v-.27h.29v.27h.26l-.03.29ZM12.79.6v-.27h-.41v.27h-.27v.41h.27v.27h.41v-.27h.24v-.41h-.24ZM12.98.95h-.26v.26h-.29v-.26h-.2v-.3h.26v-.26h.29v.26h.26l-.05.3ZM10.1.6v-.27h-.41v.27h-.27v.41h.27v.27h.41v-.27h.26v-.41h-.26ZM10.29.95h-.26v.26h-.29v-.26h-.23v-.3h.26v-.26h.29v.26h.26l-.03.3ZM9.87,9.82l.18-.41.16.41-.16.41-.18-.41ZM10.37,9.82l.22-.52.29.52-.22.52-.29-.52ZM12.6,9.82l-.18-.41-.19.41.18.41.19-.41ZM12.09,9.82l-.22-.52-.22.52.22.52.22-.52ZM11.46,9.82l-.24-.6-.26.6.26.6.24-.6ZM16.82,25.21v-.44.11c.07-.01.13-.04.19-.07v-.34h-.19v.11-.27c0,.07,0,.1.16.14l.76.3-.73.3c-.15.07-.19.08-.19.15h0ZM17.16,24.8l.34-.14-.34-.12v.26ZM17.73,24.09c0-.08,0-.12-.12-.12h-.61c-.26,0-.31-.15-.31-.29,0-.03,0-.06,0-.08,0-.03.02-.05.04-.07.02-.02.04-.04.07-.05.03-.01.05-.02.08-.02.03,0,.05.01.07.03.02.02.03.04.03.07s-.01.05-.03.07c-.02.02-.04.03-.07.03h-.1c-.1,0,0,0,0,.07s.08.08.12.08h.77q.1,0,.1-.14v.48l-.04-.04ZM16.82,23.19v-.44.11c.07-.01.13-.04.19-.07v-.3h-.19v.11-.27c0,.07,0,.1.16.14l.76.29-.73.3c-.15.07-.19.08-.19.15h0ZM17.16,22.79l.34-.14-.34-.12v.26ZM16.86,21.22c0,.08,0,.12.1.12h.72q.1,0,.1-.12v.42c0,.07,0,.35-.23.35s-.19-.16-.2-.22c0,.11-.1.26-.24.26s-.26-.1-.27-.38v-.44h.04ZM16.95,21.56c-.07,0-.08,0-.08.08s.12.16.2.16.22-.12.22-.2l-.34-.04ZM17.35,21.56c0,.18,0,.2.19.2s.19,0,.19-.14,0-.07,0-.07h-.38ZM16.82,20.95v-.44.11c.07-.01.13-.04.19-.07v-.3h-.19v.11-.27s0,.1.16.14l.76.3-.73.3c-.15,0-.19.08-.19.15v-.03ZM17.16,20.54l.34-.14-.34-.12v.26ZM16.82,19.81v-.27l.44-.29h-.27q-.11,0-.12.11v-.45c0,.1,0,.12.12.12h.69q.12,0,.12-.12v.44c0,.1,0,.38-.24.38s-.22-.15-.24-.22l-.39.27-.1.03ZM17.31,19.22c0,.18,0,.24.2.24s.2,0,.2-.16,0-.08,0-.08h-.41ZM16.82,18.44v-.49c0,.1,0,.14.12.14h.73c0-.1,0-.23-.23-.26h.29v.8h-.29c.23,0,.23-.15.23-.24h-.73c-.11,0-.12,0-.12.14v-.08ZM16.82,25.23v-.44.11c.07-.01.13-.04.19-.07v-.37h-.19v.11-.27c0,.07,0,.1.16.14l.76.3-.73.3c-.15.07-.19.08-.19.15v.04ZM17.16,24.83l.34-.14-.34-.12v.26ZM17.73,24.12c0-.08,0-.12-.12-.12h-.61c-.26,0-.31-.15-.31-.29,0-.03,0-.06,0-.08,0-.03.02-.05.04-.07.02-.02.04-.04.07-.05.03-.01.05-.02.08-.02.03,0,.05.01.07.03.02.02.03.04.03.07,0,.01,0,.02,0,.04,0,.01-.01.02-.02.03,0,0-.02.02-.03.02s-.02,0-.04,0h-.1c-.1,0,0,0,0,.07s.08.08.12.08h.77q.1,0,.1-.14v.48l-.04-.04ZM16.82,23.22v-.44.11c.07-.01.13-.04.19-.07v-.3h-.19v.11-.27c0,.07,0,.1.16.14l.76.29-.73.3c-.15.07-.19.08-.19.15h0ZM17.16,22.81l.34-.14-.34-.12v.26ZM16.86,21.25c0,.08,0,.12.1.12h.72q.1,0,.1-.12v.42c0,.07,0,.35-.23.35s-.19-.16-.2-.22c0,.11-.1.26-.24.26s-.26-.1-.27-.38v-.44h.04ZM16.95,21.59c-.07,0-.08,0-.08.08s.12.16.2.16.22-.12.22-.2l-.34-.04ZM17.35,21.59c0,.18,0,.2.19.2s.19,0,.19-.14,0-.07,0-.07h-.38ZM16.82,20.98v-.44.11c.07-.01.13-.04.19-.07v-.33h-.19v.11-.27s0,.1.16.14l.76.3-.73.3c-.15,0-.19.08-.19.15ZM17.16,20.57l.34-.14-.34-.12v.26ZM16.82,19.84v-.27l.44-.29h-.27q-.11,0-.12.11v-.45c0,.1,0,.12.12.12h.69q.12,0,.12-.12v.44c0,.1,0,.38-.24.38s-.22-.15-.24-.22l-.39.27-.1.03ZM17.31,19.25c0,.18,0,.24.2.24s.2,0,.2-.16,0-.08,0-.08h-.41ZM16.82,18.46v-.52c0,.1,0,.14.12.14h.73c0-.1,0-.23-.23-.26h.29v.8h-.29c.23,0,.23-.15.23-.24h-.73c-.11,0-.12,0-.12.14v-.05ZM4.58,17.73v.1l.44.26h.42q.12,0,.14-.12v.46c0-.1,0-.12-.14-.12h-.26l-.46.24s-.04.03-.05.04c-.01.02-.02.04-.03.06v-.45.11h.08l.31-.15-.26-.15s-.08,0-.12,0v.11-.45l-.07.05ZM5.49,19.37v.44-.11c-.06-.01-.13-.01-.19,0v.3h.18v-.11.27c0-.07,0-.1-.16-.14l-.77-.3.73-.3c.15,0,.2-.08.2-.15v.1ZM5.17,19.78l-.34.14.34.12v-.26ZM4.83,20.64c-.1,0-.26.11-.26.27,0,.02,0,.04,0,.05,0,.02.02.03.03.05.01.01.03.02.05.03.02,0,.04,0,.05,0,.08,0,.11,0,.16-.14l.11-.19s.06-.09.11-.11.1-.04.15-.04c.04,0,.08,0,.12.02.04.02.07.04.1.07.03.03.05.07.06.11.01.04.01.08,0,.12,0,.08,0,.15,0,.23h-.29c.14,0,.3-.11.3-.27,0-.03,0-.07-.02-.1-.02-.03-.04-.05-.07-.07-.08,0-.12,0-.16.16v.08c-.12.23-.24.23-.3.23-.04,0-.08,0-.12-.02-.04-.01-.07-.04-.1-.07-.03-.03-.05-.06-.06-.1-.01-.04-.02-.08-.01-.12v-.2h.3l-.16-.03ZM5.47,22.42c0-.08,0-.12-.12-.12h-.6c-.1.08-.11.1-.11.12v-.29l.6-.46h-.45c-.1,0-.14,0-.15.12v-.3q0,.11.12.11h.82l-.76.6h.63c.11,0,.14,0,.15-.14v.31l-.12.04ZM4.55,23.52v-.77h.27c-.19,0-.23.12-.23.3s0,.11.07.11h.33c0-.14,0-.2-.2-.22h.52c-.16,0-.22.08-.22.22h.35s.08,0,.08-.12c0-.08-.02-.15-.07-.22-.04-.06-.11-.11-.18-.14h.29v.77c0-.08,0-.12-.11-.12h-.71q-.1,0-.11.12l-.08.07ZM5.49,23.78v.48c0-.08,0-.14-.11-.14h-.64c-.1,0-.1.07-.11.14v-.48c0,.07,0,.12.11.12h.69q.1,0,.11-.12h-.05ZM5.49,25.29v-.08c0-.08,0,0-.11,0h-.61q-.12,0-.14.11v-.44c0-.11,0-.35.26-.35.04,0,.08.01.12.03.04.02.07.05.09.09.03.11.03.23,0,.34h.34q.12,0,.14-.12v.45l-.08-.03ZM5.06,24.96c0-.16,0-.23-.22-.23s-.22,0-.22.16,0,0,0,.07h.44ZM12.7,18.94c-.08,0-.17-.01-.24-.05-.07-.04-.13-.1-.17-.18.14.02.27.02.41,0,.13.02.26.02.39,0-.03.07-.09.12-.15.16-.07.04-.14.05-.21.05l-.03.03ZM12.7,20.22c-.08,0-.17-.01-.24-.05-.07-.04-.13-.1-.17-.18.13.05.27.07.41.08.13,0,.27-.03.39-.08-.03.07-.09.12-.15.16-.07.04-.14.05-.21.05l-.03.03ZM12.33,20.94c-.08,0-.17,0-.24-.05-.07-.04-.13-.1-.17-.18.13.02.26.02.39,0,.13.02.26.02.39,0-.03.07-.08.12-.14.16-.06.04-.14.05-.21.05l-.03.03ZM10.18,20.94c-.08,0-.17,0-.24-.05-.07-.04-.13-.1-.17-.18.14.02.27.02.41,0,.13.02.26.02.39,0-.03.07-.09.12-.15.16-.07.04-.14.05-.21.05l-.03.03ZM9.33,19.99c.13.05.27.07.41.08.13,0,.27-.03.39-.08-.03.08-.09.14-.16.18-.07.04-.15.06-.24.05-.08,0-.16-.03-.23-.07-.07-.05-.12-.11-.15-.19l-.03.03ZM9.33,18.71c.13.02.26.02.39,0,.13.02.26.02.39,0-.03.08-.08.14-.15.18-.07.04-.15.06-.23.05-.09.02-.19,0-.27-.05-.08-.05-.14-.12-.18-.21l.04.03ZM10.47,19.28c.14-.01.28-.05.41-.1-.03.08-.08.14-.15.18-.07.04-.15.06-.23.05-.09,0-.17-.01-.25-.05s-.14-.1-.18-.18c.12.03.23.06.35.07l.04.03ZM11.24,18.78c.14.02.27.02.41,0-.03.08-.09.14-.16.18-.07.04-.15.06-.24.05-.08,0-.17,0-.24-.05-.07-.04-.13-.1-.17-.18.12,0,.24,0,.35-.03l.04.03ZM12.07,19.28c.13,0,.27-.03.39-.07-.03.08-.08.14-.15.18-.07.04-.15.06-.23.05-.09,0-.17-.01-.25-.05s-.14-.1-.18-.18c.12.03.24.04.37.04l.04.03ZM13.43,18.71c.05-.19.06-.39.02-.59-.04-.19-.13-.38-.25-.53-.11-.14-.26-.25-.43-.31-.17-.06-.35-.08-.53-.05-.11-.19-.27-.34-.46-.45-.19-.11-.4-.16-.62-.16-.21,0-.41.05-.59.15-.18.11-.32.26-.41.45-.22,0-.43.04-.62.14-.19.1-.35.25-.47.43-.31.6-.11.88-.11.88-.13.13-.22.28-.28.44s-.08.35-.06.52c.09.31.28.59.54.79.03.19.11.37.24.51.13.14.3.24.48.28.33.07.67.03.98-.1v4.88s-.3.61-.73.61c0,0,0,.27.73.27,0,0,.1.54.3.54.1-.05.19-.12.24-.22.06-.1.08-.21.07-.32,0,0,.6,0,.72-.26,0,0-.68-.19-.68-.63v-4.88c.13.08.26.14.41.18.08,0,1.02,0,1.18-.86.17-.11.31-.26.42-.43.11-.17.17-.37.19-.57-.02-.28-.14-.55-.34-.75l.04.03ZM7.03,22.66v.45l.23.46.24-.58-.08-.35.2-.1.2.2-.45,1.79.07.49v.27l.14.18v.2l-.15.18v.68h.72l-.39-.31v-.26l.39-.14.11-.97,1.25-.3.38-.79.3-.23.29-.12.08-.39.31-.33v-.42c-.27.3-.56.58-.87.84-.06.05-.13.07-.2.07s-.15-.03-.2-.07c0-.08,0-.15,0-.23l.27-.08v-.31s-.05-.02-.07-.02-.05,0-.07.02c0,.18-.19.1-.19,0s.2-.12.24-.14c.04-.01,0-.24,0-.24l-.15-.12h-.29c-.26-.16-.88.2-.88.2.03.1.03.2,0,.3-.06.19-.1.39-.12.58.03.15.08.31.15.45v.35c-.28.09-.52.28-.68.53l.35-1.66-.48-.57-.65.48ZM9.25,22.24v-.15h.23l-.23.15ZM8.97,22.96l.16-.22v.45l-.16-.23ZM8.72,23.45l.16-.23v.46l-.16-.23ZM8.72,22.47l.16-.22v.45l-.16-.23ZM8.51,22.96l.16-.22v.45l-.16-.23ZM8.51,24.98l.54.34v.5l-.41.18v.29l.42.33h-.72l.16-1.63ZM10.88,23.21l-.42.45-.31.12-.29.57.3-.08.34-.22.38-.42v-.42ZM14.77,22.19l-.48.57.41,1.65h-.07c-.16-.26-.4-.44-.69-.53v-.35c.07-.15.12-.3.16-.45-.02-.2-.06-.39-.12-.58-.03-.1-.03-.2,0-.3,0,0-.61-.37-.88-.2h-.27l-.15.12s-.07.24,0,.24.24,0,.24.14-.15.23-.19,0c-.02-.01-.05-.02-.07-.02s-.05,0-.07.02v.31s.26,0,.27.08v.23c-.06.05-.13.07-.21.07s-.15-.03-.21-.07c-.31-.26-.6-.54-.87-.84v.42l.34.33.07.39.3.12.3.23.38.79,1.2.24.12.97.39.19v.3l-.39.31h.75v-.68l-.15-.18v-.2l.12-.18v-.76l-.46-1.79.22-.2.19.1-.08.35.24.58.23-.46v-.49l-.56-.46ZM12.96,22.19h.23v.15l-.23-.15ZM13.3,23.25v-.45l.16.22-.16.23ZM13.57,23.74v-.46l.16.23-.16.23ZM13.57,22.76v-.45l.16.22-.16.23ZM13.77,23.25v-.45l.16.22-.16.23ZM13.91,25.03l-.54.34v.5l.42.18v.29l-.44.33h.8l-.24-1.63ZM11.56,23.21l.42.45.31.12.3.57-.35-.08-.34-.22-.38-.42.04-.42ZM17.42,28.02l-.41-.41-.37.37-.33-.37-.41.41.35.37-.35.37.41.42.35-.37.37.37.41-.42-.37-.37.34-.37ZM6.4,28.02l-.41-.41-.35.37-.37-.37-.41.41.37.37-.37.37.41.42.37-.37.35.37.41-.42-.37-.37.37-.37ZM17.85,14.49l-.41-.41-.37.37-.37-.37-.41.41.37.37-.35.37.41.42.37-.37.37.37.41-.42-.37-.37.35-.37ZM6.16,14.49l-.41-.41-.31.37-.35-.37-.41.41.35.37-.35.37.41.42.35-.37.37.37.41-.42-.37-.37.31-.37ZM21.43,7.76l-.41-.12h.12c.01-.09.01-.19,0-.29l-.29-.08c-.05.07-.1.15-.14.23,0,.01,0,.03,0,.04,0,.01,0,.03.01.04,0,.01.02.02.03.03.01,0,.03.01.04.01l-.26-.08c.08,0,.11,0,.2-.19l.58-1.02v1.45l.1-.03ZM21.18,7.18v-.53l-.26.45.26.08ZM20.53,7.49h-.26l-.1-.73-.1.42v.22l-.42-.12c.08,0,.11,0,.16-.16l.23-.92v-.23l.41.11c.05.01.1.03.14.06.04.03.08.07.1.12.02.05.04.1.04.15s0,.1-.02.15c0,.26-.2.29-.29.3l.11.68v-.03ZM20.16,6.61c.16,0,.23,0,.3-.24.07-.24,0-.33-.07-.35s-.08,0-.11,0l-.12.6ZM19.63,7.26l-.42-.11h.12c0-.1,0-.19,0-.29h-.29c-.05.08-.08.16-.11.24,0,.08,0,.11.08.12l-.26-.07s.1,0,.18-.2l.54-1.09v1.17c0,.24,0,.33.08.33l.07-.11ZM19.35,6.68v-.54l-.23.48.23.07ZM19.03,5.64c-.08,0-.14,0-.15.16l-.08.86c0,.35-.19.41-.34.41-.03,0-.06-.01-.09-.03-.03-.02-.05-.04-.07-.06-.02-.03-.03-.05-.04-.09,0-.03,0-.06,0-.09,0-.11.07-.15.11-.15.03.01.05.04.07.07.01.03.02.06.01.1v.12c0,.12,0,.07,0,.07,0,0,.1-.11.11-.16l.1-1.09q0-.14-.14-.15h.49l.03.04ZM18.21,7l-.41-.08v-.12h.12c0-.1,0-.2,0-.3h-.29c-.04.08-.07.17-.1.26,0,.01.01.02.02.03.01,0,.02.02.03.02.01,0,.03,0,.04,0,.01,0,.03,0,.04-.01h-.26c.08,0,.11,0,.16-.22l.42-1.14.11,1.17c0,.24,0,.31.1.33v.07ZM17.89,6.43v-.54l-.22.44.22.11ZM17.29,6.84l-.76-.11c.07,0,.11,0,.14-.15l.16-1.14c0-.15,0-.16-.1-.18h.46c-.1,0-.14,0-.15.18l-.12,1.03c0,.11,0,.12.1.14.1.01.3-.15.38-.38l-.11.61ZM16.49,6.74h-.44.12c0-.1,0-.2,0-.3h-.3c-.04.09-.07.18-.1.27,0,.08,0,.1.1.11h-.26c.08,0,.11,0,.16-.23l.53-1.45.14,1.18c0,.23,0,.31.11.33l-.07.1ZM16.21,6.17v-.54l-.19.5.19.04ZM14.85,6.47c.08,0,.12,0,.12-.14l.1-1.06q0-.14-.1-.16h.41c.35,0,.45.44.42.76-.03.33-.2.72-.54.71h-.41v-.11ZM15.19,6.35c0,.1,0,.14.07.14s.27-.11.31-.63c0-.2,0-.67-.2-.68-.2-.01-.08,0-.08.1l-.1,1.07ZM14.77,6.51h-.42v-.15h.11c0-.1,0-.19,0-.29h-.3c0,.09,0,.18,0,.27,0,.08,0,.1.1.1h-.27c.07,0,.1-.08.14-.24l.38-1.14.2,1.16c0,.23,0,.3.12.3h-.05ZM14.4,5.97l-.11-.53-.16.52h.27ZM14.04,5.03c-.07,0-.1,0-.1.18v.68c0,.14-.03.28-.08.41-.03.04-.07.08-.11.11-.05.03-.1.04-.15.04s-.11-.01-.15-.04c-.05-.03-.09-.06-.11-.11-.05-.13-.05-.27,0-.39v-.71q0-.19-.11-.2h.37c-.08,0-.14,0-.14.19v.72c0,.12,0,.42.18.42s.24-.31.24-.45v-.65c0-.14,0-.2-.12-.22h.3v.03ZM13.13,5.83c-.07,0-.11,0-.11.19v.27c-.11.08-.24.12-.37.12-.33,0-.45-.41-.44-.77s.22-.76.49-.75c.27.01.22.12.26.12s0,0,0-.1v.5c0-.19-.14-.45-.29-.45s-.26.3-.27.67c0,.16,0,.69.22.69s.15,0,.15-.15v-.27q0-.14-.14-.15h.45l.04.07ZM11.11,4.87h.76v.45c0-.31-.11-.37-.29-.38-.18-.01-.1,0-.11.11v.5c.12,0,.19,0,.22-.31v.73c0-.27-.08-.34-.2-.34v.53c0,.1,0,.12.11.12s.27,0,.35-.38v.45h-.86c.08,0,.12,0,.12-.15v-1.13c0-.14,0-.15-.12-.15v-.05ZM10.2,6.31c.08,0,.1,0,.1-.15v-1.07c0-.14-.07-.14-.11-.15h.39c.37,0,.49.37.49.71s-.12.75-.46.77h-.41v-.11ZM10.51,6.16c0,.08,0,.12.08.12s.29-.15.29-.67c0-.2,0-.67-.27-.67s-.08,0-.08.11v1.1ZM9.04,6.36c.08,0,.11,0,.11-.15v-1.06c0-.14-.07-.14-.11-.15h.34c.37,0,.5.35.52.68.01.33-.11.68-.38.71h-.42l-.05-.03ZM9.35,6.2c0,.08,0,.12.08.12s.26-.15.23-.67c0-.2,0-.65-.29-.65s-.07,0-.07.11l.04,1.09ZM9.01,6.42h-.42s.1,0,.1-.1,0-.2-.08-.27h-.3c0,.09,0,.18,0,.27,0,.08.08.08.12.08h-.27s.08-.1.11-.26l.22-1.18.37,1.1c0,.22.1.29.16.29v.07ZM8.58,5.94l-.16-.5-.1.52h.26ZM7.29,6.51c.08,0,.11,0,.1-.15v-1.06q0-.14-.12-.14h.41c.37,0,.5.34.52.68.01.34-.1.73-.44.77h-.41l-.05-.11ZM7.6,6.35c0,.08,0,.12.08.12s.26-.16.23-.68c0-.19-.07-.65-.3-.64s-.08,0,0,.11v1.09ZM7.26,6.57l-.46.04s.11,0,.11-.16l-.11-1.11q0-.14-.14-.14h.46s-.12,0-.11.16l.07,1.06q0,.14.14.14h.04ZM6.61,5.59c0-.14-.15-.37-.3-.34-.15.03-.14.08-.12.22,0,.05.03.09.06.13.03.04.07.07.12.09l.2.12c.06.04.12.09.16.16.04.06.07.14.07.21,0,.18,0,.44-.27.48-.08.01-.15.01-.23,0v.08-.5c0,.2.16.44.33.41s.14-.23.12-.26c-.01-.03-.08-.18-.18-.23h-.1c-.08-.04-.14-.1-.19-.17s-.08-.15-.09-.24c0-.14,0-.41.24-.45.24-.04.16,0,.2,0s0,0,0-.08v.45l-.03-.07ZM6.15,6.72h-.27l-.35-.6h-.08v.44q0,.16.14.18v.07h-.33c.1,0,.12,0,.1-.2l-.12-.95q0-.19-.14-.19h0s.41-.01.41-.01c.05-.01.1-.01.15,0,.05.01.1.03.14.06.04.03.07.07.1.12.02.05.03.1.04.15.02.07.01.15-.02.22-.03.07-.08.13-.14.17l.34.58.05-.03ZM5.44,6.05c.18,0,.23-.08.19-.35-.04-.27-.04-.26-.19-.26s0,0,0,.07v.54ZM4.08,5.57l.86-.14.07.42c-.08-.3-.19-.33-.37-.3-.18.03-.1,0-.07.12l.08.48c.12,0,.19-.08.16-.35l.12.71c0-.26-.14-.3-.27-.27l.07.56c0,.1,0,.11.14.1.14-.01.24-.11.27-.44v.45l-.75.15c.07,0,.11,0,.08-.18l-.18-1.01c0-.14-.08-.12-.14-.12l-.08-.18ZM4.08,5.57v1.5l-.6-1.13c0-.11-.08-.11-.14-.11l.44-.1c-.08,0-.12,0-.1.12s0,.11.07.16l.33.58v-.71s0-.09,0-.14q0-.08-.14,0l.27-.07-.14-.12ZM3.56,7.17l-.44.12s.11,0,.08-.18l-.23-.99c0-.14-.1-.14-.16-.12l.45-.12s-.12,0-.08.18l.23.99c0,.12.08.12.16.11h-.01ZM2.2,7.42c.08,0,.11,0,.07-.19l-.23-.94c-.11-.12-.12-.12-.15-.12l.27-.08.65.71-.1-.61c0-.12,0-.19-.16-.18h.27c-.11-.03-.11.03-.11.12l.3,1.17-.88-.91.22.79c0,.15.07.18.16.16l-.29.08h-.03ZM1.82,6.2s-.08.07,0,.2l.2.63c.03.13.03.26,0,.39-.01.05-.04.1-.08.14-.04.04-.08.07-.13.09-.05.02-.1.03-.15.03s-.1-.01-.15-.03c-.08,0-.12-.12-.19-.33l-.19-.69c0-.18-.08-.16-.16-.15l.38-.19c-.07,0-.11,0,0,.22l.2.65c0,.11.12.38.3.33.18-.05.14-.38.1-.5l-.19-.6c0-.12-.08-.18-.19-.15l.27-.1-.03.05ZM11.34,8.06c.27.01.53.11.74.27.22.16.38.38.47.63-.33-.3-.76-.47-1.21-.49v-.41ZM11.07,8.06v.41c-.45.02-.88.19-1.21.49.09-.25.26-.48.47-.64.22-.16.48-.25.75-.26h-.01ZM9.71,9.42c.42-.35.96-.51,1.51-.46.28-.01.55.03.81.13.26.1.5.24.7.43v.68c-.43.33-.97.49-1.51.45-.55.04-1.09-.12-1.52-.45v-.77ZM9.95,10.78v-.08c.34.22.73.36,1.13.41v.23c-.13.02-.25.02-.38,0l-.11.23s.08.15.6.15.6-.15.6-.15l-.1-.26c-.13.02-.25.02-.38,0v-.18c.41-.05.79-.19,1.14-.41v.08c0,.08-.42.49-.42.54v.45c-.09.13-.21.24-.35.32-.14.08-.3.12-.46.12-.16.01-.32-.02-.47-.08-.15-.06-.28-.16-.38-.29v-.52c-.14-.17-.28-.32-.44-.48v-.1ZM15.77,25.83c.06.48-.06.96-.34,1.36-.15.16-.34.28-.55.35-.21.07-.43.09-.65.06h-1.63c-.52.04-1.01.27-1.36.65-.17-.2-.38-.36-.61-.47-.23-.11-.49-.17-.75-.18h-1.73c-.2.02-.4-.01-.59-.08-.19-.07-.36-.18-.5-.33-.25-.32-.38-.72-.35-1.13v-9.75h9.05v9.52ZM16.17,13.43h2.3v14.41c.02.62-.17,1.23-.54,1.73-.2.2-.43.36-.7.47-.26.1-.54.15-.83.13h-3.11c-.78.04-1.51.37-2.07.91-.56-.55-1.3-.87-2.08-.91h-3.1c-.28.02-.56-.03-.83-.13s-.5-.26-.69-.47c-.38-.49-.57-1.1-.56-1.73v-14.45h2.3c.1.33.29.63.54.87.25.24.56.41.9.49l.84.11c.33.03.63.18.86.42.19.15.56.5.63.56.04.04.08.07.12.1h-3.78v10.22c0,.45.18.88.48,1.22.31.3.7.48,1.13.52h1.97c.49.09.94.33,1.28.71.35-.39.84-.64,1.36-.71h1.86c.24,0,.48-.06.69-.16.22-.1.41-.24.57-.42.28-.36.43-.81.42-1.26v-10.13h-3.89l.12-.1s.42-.41.61-.56c.23-.23.53-.38.86-.42l.84-.11c.34-.08.66-.24.93-.48.26-.24.46-.54.57-.87v.04ZM16.51,13.15l-.11-.07h.18l-.39-.44c.13,0,.26,0,.39,0l-.49-.5s.52.07.49,0c-.03-.07-.48-.48-.45-.46.03.01.44.08.42,0-.01-.08-.42-.44-.42-.44,0,0,.45.1.42,0-.03-.1-.46-.37-.42-.37l.41.11-.22-.46,3.81,1.92h-.26l.41.41h-.44l.44.39h-.42l.41.41s-.45,0-.42,0,.46.45.42.44c-.04-.01-.46,0-.42,0s.45.42.39.42c-.14-.01-.28-.01-.42,0,.11.12.22.26.31.39l-1.36-.71v-1.09l-2.26.04ZM6.59,13.15c.13-.24.2-.5.2-.77v-2.37c.01-.21-.05-.42-.18-.59-.13-.17-.32-.28-.52-.32l-3.02-1.05c2.68-.56,5.42-.82,8.16-.79,2.74-.03,5.47.23,8.16.79l-3.07,1.05c-.21.04-.39.16-.52.32-.13.17-.2.38-.18.59v2.37c0,.26.08.52.23.73l-3.47-1.36s-.1-.26,0-.37c.27-.26.47-.58.58-.94.11-.04.2-.11.27-.2.07-.09.1-.2.1-.32,0-.11-.01-.21-.07-.31-.05-.09-.13-.17-.23-.21,0,0-.31-1.7-1.81-1.71-1.5,0-1.84,1.71-1.84,1.71-.1.04-.18.12-.24.21-.06.09-.08.2-.08.31,0,.12.04.23.11.32.07.09.16.16.27.2.11.36.31.68.58.94.14.11,0,.37,0,.37l-3.45,1.36v.04ZM3.67,14.33l-1.36.69s.27-.37.31-.39c-.14-.01-.28-.01-.42,0,0,0,.37-.39.39-.42.03-.03-.37,0-.41,0s.39-.39.41-.44-.41,0-.41,0l.41-.41h-.38l.42-.39h-.44l.42-.41h-.27l3.81-1.92c-.08.15-.17.29-.27.42.14-.06.28-.12.41-.19,0,0-.39.44-.41.48-.01.04.41,0,.41,0-.15.14-.28.28-.41.44h.41s-.41.41-.44.46.49,0,.49,0c0,0-.46.49-.49.5.13,0,.26,0,.39,0l-.41.34h.19l-.12.07h-2.24v1.17ZM10.55,4.08C.3,4.2,0,6.68,0,6.68v2.72c0,.9.31.88.65,1.05.34.16,2.87.97,2.87.97v.12l-1.16.57c-.18.08-.34.2-.46.37-.12.16-.18.36-.19.56v2.72c-.02.14,0,.28.06.41.06.12.17.23.29.29l.79.64-2.58,1.71,1.78.58v1.96l1.62-1.07v7.56c-.02.69.2,1.36.63,1.9.22.24.49.42.79.54.3.12.62.17.95.15h3.1c.77.11,1.5.45,2.08.97.57-.53,1.29-.87,2.07-.97h3.11c.32.02.64-.03.94-.15.3-.12.57-.3.79-.54.42-.54.65-1.22.63-1.9v-7.55l1.62,1.06v-1.96l1.77-.58-2.57-1.7s.5-.42.79-.64c.13-.06.23-.16.29-.29.06-.12.09-.27.06-.41v-2.72c-.01-.2-.08-.39-.19-.56-.12-.16-.27-.29-.46-.37l-1.17-.57v-.15s2.72-.87,2.88-.97c.16-.1.65-.15.65-1.05v-2.72s-.31-2.46-10.55-2.58v-.54h-.24v-.91h.86v.22h.83v-1.36h-.84v.2h-.84v-.87h.24v-.82h-1.36v.82h.24v.87h-.8v-.2h-.84v1.36h.83v-.22h.86v.91h-.24v.54ZM21.84,6.8s-.26.1-.19.12.23.27.19.26c-.04-.01-.24,0-.19.1.05.1.27.3.22.29s-.27,0-.23.08.27.31.22.31-.34,0-.24,0,.3.41.24.39-.37,0-.26,0c.08.12.14.24.18.38-2.62-1.93-10.43-1.82-10.55-1.82s-7.94-.11-10.56,1.88c.03-.14.09-.27.18-.38.11-.1-.22,0-.27,0s.16-.33.26-.39c.1-.07-.2,0-.26,0s.18-.26.22-.31c.04-.05-.18-.19-.23-.18-.05.01.16-.24.23-.29.07-.04-.16-.11-.2-.1s.12-.22.2-.26c.08-.04-.14-.08-.2-.08s.08-.19.14-.22c.05-.03-.16-.19-.18-.2-.01-.01,1.54-1.93,10.69-1.93s10.67,1.93,10.67,1.93c0,0-.24.14-.19.16s.22.26.14.26ZM13.13,2.72h-.45v-.26h-1.22v1.21h.23v.41h-.95v-.41h.22v-1.21h-1.22v.18h-.45v-.94h.49v.19h1.18V.67h-.22V.22h.95v.45h-.23v1.22h1.18v-.19h.49v1.02ZM14.85,14.41c-.41.14-.84.23-1.28.27-.4.08-.75.3-1.01.61-.16.21-.37.37-.6.49-.23.12-.49.19-.75.2-.26-.01-.52-.08-.75-.2-.23-.12-.44-.29-.61-.49-.26-.32-.62-.53-1.02-.61-.43-.04-.86-.13-1.26-.27-.4-.19-.73-.5-.95-.88l3.06-1.29-1.09,1.2,1.92-1.2-.58,2,1.09-1.84.2,2.56.22-2.54,1.09,1.84-.58-2.01,1.93,1.21-1.09-1.21,3.02,1.21c-.22.38-.54.69-.94.88v.08Z"/>
      <path class="cls-1" d="M31.76.26h-.92v30.88h.92V.26Z"/>
      <path class="cls-1" d="M39.43,15.34c0-6.91,5.29-11.9,12.39-11.9,1.71-.06,3.41.26,4.98.93,1.57.67,2.98,1.67,4.12,2.94l-2.72,2.61c-.78-.87-1.73-1.56-2.79-2.03-1.06-.47-2.22-.7-3.38-.69-1.09-.05-2.18.12-3.2.51-1.02.39-1.95.99-2.72,1.75-.78.77-1.39,1.69-1.79,2.7-.4,1.01-.59,2.1-.56,3.19-.04,1.09.15,2.18.56,3.19.4,1.01,1.01,1.93,1.79,2.7.78.77,1.7,1.36,2.72,1.75,1.02.39,2.11.57,3.2.51,1.16.02,2.32-.21,3.38-.68,1.07-.47,2.02-1.16,2.79-2.04l2.72,2.72c-1.17,1.24-2.6,2.21-4.18,2.85-1.58.63-3.29.92-4.99.82-7.07,0-12.3-4.95-12.3-11.86Z"/>
      <path class="cls-1" d="M64.34,16.83V3.78h4.3v12.88c0,4.76,2.15,6.8,5.87,6.8s5.85-2.05,5.85-6.8V3.78h4.23v13.05c0,6.73-3.79,10.4-10.1,10.4s-10.14-3.67-10.14-10.4Z"/>
      <path class="cls-1" d="M88.59,15.34c0-6.91,5.29-11.9,12.39-11.9,1.72-.06,3.42.25,5.01.92,1.58.67,3,1.68,4.14,2.95l-2.72,2.61c-.78-.87-1.73-1.56-2.79-2.03-1.06-.47-2.22-.7-3.38-.69-1.09-.05-2.18.13-3.19.52-1.02.39-1.94.99-2.72,1.75-.78.77-1.38,1.68-1.79,2.7-.4,1.01-.59,2.1-.56,3.19-.04,1.09.15,2.17.56,3.19.4,1.01,1.01,1.93,1.79,2.7.78.77,1.7,1.36,2.72,1.75,1.02.39,2.1.57,3.19.52,1.16.02,2.32-.21,3.39-.68,1.07-.47,2.02-1.17,2.79-2.04l2.79,2.72c-1.18,1.25-2.62,2.22-4.22,2.86-1.6.63-3.31.91-5.03.81-7.07,0-12.36-4.95-12.36-11.86Z"/>
      <path class="cls-1" d="M131.26,23.3v3.6h-17.33V3.79h16.87v3.59h-12.59v6.01h11.18v3.53h-11.18v6.38h13.05Z"/>
      <path class="cls-1" d="M151.75,21.55h-11.56l-2.28,5.36h-4.42l10.4-23.11h4.23l10.44,23.11h-4.49l-2.32-5.36ZM150.39,18.18l-4.36-10.1-4.32,10.1h8.69Z"/>
    </g>
  </g>
</svg>