<?xml version="1.0" encoding="UTF-8"?>
<svg id="Layer_2" data-name="Layer 2" xmlns="http://www.w3.org/2000/svg" viewBox="0 0 26.14 26.14">
  <defs>
    <style>
      .cls-1 {
        fill: #fcfcfc;
      }
    </style>
  </defs>
  <g id="Layer_5" data-name="Layer 5">
    <path class="cls-1" d="M0,4.36C0,6.75,1.96,8.71,4.36,8.71,1.96,8.71,0,10.67,0,13.07H0C0,15.47,1.96,17.43,4.36,17.43c-2.4,0-4.36,1.96-4.36,4.36s1.96,4.36,4.36,4.36h17.43c2.4,0,4.36-1.96,4.36-4.36h0c0-2.4-1.96-4.36-4.36-4.36,2.4,0,4.36-1.96,4.36-4.36s-1.96-4.36-4.36-4.36c2.4,0,4.36-1.96,4.36-4.36s-1.96-4.36-4.36-4.36H4.36C1.96,0,0,1.96,0,4.36Z"/>
  </g>
</svg>