<?xml version="1.0" encoding="UTF-8"?>
<svg id="Layer_2" data-name="Layer 2" xmlns="http://www.w3.org/2000/svg" viewBox="0 0 33.03 34.55">
  <defs>
    <style>
      .cls-1 {
        fill: #f8c158;
      }
    </style>
  </defs>
  <g id="Layer_5" data-name="Layer 5">
    <path class="cls-1" d="M32.5,20.87c-2.06-1.95-2.06-5.24,0-7.19h0c1.03-.98.47-2.71-.94-2.89h0c-2.82-.37-4.74-3.02-4.23-5.82h0c.26-1.39-1.22-2.47-2.46-1.79h0c-2.49,1.36-5.62.34-6.84-2.22h0c-.61-1.28-2.43-1.28-3.04,0h0c-1.22,2.56-4.34,3.58-6.84,2.22h0c-1.25-.68-2.72.39-2.46,1.79h0c.52,2.79-1.41,5.45-4.23,5.82h0c-1.41.18-1.97,1.92-.94,2.89h0c2.06,1.95,2.06,5.24,0,7.19h0c-1.03.98-.47,2.71.94,2.89h0c2.82.37,4.74,3.02,4.23,5.82h0c-.26,1.39,1.22,2.47,2.46,1.79h0c2.49-1.36,5.62-.34,6.84,2.22h0c.61,1.28,2.43,1.28,3.04,0h0c1.22-2.56,4.34-3.58,6.84-2.22h0c1.25.68,2.72-.39,2.46-1.79h0c-.52-2.79,1.41-5.45,4.23-5.82h0c1.41-.18,1.97-1.92.94-2.89h0Z"/>
  </g>
</svg>