<?xml version="1.0" encoding="UTF-8"?>
<svg id="Layer_2" data-name="Layer 2" xmlns="http://www.w3.org/2000/svg" viewBox="0 0 26.14 26.14">
  <defs>
    <style>
      .cls-1 {
        fill: #fcfcfc;
      }
    </style>
  </defs>
  <g id="Layer_5" data-name="Layer 5">
    <path class="cls-1" d="M21.78,0c-2.4,0-4.36,1.96-4.36,4.36C17.43,1.96,15.47,0,13.07,0h0c-2.4,0-4.36,1.96-4.36,4.36C8.71,1.96,6.75,0,4.36,0S0,1.96,0,4.36v17.43c0,2.4,1.96,4.36,4.36,4.36h0c2.4,0,4.36-1.96,4.36-4.36,0,2.4,1.96,4.36,4.36,4.36,2.4,0,4.36-1.96,4.36-4.36,0,2.4,1.96,4.36,4.36,4.36,2.4,0,4.36-1.96,4.36-4.36V4.36C26.14,1.96,24.18,0,21.78,0Z"/>
  </g>
</svg>