<?xml version="1.0" encoding="UTF-8"?>
<svg id="Layer_2" data-name="Layer 2" xmlns="http://www.w3.org/2000/svg" viewBox="0 0 31.69 31.69">
  <defs>
    <style>
      .cls-1 {
        fill: #f76537;
      }
    </style>
  </defs>
  <g id="Layer_5" data-name="Layer 5">
    <path class="cls-1" d="M30.31,15.06c-3.12-1.77-4.64-5.44-3.68-8.89l.42-1.53-1.53.42c-3.46.96-7.13-.56-8.89-3.68l-.78-1.38-.78,1.38c-1.77,3.12-5.44,4.64-8.89,3.68l-1.53-.42.42,1.53c.96,3.46-.56,7.13-3.68,8.89l-1.38.78,1.38.78c3.12,1.77,4.64,5.44,3.68,8.89l-.42,1.53,1.53-.42c3.46-.96,7.13.56,8.89,3.68l.78,1.38.78-1.38c1.77-3.12,5.44-4.64,8.89-3.68l1.53.42-.42-1.53c-.96-3.46.56-7.13,3.68-8.89l1.38-.78-1.38-.78Z"/>
  </g>
</svg>