<?xml version="1.0" encoding="UTF-8"?>
<svg id="Layer_2" data-name="Layer 2" xmlns="http://www.w3.org/2000/svg" viewBox="0 0 111.78 35.73">
  <defs>
    <style>
      .cls-1 {
        fill: #191919;
      }
    </style>
  </defs>
  <g id="Layer_5" data-name="Layer 5">
    <path class="cls-1" d="M109.52,14.46c-2.41-2.79-5.61-4.67-8.98-6.06-4.02-1.65-8.25-2.85-12.49-3.83-7.24-1.67-14.62-2.57-22.02-3.2-.03-.35-.26-.71-.71-.76-9.17-.96-18.41-.77-27.54.54-8.1,1.17-16.56,2.94-23.93,6.63-3.47,1.74-6.68,4.02-9.36,6.84C2.04,17.22-.18,20.73.01,24.46c.18,3.46,2.54,5.54,5.57,6.75,4.09,1.62,8.44,2.46,12.79,3.01,9.39,1.19,18.94,1.52,28.4,1.51,9.5-.01,19-.53,28.45-1.55,8.65-.94,17.31-2.4,25.47-5.52,2.01-.77,3.99-1.63,5.91-2.59,1.42-.71,2.79-1.54,3.81-2.78,2.39-2.89,1.36-6.23-.89-8.83ZM103.31,25.97c-7.62,3.39-15.86,5.16-24.1,6.24-17.24,2.25-34.81,2.58-52.14,1.33-4.21-.31-8.44-.65-12.59-1.41-2.05-.38-4.08-.86-6.06-1.5-1.68-.54-3.54-1.1-4.93-2.23-3.27-2.65-1.88-7.26.09-10.25,2.04-3.09,5.14-5.6,8.27-7.52,6.42-3.95,14.05-5.8,21.37-7.19,6.7-1.28,13.53-1.92,20.35-1.93.09.27.32.5.68.52,8.46.55,16.94,1.09,25.32,2.43,4.19.67,8.36,1.53,12.45,2.68,3.64,1.02,7.36,2.16,10.71,3.93,1.61.85,3.14,1.88,4.47,3.14,1.4,1.32,3.06,3.07,3.16,5.11.18,3.74-4.26,5.43-7.04,6.67Z"/>
  </g>
</svg>