<?xml version="1.0" encoding="UTF-8"?>
<svg id="Layer_2" data-name="Layer 2" xmlns="http://www.w3.org/2000/svg" viewBox="0 0 106.88 35.75">
  <defs>
    <style>
      .cls-1 {
        fill: #191919;
      }
    </style>
  </defs>
  <g id="Layer_5" data-name="Layer 5">
    <path class="cls-1" d="M104.84,14.47c-2.31-2.86-5.45-4.81-8.8-6.23-3.8-1.61-7.79-2.79-11.79-3.75-6.91-1.66-13.96-2.54-21.04-3.15-.03-.35-.26-.71-.71-.76-8.8-.94-17.68-.73-26.42.62-7.79,1.2-15.95,3.03-22.96,6.76C7.31,11.06.19,16.8,0,24.01c-.09,3.46,1.98,5.89,5.05,7.19,3.89,1.65,8.06,2.52,12.24,3.07,8.95,1.18,18.07,1.5,27.08,1.48,9.14-.02,18.27-.56,27.35-1.6,8.33-.96,16.67-2.44,24.48-5.58,1.93-.78,3.83-1.64,5.68-2.61,1.38-.72,2.7-1.57,3.68-2.81,2.24-2.83,1.39-6.07-.72-8.67ZM98.6,25.9c-7.15,3.32-14.89,5.1-22.66,6.2-16.56,2.35-33.51,2.71-50.19,1.48-4.14-.31-8.3-.65-12.38-1.47-1.91-.38-3.79-.87-5.63-1.5-1.61-.55-3.38-1.14-4.63-2.35-2.88-2.78-1.38-7.28.48-10.17,1.92-2.97,4.81-5.44,7.76-7.35,6.01-3.89,13.2-5.78,20.14-7.2,6.49-1.33,13.12-2.01,19.74-2.05.09.27.32.49.67.52,8.13.53,16.28,1.06,24.33,2.39,4.03.67,8.03,1.53,11.95,2.68,3.46,1.01,6.99,2.15,10.15,3.92,1.53.86,2.96,1.89,4.21,3.14,1.32,1.32,2.82,3.04,2.9,5.01.15,3.73-4.06,5.45-6.85,6.74Z"/>
  </g>
</svg>