<?xml version="1.0" encoding="UTF-8"?>
<svg id="Layer_2" data-name="Layer 2" xmlns="http://www.w3.org/2000/svg" viewBox="0 0 161.97 25.05">
  <defs>
    <style>
      .cls-1 {
        fill: #0095a5;
      }
    </style>
  </defs>
  <g id="Logo_Original" data-name="Logo Original">
    <g>
      <path class="cls-1" d="M94.34,21.63c2.23-.11,4.03-1.1,5.72-2.35l.02,3.49c-2.95,1.91-6.53,2.7-10.02,2.08-4.27-.76-7.15-4.26-7.15-8.56,0-4.12,2.68-7.6,6.74-8.49,5.12-1.13,10.41,1.41,10.87,7.01l-12.01,3.04c.84,2.46,3.14,3.92,5.82,3.79ZM95.33,13.62c-.17-1.55-.86-3.09-2.28-3.83-1.56-.81-3.43-.01-4.25,1.5-.85,1.58-1.02,3.39-.64,5.08l7.17-2.75Z"/>
      <path class="cls-1" d="M36.53,17.46l.24,7.3h-5.58s.17-14.02.17-14.02l-3.08.25v-3.19s3.01.36,3.01.36c.02-1.8.09-3.23,1.01-4.8C34.31-.07,38.63-.3,42.54.28l-1.86,3.93c-1.36-.56-2.15-.86-3.51-.62-2.26.39-2.68,2.23-2.44,4.6l7.15-.44v3.13s-5.64-.31-5.64-.31l.28,6.89Z"/>
      <path class="cls-1" d="M115.01,23.99c-2.08.92-4.45,1.3-6.72.92-2.83-.48-3.76-2.68-3.83-5.46l-.21-9.03-2.73.19v-2.85s2.62.15,2.62.15l-.22-4.52,5.22-1.17v5.7s5.87-.16,5.87-.16l.02,2.71-5.91-.33.12,7.47.25,2.68c.28,1.17,1.18,1.9,2.43,1.91,1.05,0,2.08-.39,3.05-.88l.04,2.69Z"/>
      <path class="cls-1" d="M131.25,18.5c.91,2.17,2.96,3.31,5.27,3.19,1.95-.1,3.54-1.03,5.17-2.31l.04,3.46c-4.91,3.37-12.79,3.14-15.41-2.43-1.98-4.2-.35-9.1,3.79-11.3,3.47-1.84,7.58-1.51,11.53-.79l.04,4.63-3-1.81c-.92-.5-1.87-.96-2.89-1.23-1.75-.46-3.37.3-4.23,1.88-1.1,2.02-1.23,4.5-.31,6.71Z"/>
      <polygon class="cls-1" points="123.49 24.75 117.84 24.77 118.03 18.47 117.77 7.8 123.02 8.41 122.94 19.39 123.49 24.75"/>
      <path class="cls-1" d="M80.51,12.37c-1.2-3.28-4.39-5.06-7.85-4.54-2.22.33-4.02,1.43-5.76,3.04l.11-10.85-5.27,1.19c.2,3.14.28,6.35.27,9.73l-.23,13.82h4.91s.16-1.9.16-1.9c1.09,1.06,2.27,1.75,3.75,2.04,3.67.71,7.33-.93,9.22-4.26,1.48-2.6,1.64-5.53.69-8.26ZM74.05,21.08c-1.1,1.46-2.99,2.28-4.79,1.66-3.14-1.08-2.14-6.13-2.36-9.53.96-1.45,2.34-2.59,4.06-2.9,1.96-.34,3.66.63,4.35,2.51.99,2.73.51,5.9-1.25,8.25Z"/>
      <path class="cls-1" d="M25.82.28l-5.28,1.19c.19,3.31.26,6.54.26,9.89l-.17,13.4h5.6s-.46-6.17-.46-6.17l.06-18.3Z"/>
      <g id="q77mdl">
        <polygon class="cls-1" points="93.77 3.83 92.89 4.66 90.39 4.64 93.17 .04 97.8 .04 95.96 1.78 93.77 3.83"/>
      </g>
      <ellipse class="cls-1" cx="120.53" cy="2.78" rx="3" ry="2.55" transform="translate(33.34 86.05) rotate(-45)"/>
      <path class="cls-1" d="M159.1,8.03l-12.88-.29v3.62s9.4-1.33,9.4-1.33l.17,5.03c-2.81-1.04-5.73-1.17-8.43-.01-1.62.76-2.96,1.87-3.54,3.56-.78,2.27.08,4.73,2.39,5.76,3.56,1.59,7.45.32,9.74-2.8l.11,3.19h5.91s-2.87-16.72-2.87-16.72ZM154.45,20.36c-.93,1.99-3.01,2.98-4.66,2.22-1.65-.77-2.23-3-1.3-4.99.93-1.99,3.01-2.98,4.66-2.22,1.65.77,2.23,3,1.3,4.99Z"/>
      <path class="cls-1" d="M57.16,8.03l-12.88-.29v3.62s9.4-1.33,9.4-1.33l.17,5.03c-2.81-1.04-5.73-1.17-8.43-.01-1.62.76-2.96,1.87-3.54,3.56-.78,2.27.08,4.73,2.39,5.76,3.56,1.59,7.45.32,9.74-2.8l.11,3.19h5.91s-2.87-16.72-2.87-16.72ZM52.51,20.36c-.93,1.99-3.01,2.98-4.66,2.22-1.65-.77-2.23-3-1.3-4.99.93-1.99,3.01-2.98,4.66-2.22,1.65.77,2.23,3,1.3,4.99Z"/>
      <path class="cls-1" d="M15.56,8.03l-12.88-.29v3.62s9.4-1.33,9.4-1.33l.17,5.03c-2.81-1.04-5.73-1.17-8.43-.01-1.62.76-2.96,1.87-3.54,3.56-.78,2.27.08,4.73,2.39,5.76,3.56,1.59,7.45.32,9.74-2.8l.11,3.19h5.91s-2.87-16.72-2.87-16.72ZM10.91,20.36c-.93,1.99-3.01,2.98-4.66,2.22-1.65-.77-2.23-3-1.3-4.99.93-1.99,3.01-2.98,4.66-2.22,1.65.77,2.23,3,1.3,4.99Z"/>
    </g>
  </g>
</svg>