<?xml version="1.0" encoding="UTF-8"?>
<svg id="Layer_2" data-name="Layer 2" xmlns="http://www.w3.org/2000/svg" viewBox="0 0 114.37 29.32">
  <defs>
    <style>
      .cls-1 {
        fill: #0095a5;
      }
    </style>
  </defs>
  <g id="Layer_5" data-name="Layer 5">
    <path class="cls-1" d="M111.18,13.55c-2.83-2.38-6.25-3.86-9.72-5.04-4.18-1.42-8.46-2.54-12.78-3.47-6.89-1.48-13.87-2.45-20.87-3.23-.07-.31-.29-.59-.68-.64C57.95,0,48.66-.3,39.41.32c-8.35.56-17.08,1.51-25.01,4.31-3.57,1.26-6.97,2.99-9.94,5.35C1.97,11.97-.67,15.22.16,18.65c.85,3.53,4.89,4.68,7.92,5.59,4.21,1.26,8.55,1.97,12.9,2.52,18.55,2.36,37.39,3.02,56.07,2.24,8.77-.37,17.6-1.15,26.12-3.37,2.12-.55,4.22-1.17,6.28-1.93,1.39-.51,2.8-1.18,3.81-2.29,2.54-2.79.28-5.89-2.07-7.87ZM105.47,23.44c-7.87,2.36-16.05,3.36-24.23,3.86-17.16,1.03-34.47.56-51.58-1.08-8.1-.78-16.69-1.43-24.32-4.48-1.63-.65-3.31-1.66-3.74-3.49-.44-1.86.63-3.79,1.78-5.17,2.35-2.81,5.88-4.75,9.2-6.16,7.1-3.01,15.08-4.04,22.7-4.78,6.61-.64,13.26-.81,19.89-.52.11.23.31.42.62.45,8.31.8,16.62,1.59,24.86,2.96,7.77,1.28,15.73,2.92,23.05,5.89,1.67.68,3.3,1.48,4.81,2.48,1.49.99,3.3,2.34,4.1,3.99,1.86,3.8-4.81,5.34-7.14,6.04Z"/>
  </g>
</svg>