<?xml version="1.0" encoding="UTF-8"?>
<svg id="Layer_2" data-name="Layer 2" xmlns="http://www.w3.org/2000/svg" viewBox="0 0 89.28 29.91">
  <defs>
    <style>
      .cls-1 {
        fill: #fbb7ff;
      }
    </style>
  </defs>
  <g id="Layer_5" data-name="Layer 5">
    <path class="cls-1" d="M87.68,9.9c-2.23-2.6-5.33-4.17-8.52-5.24-3.77-1.26-7.69-2.09-11.62-2.68-5.16-.78-10.36-1.12-15.57-1.28-.07-.3-.3-.56-.69-.58-7.42-.37-14.85.19-22.13,1.67-6.36,1.3-12.99,3.09-18.66,6.35C5.79,10.84-.32,15.95.01,21.99c.15,2.82,1.98,4.65,4.54,5.57,3.2,1.16,6.65,1.66,10.03,1.93,7.69.63,15.52.46,23.21.03,7.57-.42,15.11-1.25,22.59-2.47,6.89-1.13,13.74-2.69,20.15-5.53,2.61-1.16,5.84-2.42,7.66-4.73,1.75-2.23,1.23-4.85-.52-6.89ZM81.83,19.27c-5.72,2.83-11.92,4.51-18.17,5.7-13.66,2.59-27.68,3.61-41.57,3.36-3.39-.06-6.79-.15-10.15-.6-1.65-.22-3.28-.53-4.89-.96-1.4-.38-2.96-.76-4.09-1.72-2.48-2.1-1.35-5.81.09-8.16,1.59-2.59,4.04-4.76,6.54-6.43,5.61-3.74,12.51-5.63,19.03-7.03,4.35-.94,8.76-1.52,13.19-1.77.11.21.31.37.62.37,6.75.07,13.51.14,20.24.83,3.46.36,6.9.89,10.29,1.66,2.97.67,6.03,1.44,8.78,2.78,2.24,1.09,5.57,3.15,6.05,5.83.58,3.27-3.65,5-5.95,6.14Z"/>
  </g>
</svg>