<?xml version="1.0" encoding="UTF-8"?>
<svg id="Layer_2" data-name="Layer 2" xmlns="http://www.w3.org/2000/svg" xmlns:xlink="http://www.w3.org/1999/xlink" viewBox="0 0 309.43 166.43">
  <defs>
    <style>
      .cls-1 {
        fill: none;
      }

      .cls-2 {
        fill: #0095a5;
      }

      .cls-3 {
        clip-path: url(#clippath);
      }
    </style>
    <clipPath id="clippath">
      <rect class="cls-1" width="309.43" height="166.43"/>
    </clipPath>
  </defs>
  <g id="Layer_5" data-name="Layer 5">
    <g class="cls-3">
      <path class="cls-2" d="M282.17,141.56c-28.18-15.95-41.89-49.04-33.24-80.25l3.82-13.8-13.8,3.82c-31.21,8.65-64.3-5.06-80.25-33.24l-7.05-12.46-7.05,12.46c-15.95,28.18-49.04,41.89-80.25,33.24l-13.8-3.82,3.82,13.8c8.65,31.21-5.06,64.3-33.24,80.25l-12.46,7.05,12.46,7.05c28.18,15.95,41.89,49.04,33.24,80.25l-3.82,13.8,13.8-3.82c31.21-8.65,64.3,5.06,80.25,33.24l7.05,12.46,7.05-12.46c15.95-28.18,49.04-41.89,80.25-33.24l13.8,3.82-3.82-13.8c-8.65-31.21,5.06-64.3,33.24-80.25l12.46-7.05-12.46-7.05Z"/>
    </g>
  </g>
</svg>