<?xml version="1.0" encoding="UTF-8"?>
<svg id="Layer_2" data-name="Layer 2" xmlns="http://www.w3.org/2000/svg" viewBox="0 0 91.82 182.09">
  <g id="Layer_5" data-name="Layer 5">
    <g>
      <path d="M51.37,165.61l-4.09-13.52-5.05-14.69c-3.57,7.74-7.46,14.92-12.16,21.79l-3.02,3.84,4.25,9.56,3.76,8.27-.03.93c0,.22-.66.28-.94.29-6.34-1.99-12.45-4.15-18.6-6.63-5.77-2.38-10.91-5.5-15.38-9.87-.24-.38,0-1.27.21-1.66l4.26-7.95c2.14-4.47,4.03-8.88,5.74-13.57l10.14-27.8c1.7-4.67,2.9-9.33,3.62-14.29-10.17-7.73-12.54-20.24-7.37-31.82,2.03-4.54,4.94-8.45,8.64-11.88-10.8-4.74-14.09-17.39-8.29-27.02,2.71-4.5,7.54-8.02,13.22-8.88l-2.69-7.38c-1.07-2.92-.89-5.95,1-8.56C31.46.8,36.72-.92,41.38.48c3.26.98,4.92,3.29,6.02,6.32l15.28,42.2c3.41-2.1,8.77-2.89,10.96.21,2.24,3.16,3.72,6.84,4.14,10.72.35,3.21-.93,6.27-3.56,8.03l-3.86,2.21,6.33,17.46c.98.46,1.85,1.07,2.34,1.94.52.93.18,1.79-.7,2.36l2.7,7.79-.95,32.11c-.11.45-.62.98-1.04.88l-13.73-19.63,8.21,45.92,9.57,4.89,8.14,4.06c.21.11.54.53.58.75.05.26-.35.72-.68.85-6.5,2.54-12.93,4.9-19.64,6.86-5.27,1.53-10.47,2.09-15.92,1.84-1.08-.05-1.7-.28-1.94-1.48l-2.27-11.18ZM45.96,6.45c-.76-2.27-2.28-3.59-4.25-4.52-4.55-1.71-9.86-.02-12.44,4.14-1.24,2.01-1.58,4.34-.65,6.6l17.33-6.22ZM63.6,63.11c-1.11.02-2.04-.26-2.4-1.01-.4-.81.03-1.71.55-2.53-1.03.16-2.29.3-2.94-.47-.73-.87-.02-2.01.6-2.85-.73-.11-1.63-.19-2.06-.58-1.68-1.56,1.87-4.73,4.22-6.06l-13.16-36.27-8.23,3.15,2.38,6.96c6.92,4.55,9.88,13.24,7.35,21.23l14.5,41.94c3.59-.99,7.03-.78,10.73.48l-7.57-20.92c-2.46.7-4.97.19-4.72-1.39.08-.54.42-1.13.74-1.68ZM40.84,22.38l-1.88-5.44-7.6,2.9.36.78c3.3-.31,6.09.53,9.12,1.75ZM38.8,55.49c5.21-2.2,8.82-6.74,10.16-11.66,1.62-5.95.27-11.92-3.55-16.35-6.72-7.8-18.38-7.55-25.22-.15-5.51,5.96-6.39,14.95-2.02,21.77,4.44,6.94,12.97,9.61,20.63,6.38ZM32.02,72.44c2.8,8.67,14.89,14.08,23.57,14.4l.24.78c2.51.41,4.95.04,7.3-.79l-13.89-40.16c-1.5,3.1-3.35,5.5-5.79,7.46l11.3,31.96c-8.5-.61-19.69-5.81-22.2-14.22-.19-.06-.63-.14-.61,0l.08.59ZM62.22,61.55c.58.27,1.39.27,1.85.04l6.54-3.17c.25-.12.84.04.94.27s-.11.81-.35.93l-3.5,1.83c-1.54.8-2.82,1.97-3.72,3.5,3.38,1.44,9.63-4,9.62-2.65v.92s-4.84,2.52-4.84,2.52l1.15,3.18,3.61-2.06c2.24-1.28,3.31-3.9,3.05-6.54-.35-3.69-1.76-7.19-3.83-10.23-1.48-2.17-5-1.97-7.48-.92-2.5,1.06-6.31,3.18-7.16,5.58,1.41.28,2.52-.25,3.67-.82l6.46-3.21c.34-.17,1.01.16,1.07.49.26,1.44-7.73,2.83-9.63,6.95.38.18,1.03.34,1.39.21l4.06-1.48,4.96-2.38c.23-.11.84.08.94.3s-.12.8-.35.92l-5.92,2.96c-1.15.57-2.18,1.54-2.54,2.84ZM70.67,93.83l-2.72-.06c-.24,0-.65-.39-.62-.62.02-.19.38-.63.58-.63h2.34c2.22-.02,4.49.59,6.35,1.68.24.14.95-.04.95-.26,0-.56-.57-1.41-1.11-1.69-2.44-1.27-4.94-1.72-7.71-1.53-.26.02-.81-.45-.7-.67.1-.21.46-.5.7-.61,2.63-.22,4.94.28,7.38,1.19.55.27,1.41.41,1.88.03-.12-.81-.81-1.48-1.55-1.78-2.3-.95-4.69-1.61-7.19-1.64-4.86-.06-8.62,2.5-13.47,1.59l.16,4.98-.48,8.29c2.79-.13,5.16-.94,7.53-2.06,3.6-1.7,7.5-2.21,11.31-.92l2.25.16c-.38-1.07-1.07-1.29-1.87-1.54-2.24-1.11-4.58-1.52-7.11-1.11-.29-.05-.83-.32-.78-.54.04-.19.24-.53.39-.72,3.27-.53,6.32.06,9.23,1.68,1.03-1.81-3.17-3.16-5.74-3.22ZM77.67,98.42l1.67.2-1.39-3.43c-.12,1,.17,1.61-.27,2.22-.21.29-.31.97,0,1.01ZM72.89,99.96c-1.51-.27-2.64-.32-3.96-.31l1.2,3.45,2.76-3.15ZM61.74,105.57l10.12,14.62,7.38-1.89.52-18.13c-.64-.23-1.48-.43-2.05-.43-.56.63-1.07.88-1.87.85l-1.3-.05c-1.71,1.08-3.03,2.47-3.77,4.34-.09.31-.21.64-.37.78s-.77-.05-.92-.23c-1.69-2.01-5.43-1.53-7.75.13ZM61.25,104.3c2.53-1.42,4.92-1.79,7.57-.97l-1.19-3.55-3.54,1.16-3.58,1.52.74,1.84ZM46.75,124.84c-1.04,3.78-2.25,7.17-3.78,10.78l5.35,15.62,4.32,14.22c5.36-.89,10.47-2.82,14.83-5.98,1.63-1.19,3.02-2.4,4.13-4.04l-8.12-45.08-3.06-4.51-1.19-2.98-3.88.54c0,.77-.11,1.5-.5,2.16-9.92,2.41-20.9,1.46-29.63-4.39-.57,3.44-1.21,6.61-2.28,9.8l-2.93,8.7-6.47,17.7-4.46,11.58c1.18,1.25,2.55,2.3,4.05,3.23,4.52,2.8,10.52,5.63,15.91,6.28,6.45-9.69,13.17-22.06,16.24-33.19.94-3.41,1.28-6.75,1.54-10.24.02-.28.21-.68.43-.77s.72.16.91.41c-.29,3.48-.67,6.69-1.42,10.17ZM29.37,171.48l-3.76-8.5-4.33-1.21c-3.41-1.38-6.58-2.94-9.72-4.84l-4.45-3.37c-1.74,3.92-3.75,7.58-5.91,11.35,4.32,4.07,9.18,7.12,14.68,9.36s11.44,4.38,17.54,6.3l-4.04-9.08ZM72.09,174.97c6.1-1.87,11.81-3.91,17.78-6.23l-2.79-1.37-8.64-4.33-5.37-2.78c-1.55,1.67-3.12,3.05-4.99,4.33-4.35,2.82-9.07,4.76-14.34,5.63l1.24,6.73c5.95.41,11.4-.31,17.11-1.97Z"/>
      <path d="M37.68,44.04c-2.94,1.32-10.33,1.36-10.22-.14.02-.23.48-.6.74-.54,7.84,1.63,15.59-2.03,16.96-9.96.04-.23.47-.63.67-.55s.45.45.55.74c-.82,4.89-4.03,8.77-8.69,10.45Z"/>
      <path d="M34.26,29.64l.17-.77c.05-.22.83-.04.97.17,1.45,2.18,4.17,3.57,5.46,2.36,1.38-1.29.33-3.89-1.41-5.61-.17-.17-.31-.85-.12-.89l.87-.2c1.44,1.38,2.41,2.96,2.55,4.96-.04.95-.33,1.95-.9,2.53-.72.73-1.79.91-2.83.85-2.06-.4-3.61-1.66-4.77-3.4Z"/>
      <path d="M28.01,39.9c-3.41-.63-5.68-4.55-4.42-4.69.23-.03.7.16.83.38,1.5,2.59,4.14,3.95,5.43,2.7,1.18-1.14.28-3.47-1.2-5.16-.14-.16-.17-.54-.12-.73s.73-.33.9-.18c2.29,1.99,2.97,5.62,1.21,7.07-.69.58-1.73.78-2.64.61Z"/>
    </g>
  </g>
</svg>