<?xml version="1.0" encoding="UTF-8"?>
<svg id="Layer_2" data-name="Layer 2" xmlns="http://www.w3.org/2000/svg" viewBox="0 0 152.89 149.15">
  <g id="Layer_5" data-name="Layer 5">
    <g>
      <path d="M60.63,144c-6.13.12-10.55,2.87-13.15,2.52-1.69-.22-2.5-2.02-2.02-3.38l-4.07-1.8-2.58-1.31-2.1-1.19c-2.2-1.24-4.22-2.63-6.06-4.35l-1.92-1.79c-2.74-2.87-5.22-5.96-6.6-9.71l-.99-2.71c-1.7-4.63-1.22-11.57.46-16.5,1.52-4.46,3.81-8.59,6.89-12.14l2.19-2.52,3.16-3.17,3.76-3.19,2.01-1.49,5.69-3.68,2.63-1.47,5.31-2.56-.85-1.87-1.4-3.38c-1.73-6.16-1.36-12.09,2-17.55,2.81-4.56,7.39-7.72,12.48-9.23,4.09-1.21,8.15-1.31,12.42-.61,5.38.87,10.35,3.17,14.55,6.62,5.12,4.21,8.98,10,9.96,16.61.3,2.03.47,3.9.18,5.86l-.36,2.48,3.29,1.43c4.32,1.88,8.27,4.34,11.94,7.29l2.72,2.18c2.37,1.91,4.3,4.12,6.19,6.5,5.66,7.12,8.7,15.97,7.07,24.97-.86,4.74-2.71,9.16-5.64,12.9l-1.82,2.32c-4.99,5.77-11.31,9.91-18.24,12.97l-4.09,1.66-4.42,1.47-4.35,1.19-7.77,1.5c-1.14.22-2.33.42-3.39.13l-1.78-5.45-3.15.49-5.19.76c-2.44.07-4.68-.22-7.04-.38l-5.9-.4ZM87.14,86.25c4.16-1.31,8.93-4.46,11-7.95l1.15-1.93c3.63-7.1,2.13-15.59-2.41-22.09-5.06,2.41-11.63,2.53-17.13,1.95-2.3-.34-4.46-.87-6.6-1.84.06,3.59-1.16,7.74-3.01,10.92l.25.84c.34,1.12.27,2.44.2,3.63-.17,3.33,1.05,7.83,3.61,9.9,3,2.42,4.87,4.05,6.92,7.72,2-.23,4.03-.51,6.03-1.13ZM58.58,78.99c-.55-2.21-.66-4.14-.65-6.35l.23-4.52c.01-.24-.42-.8-.6-.68-1.98,1.32-2.85,13.11,1.23,17.03,1.45,1.39,3,2.42,4.69,3.47l4.81,3.02c1.92,1.21,3.23,3.14,4.24,5.18l9.62-3.48-1.27-2.91-2.89-4.47-1.12-1.36-1.59-1.62c-5.45-3.09-6.44-9.05-6.02-14.99.01-.21-.16-.62-.3-.77s-.69-.01-.84.13c-1.29,1.2-1.49,2.93-1.5,4.63l-.04,5.42c-.17.23-.41.49-.59.47s-.63-.45-.64-.65l-.14-4.6c-.05-1.76,0-3.4-.51-5.05-.33-.09-1,.31-1.06.64-.89,4.89-.14,8.99-.47,10.42-.05.21-.75.51-.95.41s-.5-.5-.51-.74l-.09-5.19c-.03-1.87.18-3.65-.21-5.62-.97.28-1.73,1.16-1.79,2.16l-.21,3.69.22,5.22c.02.38.17.88-.06,1.02s-.76.17-1.01.06ZM84.61,126.4l-3.37,1.23-2.75.89,2.9,8.79,3.41,10.56,4.51-.74c5.85-.96,11.47-2.56,16.88-4.93,2.89-1.27,5.7-2.45,8.25-4.22l3.63-2.53c5.22-3.63,11.23-10.75,12.97-16.83l.76-2.65.52-3.16.12-3.54c-.16-4.51-1.41-8.66-3.42-12.65l-2.48-4.06-1.48-2-3.06-3.48-2.98-2.77-4.92-3.83-1.96-1.3-5.63-3.19-2.34-1.15-2.38-1.05-1.13,2.95c-1.56,2.89-3.53,5.44-6.16,7.33-3.73,2.67-7.81,4.24-12.55,4.59l1.51,3.47,2.96-1.02,1.74-.5c1.96,2.83,3.44,5.7,4.14,9.03l.7,3.35.33,2.92-.02,2.79c-.02,3.6-.82,7.17-2.42,10.39l-2.3,3.88,5.24-2.77c3.35-2.02,6.48-4.13,9.51-6.61l2.74-2.6c1.59-1.51,2.02-3.94,2.67-3.16.38.46.37,1.31.06,1.8-.62.98-1.26,2.02-2.16,2.78l-4.84,4.12-4.98,3.44-8.28,4.63-3.95,1.8ZM86.84,122.6c1.31-1.47,2.51-2.95,3.12-4.85l1.32-4.03c1.55-6.82.38-13.86-2.88-20-.29-.54-.53-1-.94-1.42l-6.35,2.32-1.31.48-4.84,1.74-8.4,3.01,1.05,3.45.56,3.52.12,1.94c.14,2.21-.18,4.45-1.47,3.6.35-3.72-.11-8.91-1.73-12.16-.24-.49-.11-1.27.51-1.5l5.55-2.07c-.73-1.75-1.79-3.19-3.38-4.2l-2.86-1.83-4.81-3.15c-1.65-1.08-3.79-3.2-4.41-5.02-.73-2.17-1.14-4.37-1.24-6.66-.01-.24.07-.79-.13-.84l-.8-.17c-5.85,2.82-11.39,6.05-16.42,10.14l-1.8,1.5-4.56,4.64-3.11,3.86-1.99,3.13c-4.01,7.02-5.56,15.1-2.89,22.83.79,2.29,1.66,4.43,3.18,6.29l3.39,4.16,1.47,1.41c3.81,3.67,8.46,6.22,13.28,8.28l.57-2.12c-.64-1.1-.58-2.59.27-3.76-.29-1.32.1-2.57,1.16-3.46l2.19-1.83c1.58-.92,4.83-1.84,6.32-1.71l5.6.47,5.44.49,5.88-.24,2.44-.42,2.09-.31c.58-.09,1.12-.51,1.48-.92l3.58-.89c1.62-.4,4.45-2.24,5.76-3.71ZM57.41,136.61l-6.32.9c-2.42.35-4.61.75-5.57,2.91-.22.48.53,1.45,1,1.15,3.85-2.43,8.14-3.53,12.66-3.67.88-.03,1.82-.07,1.8,1.11l-5.83.67c-3.62.42-9.89,3.15-8.1,5.04.32.34,1.02.62,1.59.46l6.3-1.8c2.99-.85,7.48-1.02,10.65-.49,2.64.28,5.21.78,7.84.42l8.07-1.11-3.55-10.89-.71-2.17-6.04,1.14c-3.2.39-6.26.16-9.44-.12l-5.12-.46c-4.05-.36-7.65.4-10.16,3.75l6.41-1.35c1.96-.41,3.86-.48,5.79-.22-.05.5-.09.89-.28.99-.15.08-.58.21-.81.23l-4.19.36c-2.25.2-5.75.8-7.09,2.16-.48.49-.69,1.42-.74,2.21,1.58-.9,2.94-1.35,4.64-1.61l3.65-.56,4.41-.52c.29-.03.88.02.98.24l.34.8-2.18.41Z"/>
      <path d="M84.08,29.46l-1.36-2.02c-2.88-4.26-4.89-8.74-6.29-13.91l-1.49,4.36-1.34,3.17c-2.19,4.59-5,8.66-8.33,12.51-1.53,1.78-3.05,3.45-4.84,5l-6.89,5.94-4.39,3.8-3.59,3.14-4.14,3.45-2.92,2.56-3.54,3.03-8.57,7.33-2.65,2.29-2.2,1.9-7.67,6.62c-.46.39-1.38.56-1.8.21l-.3-3.02c-.56-2.89-2.02-5.33-3.76-7.59l-1.29-1.43c-.96-1.06-2.25-1.9-3.57-2.47-.62.43-1.11.67-1.72.56-.52-.1-1.34-.55-1.4-1.03-.12-.97.16-1.76.85-2.31l8.72-7,.88-.78c1-.89,2.08-1.57,3.1-2.41l5.04-4.14,5.02-4.04,3.55-2.92,2.21-1.73,1.54-1.19,3.07-2.67c.28-.07.71-.28.95-.54.68-.74,1.41-1.19,2.12-1.79l2.35-1.96,5.43-4.37,1.59-1.26,2.47-2.03,1.15-.87,1.42-1.05,1.24-1.03,1.38-1.23,2.61-2.12,1.6-1.23.98-.91,2.05-1.64,2.85-2.26,6.84-5.47-1.82-3.76C69.45.71,70.18,0,70.71,0l8.98.05,2.39.08c.75.02,1.98.11,2.35.82.55,1.07-.33,2.07-.96,2.76l-1.49,1.64,7.43,5.97,1.84,1.47,2.83,2.3,2.21,1.84,2.54,2,1.26,1.15,1.6,1.29,1.15.88,1.26.98,2.86,2.3,3.84,3.06,2.58,2.12,2.49,2.03,2.63,2.23c.26.09.72.3.93.49l2.6,2.42c.66.05,1.08.78,1.52,1.1l2.09,1.57,3.55,2.93,7.27,5.88,2.77,2.36,3.23,2.45.99.85,2.29,1.85,2.82,2.26,3.29,2.63c.85.68,1.43,1.81.83,2.9-.26.48-1.54.77-2.04.56-.26-.11-.88-.52-1.16-.37-1.67.9-3.31,2.19-4.47,3.69-5.02,6.48-3.69,10.03-4.24,10.78-.48.66-1.92-.45-3-1.39l-1.68-1.46-2.72-2.36-4.19-3.61-3.17-2.73-6.1-5.17-4.26-3.71-2.61-2.25-2.55-2.2-6.71-5.72-4.61-4-6.58-5.66-3.99-4.01c-1.67-1.68-3.13-3.54-4.51-5.58ZM77.36,10.32c.38,2.39.74,4.71,1.69,6.88l2.06,4.69c2.56,5.05,5.93,9.53,9.85,13.65,2.27,2.39,4.8,4.28,7.23,6.45l3.56,3.19,4.51,3.87,4.07,3.51,3.01,2.53,5.11,4.46,1.57,1.29,5.49,4.75,5.85,4.98,4.17,3.61,1.31,1.15,1.21,1.05,1.36,1.12c.33-1.83.59-3.13,1.25-4.65l-10.52-8.58-3.73-3.05-3.38-2.74-3.72-3.03-5.41-4.4-4.44-3.58-3.12-2.55-5.4-4.41-4.09-3.3-3.3-2.84c-.16-.14-.12-1.02.07-.99l.88.11,13.29,10.77,2.84,2.31,5.07,4.13,5.3,4.31,6.19,5.04,5.64,4.59,6.9,5.57,1.45,1.33,1.55-2.4-12.25-9.92-8.62-6.92-3.93-3.23-1.15-.89-2.72-2.18-1.47-1.18-2.03-1.64-4.29-3.47-4.88-3.92-13.64-11.04c-.22-.18.24-1.08.51-1.03.33.06.71.25,1.01.49l5.68,4.55,3.6,2.91,1.36,1.11,1.32,1.09,3.08,2.46,4.39,3.58,6.23,5.02,5.22,4.2,13.46,10.82,2.16,1.76,2.7,2.19,2.82,2.27,2.35,1.82,1.7-2.08-2.57-2.02-2.59-2.08-3.22-2.58-2.69-2.19-4.32-3.45-2.73-2.19-9.29-7.43-3.32-2.65-9.04-7.26-1.72-1.36-2.86-2.27-10.99-8.8-1.69-1.4-4.8-3.82.15-.97c.03-.19.68-.06.92-.02l17.77,14.29,22.32,17.9,5.73,4.57,2.37,1.89,1.81,1.45,1.58,1.27,2.35,1.94,2.99,2.33,1.24,1.02,2.85,2.26.87.67,1.91-1.16c.08-.05.21-.2.14-.26l-.28-.27-1.44-1.13-8.66-6.93-5.66-4.59-5.2-4.23-3.59-2.93-2.48-1.97-1.81-1.48-1.28-.97-2.38-2.05-2.91-2.3-2.82-2.27-3.4-2.74-2.03-1.64-2.81-2.3-1.56-1.29-1.08-.96c-.91-.8-1.7-1.39-2.65-2.11l-2.18-1.66-2.94-2.35-5.2-4.24-5.09-4.11-2.12-1.74-2.59-2.14-2.24,1.66-2.02,1.67-2.85,2.25-3,2.5-4.5,3.68-2.05,1.64-3.12,2.39-2.84,2.26-.96.89-1.67,1.39-2.68,2.2-2.17,1.76-2.16,1.75-1.33,1.08-6.1,4.92-3.09,2.53-1.67,1.33-2.72,2.18-3.45,2.81-5.22,4.25-4.87,3.92-2.44,2.05-6.99,5.52-1.8,1.59,2.14,1.24,1.79-1.36,4.27-3.47,3.19-2.54,1.7-1.36,2.49-2,1.71-1.38,2.61-2.07,5.22-4.19,8.74-7,19.59-15.72,1.83-1.48,6.65-5.38,1.27-1.03c.4-.32.94-.58,1.54-.76.17.28.35.78.25,1.02-.09.2-.43.56-.64.72l-4.45,3.53-3.4,2.73-10.88,8.72-1.51,1.19-6.33,5.1-7.16,5.71-7.16,5.72-3.27,2.64-2.39,1.91-5.69,4.55-8.89,7.17,1.71,2.04,2.76-2.19,5.32-4.27,1.79-1.51,13.69-11.01,5.13-4.11,10.62-8.58,3.26-2.64,2.28-1.86,3.82-3.11,6.17-4.9c.21-.17.8-.14.91.06.09.17.15.77-.02.91l-1.85,1.56-11.87,9.59-4.78,3.85-21.24,17.12-4.42,3.57-2.28,1.84-4.51,3.64-3.89,3.15,1.49,2.37,8.16-6.69,5.78-4.7,16.53-13.45,2.85-2.3,1.57-1.3,6.53-5.29,3.54-2.83c.79-.63,1.47-1.53,2.57-1.62.47.42.19,1.14-.24,1.48l-2.83,2.31-3.62,2.92-3.49,2.83-2.36,1.93-3.36,2.76-4.34,3.47-10,8.15-2.05,1.67-7.41,6.05-7.34,5.95c.81,1.53,1,2.92,1.28,4.68l2.94-2.52,5.1-4.44,2.56-2.18,4.41-3.75,4.4-3.81,1.32-1.12,5.48-4.73,3.62-3.1,3.32-2.84,4.04-3.52,2.32-1.96,1.8-1.69,2.1-1.76,4.74-4.26,1.48-1.56c3.56-3.76,6.39-7.94,8.74-12.53,2.33-4.65,3.86-9.41,3.9-14.67.21-.17.71-.34.91-.25s.48.49.49.72l.2,3.12Z"/>
      <path d="M75.96,78.38c-.2-1.36,3.43.58,7.82-.32,5.7-1.17,9.24-5.25,10.37-10.81.05-.27.59-.65.81-.58.25.08.53.63.48.94-.64,4.3-2.99,7.89-6.76,10.05-1.86,1.07-3.95,1.82-6.09,1.99-2.35.19-6.44.02-6.63-1.27Z"/>
      <path d="M76.88,74.35c-2.53-.06-4.24-2.35-5.46-4.54-.11-.21-.08-.74.08-.87s.83-.05.97.16c1.25,1.78,3.03,4.42,5.06,3.66,1.57-.59,1.41-4.15-.43-6.43-.28-.35-.37-.95-.05-1.26.29-.28,1.08-.1,1.26.25l1.28,2.47c.4.76.39,1.76.48,2.65.19,1.98-1.09,3.96-3.18,3.91Z"/>
      <path d="M85.29,66.17c-1.08-1.03-2.67-3-2.46-3.98.45-.57,1.25.06,1.52.57.97,1.83,2.97,3.67,4.62,3.06,1.49-.56,1.4-3.95-.36-6.31-.18-.25-.4-.68-.4-.94s.52-.62.77-.59c.86.1,2.36,3.04,2.49,5.25.11,1.87-.56,3.78-2.67,4.16-1.2.21-2.67-.39-3.53-1.21Z"/>
    </g>
  </g>
</svg>