<?xml version="1.0" encoding="UTF-8"?>
<svg id="Layer_2" data-name="Layer 2" xmlns="http://www.w3.org/2000/svg" viewBox="0 0 21.86 38.32">
  <g id="Layer_5" data-name="Layer 5">
    <g>
      <path d="M21.13,24.73c-2.95-.17-5.7,1.4-7.56,3.63-2.1,2.53-3.11,5.72-4.06,8.81h1.45c-.75-3.12-1.64-6.62-3.43-9.32-1.52-2.3-3.91-3.9-6.61-4.46-.94-.2-1.34,1.25-.4,1.45,2.56.54,4.77,2.07,6.06,4.36,1.44,2.54,2.24,5.56,2.92,8.38.18.74,1.24.68,1.45,0,1.48-4.81,3.95-11.68,10.17-11.33.96.05.96-1.45,0-1.5h0Z"/>
      <path d="M9.82.72c0,11.43,0,22.87,0,34.3,0,.97,1.5.97,1.5,0,0-11.43,0-22.87,0-34.3,0-.97-1.5-.97-1.5,0h0Z"/>
    </g>
  </g>
</svg>