<?xml version="1.0" encoding="UTF-8"?>
<svg id="Layer_2" data-name="Layer 2" xmlns="http://www.w3.org/2000/svg" viewBox="0 0 210.48 219.23">
  <defs>
    <style>
      .cls-1 {
        fill: #f8c158;
      }
    </style>
  </defs>
  <g id="Layer_5" data-name="Layer 5">
    <path class="cls-1" d="M207.12,132.42c-13.13-12.39-13.13-33.22,0-45.62h0c6.56-6.19,2.97-17.19-5.99-18.36h0c-17.94-2.34-30.24-19.19-26.93-36.9h0c1.65-8.85-7.75-15.65-15.69-11.35h0c-15.9,8.61-35.79,2.17-43.57-14.1h0c-3.89-8.13-15.5-8.13-19.39,0h0c-7.78,16.27-27.68,22.7-43.57,14.1h0c-7.94-4.3-17.34,2.5-15.69,11.35h0c3.31,17.71-8.99,34.56-26.93,36.9h0c-8.96,1.17-12.55,12.17-5.99,18.36h0c13.13,12.39,13.13,33.22,0,45.62h0c-6.56,6.19-2.97,17.19,5.99,18.36h0c17.94,2.34,30.24,19.19,26.93,36.9h0c-1.65,8.85,7.75,15.65,15.69,11.35h0c15.9-8.61,35.79-2.17,43.57,14.1h0c3.89,8.13,15.5,8.13,19.39,0h0c7.78-16.27,27.68-22.7,43.57-14.1h0c7.94,4.3,17.34-2.5,15.69-11.35h0c-3.31-17.71,8.99-34.56,26.93-36.9h0c8.96-1.17,12.55-12.17,5.99-18.36h0Z"/>
  </g>
</svg>