<?xml version="1.0" encoding="UTF-8"?>
<svg id="Layer_2" data-name="Layer 2" xmlns="http://www.w3.org/2000/svg" viewBox="0 0 160.45 162.76">
  <g id="Layer_5" data-name="Layer 5">
    <path d="M70.14,116.18l-1.98-.82-1.94-.75-2.8-1.19c-.29-.12-.55-.28-.74-.27-.23.01-.37.69-.42.92l-1.09,4.75-.71,3.06-1.36,6.13-.64,2.78-.67,2.92-.8,3.5-1.11,4.55c-.05.21.03.88-.15,1.01s-.63.34-.85.34l-5.01.14-.61,4.46-.74,4.92-.74,6.17c-.08.64-.48,1.15-1.38,1.2l-4.9.27-3.56.25c-.15.01-.54-.01-.68-.04-.18-.04-.18-.57-.19-.8.2-2.32.28-4.49-.08-6.72l-.41-.54c-.48-.63-2.42,2.87-3.01,4.72l-.74,2.26-.69,1.43-1.47.08-2.29.12-1.65.13-2.33.19-2.37.13-20.2,1.3-1.85-.87c.03-2.28.71-4.66,2.21-6.36l.98-1.11,1.89-1.65c.77-.68,1.72-1.08,2.67-1.55,1.32-.65,2.65-.97,4.05-1.34l3.73-.97c.39-.1.92-.08,1.14-.3.31-.33.52-.95.59-1.38l.38-2.12.17-1.97-8,.03c-.41,0-1.01-.13-1.36-.4.08-1.01.38-2.04.66-2.98l.72-2.43,1.84-6.22,1.38-4.71.59-2.07,1.35-4.49.59-1.94.82-2.78,1.04-3.75,1.42-4.77.62-2.14,1.04-3.55,6.86-23.4.75-2.14-1.23-3.15-.75-2.47-.46-1.81-.63-3.34c-.81-4.3-.3-8.77,1.39-12.79l1-2.37,1.13-2.24,3.13-6.23.96-1.69,2.09-3.78.82-1.2.92-1.59c.61-1.05,1.39-1.94,2.07-2.94l3.16-4.71c1.4-2.09,2.57-4.18,4.07-6.16,3.38-4.48,7.23-8.4,11.97-11.36l3.31-2.08c1.5-.94,3.08-1.62,4.75-2.31,18.32-7.52,37.69-1.28,48.56,14.95l1.2,1.79.91,1.32,1.24,1.94.67,1.12,2.34,3.5,1.66,2.3,1.42,2.29,1.36,2.22,2.44,4.45,1.09,2.02,3.86,7.98.74,1.96c1.46,3.84,1.84,8.08,1,12.09l-.93,4.46-.59,1.91-.92,2.54.68,2.34,3.27,10.37,2.55,8.26,2.52,8.06,1.99,6.31.76,2.55,1.34,4.27,2.92,9.44,1.09,3.45,2.1,6.83,1.13,3.62.67,2.26c.23.77-.8,1.26-1.5,1.27l-8.12.13.52,3.5.33,1.84c.16.89,1.16.7,1.67.83l3.78.93c3.61.89,6.35,2.05,8.77,5.07,1.58,1.97,2.07,3.83,2.11,6.34-.63.29-.93.47-1.44.85l-19.82-.56-1.98-.07-6.14-.19-1.92-.05-.59-1.29c-.2-.92-.46-1.69-.82-2.53l-1.06-2.48c-.36-.84-.8-1.46-1.69-2.03-.62,1.07-.79,2.34-.77,3.68l.07,4.57-3.98-.15-5.23-.09c-.3,0-.89-.29-1.12-.47-.21-.16-.05-.73-.1-1.07l-1.27-10.28-.41-3.42c-.09-.77-.11-1.33-.03-2.17l-1.93.1-4.69.02c-1.11,0-1.16-1.33-1.33-2.02l-.45-1.89-.7-2.64-.48-1.96-5.18-20.16-.47-1.81-1.71.55-3.03,1.31-2.1.84-3.35,1.4-1.81.74c-.88.36-1.78.58-2.76.58h-2.73s-2.94.18-2.94.18l-1.83.07c-.96.04-1.71.29-2.64-.15l-1.89-.88ZM79.14,26.3l.33,2.73c2.17-.14,4.04-.19,6.01.25l2.7.6c1.47.33,2.78.9,4.14,1.53,4.47,2.08,7.65,5.53,10.16,9.66,1.15,1.89,2.78,3.46,4.22,5.11l1.18,1.34,4.15,4.79,6.67,7.68c.7.81.1,2.25-.17,3.08l-2.37,7.31-3.56,10.99-2.66,8.07.04,1.09,9.97.66c.71.05,1.29.08,1.94-.09l4.16-8.79,2.54-5.78,1.43-3.98,2.16-6.51.87-5.01c.54-4.51-.58-8.96-2.55-13l-1.04-2.14-3.13-6.26-1.08-2-1.88-3.27-3.32-5.25-.86-1.24-5.03-7.6-2.69-3.64c-4.41-5.97-10.49-10.47-17.42-13.11-12.61-4.8-26.43-1.61-37.09,6.2-2.85,2.09-6.82,5.88-9,8.68l-1.09,1.4-1.53,2.01c-1.12,1.47-1.97,3.02-2.98,4.56l-1.45,2.21-1.01,1.55c-1.28,1.97-2.56,3.81-3.72,5.84l-2.44,4.25-.79,1.45-1.31,2.85-2.38,4.51c-2,4.23-3.43,8.77-2.93,13.48.53,4.93,1.49,7.4,3.02,11.71l1.37,3.85c.89,2.51,2.06,4.73,3.21,7.14l3.5,7.37,2.25-.29,1.18-.12,4.15-.44,4.61-.39c.12-.32,0-.81-.13-1.21l-2.48-7.54-3.13-9.8-2.89-8.93c-.5-1.53-.25-2.85,1.09-3.89l7.07-8.12,6.7-7.69c-3.88-1.78-6.27-5.23-6.37-9.39-.17-6.93,5.08-12.78,11.37-15.33,7.49-3.04,16.37-.65,18.27,6.88ZM105.72,94.32l1.9-3.14.83-2.09,2.04-6.3,1.78-5.53,2.49-7.69,1.36-4.03.62-1.93c.29-.92.66-1.9.66-2.83l-5.09-5.88-3.87-4.41-2.21-2.59-2.16-2.39c.87,3.77.88,7.13.03,10.7l-.99,3.14c-.48,1.53-1.19,2.81-2.08,4.21-2.89,4.58-7.04,8.19-12.12,10.45l2.04,7.89,1.79,6.97.55,2.15,1.04,3.98,1.08,4.2,5.2-1.7c1.53-.5,3.03-.73,4.67-.78l.44-2.4ZM63.6,100.47l.39-1.22,1.01-4.22,1.41-6.37.54-2.34.9-3.98,1.22-5.29.45-1.76c-4.19-1.63-7.75-3.67-10.49-7.24l-1.54-2.01c-1.98-2.58-3.06-7.36-3.2-10.77-.12-2.86.5-5.34,1.21-8.26l-1.72,1.79-8.68,10.01-2.81,3.33c.03,1.13.58,2.3.92,3.38l.83,2.58,3.33,10.33,1.82,5.72,1.92,6.04.68,2.19c1.2,1.37,2.31,2.88,2,4.87l1.93.49,4.01,1.05,1.7.63,2.17,1.07ZM91.17,71.17l1.29-.8c1.96-1.22,3.57-2.88,5.1-4.64-2.75-.48-5.72-2.28-6.97-4.51l-.82-1.46c-.07-.13-.36-.5-.48-.4l-.44.37-1.33,1.1-2.69,1.74c-2.96,1.92-6.29,3.3-9.73,4.21l-4.82,1.28-2.77.49-5.22.67c7.76,7.34,20.11,7.39,28.87,1.95ZM76.58,113.09c.75,1.32.73,2.92,1.01,2.24l.14-.36c.3-.75.51-1.49.93-2.22,1.97-3.41,4.84-6.07,7.9-8.53l2.45-1.55,1.68-1.01c1.1-.66,1.93-1.13,3.3-1.63l-.59-2.23-4-15.6-.68-2.65-.56-2.16-.78-2.62-4.88,1.32-2.14.28c-3,.46-6.34.04-9.32-.68l-2.14,8.98-3.26,14.44-.39,2.28,3.38,2.25,1.7,1.42,2.22,2.14,1.64,2.11,1.21,1.7,1.19,2.09ZM118.84,140.03l2.9-.03,4.2-.09,4.87-.13,4.33-.11,3.4-.08,12.18-.38c.3,0,.04-.88-.05-1.16l-1.66-5.4-1.44-4.65-1.11-3.62-2.21-7.13-1.26-3.95-.99-3.22-.92-3.01-2.07-6.66-.63-2.04-.49-1.6-1.12-3.61-.57-1.78-.6-1.92-2.34-7.6-2.36-7.29-2.02,5.38-2.02,4.26-3.51,7.64c2.92,2.56,4.33,4.33,4.46,8.14.08,2.58-.9,5-2.61,6.88-3.96,4.33-10.55,4.87-15.41,1.35-.56-.41-1.06-.96-1.36-1.61l-1.71.74-7.08,2.92c-.37.15-.86.33-1.04.55s.03.91.11,1.23l2.29,8.95.58,2.35.65,2.39.49,2.08.9,3.13,1.52,6.2c.28,1.12.54,2.27,1.14,3.24l3.8-.12,4.2-.13,1.84-.09,2.68-.03ZM36.42,141.45l7.04.03h2.68s8.21,0,8.21,0l.44-1.89,1.77-7.69.69-3.13,1.39-5.94.84-3.5,1.51-6.74-2.11-.91-2.13-.95-5.79-2.24c-2.23,2.04-4.81,3.44-7.78,3.65-2.21.15-4.46-.2-6.35-1.21-3.43-1.81-5.63-5.21-5.46-9.04.18-3.95,1.71-5.69,4.61-8.36l-1.62-3.51-1.87-4.13-1.12-2.18-.7-1.55-.92-2.22-.78-1.76-.63,1.75-1.55,5.33-.69,2.21-1.6,5.46-.68,2.37-.91,3.3-.82,2.68-.71,2.35-.8,2.87-1.46,4.96-3.26,11.11-2.61,9.07-.79,2.77-.6,2.06-1.51,5,4.38-.03c1.47,0,2.89,0,4.35-.26.93.31,1.94.39,2.92.28h3.94s2.74.01,2.74.01h3.09s1.89,0,1.89,0h2.8ZM114.95,103.91l-2.65,1.07c-.87.35-1.6.62-2.4,1.28,3,2.26,5.17,3.06,9.01,2.42,4.23-.71,7.69-4.86,7.29-9.17-.25-2.76-1.72-4.91-3.89-6.64l-8.23-.56-4.91-.23c-.79.91-1.51,1.94-1.84,3.1l-.39,1.37,2.1.07c1.79.06,4.59,1.1,5.1,1.78.21.28.23,1.09.1,1.35l-1.37.26c-.32.88-.53,1.73-.55,2.85l2.52-.86,1.16.12-.13,1.1c-.03.28-.6.55-.92.68ZM40.87,104.15c-.27-.15-.04-1.03.2-1.21.21-.16.75-.21,1.02-.12l1.73.52-.22-1.73c-.12-.93-.65-1.4-1.48-1.92-.29-.24-.03-1.25.33-1.37l1.28-.42,1.97-.46c2.12-.49,4.16-.48,6.45-.24.53-1.29-.96-2.99-2.17-4.33l-3.71.31-8.23.78c-.25.27-.66.44-.94.56-1.95,1.47-3.48,3.52-3.98,6.01-.77,3.82,1.37,7.65,5.05,9.21,2.59,1.1,5.68,1.09,8.25-.11l2.91-1.86-7-2.82-1.47-.81ZM85.53,109.74l2.02-1.42,4.13-2.31,2.03-1.1,3.65-1.56,2.12-.89,2.58-.83,5.2-1.28c2.46-.61,4.39.87,4.12-1.19-1.27-.25-2.83-.73-4.1-.61l-4.6.45c-1.62.16-3.3.68-4.78,1.35l-4.89,2.18-3.21,1.8-3.46,2.59c-1.44,1.08-2.74,2.22-3.83,3.65l-1.25,1.64-1.84,2.95,1.96-.13c.07-.55.14-1.46.44-1.77l1.95-2.06,1.76-1.46ZM71.16,111.4l1.22,1.41c.56.64,1.05,1.51,1.38,2.38.22.27,1.05.25,1.4,0-.33-1.23-.79-2.17-1.45-3.11l-1.03-1.47-1.48-1.85-.81-.86c-1.15-1.21-2.3-2.29-3.68-3.23l-1.71-1.16-3.07-1.74-2.02-.83-1.99-.72-2.8-.72-2.9-.48-3.5-.03-1.64.15c-.88.08-1.8.25-2.48.61l.53,1.81c1.69-.68,3.95-.83,5.79-.55l1.88.28,2.25.52,1.22.42,3.64,1.39,2.13,1.13,1.95,1,1.99,1.29c.89.58,1.7,1.05,2.45,1.75l1.08,1.01,1.65,1.59ZM97.08,109.26l1.26-.54,1.98-.81,4.59-1.83,2.16-.96,1.75-.74,2.33-.89-.4-1.27-2.02-.1-2.01.09-7.04,2.19-6.38,2.82-1.2.64-4.5,2.77-1.82,1.33c-1.05.77-2.24,1.53-2.49,3.06l4.38-1.82,2.22-.92,2.22-.89,4.96-2.13ZM62.84,111.14l2.74,1.07,2.62,1.07c.87.36,1.61.76,2.69.96-1.02-1.59-2.33-2.69-3.8-3.9l-1.36-1.11-3.58-2.27-2.05-1.06c-3.07-1.58-6.32-2.77-9.86-2.95l-2.71-.13-1.92.34c-.19.03-.54.5-.42.63.09.1.31.26.43.32l1.75.78,4.23,1.66,1.74.75,2.35.99,1.12.41,2.34.96,3.69,1.49Z"/>
  </g>
</svg>