<?xml version="1.0" encoding="UTF-8"?>
<svg id="Layer_2" data-name="Layer 2" xmlns="http://www.w3.org/2000/svg" viewBox="0 0 338.54 354.09">
  <defs>
    <style>
      .cls-1 {
        fill: none;
        stroke: #0095a5;
        stroke-miterlimit: 10;
      }
    </style>
  </defs>
  <g id="Layer_5" data-name="Layer 5">
    <path class="cls-1" d="M332.64,213.78c-21.06-19.96-21.06-53.51,0-73.47h0c10.52-9.97,4.77-27.69-9.61-29.57h0c-28.77-3.77-48.49-30.91-43.18-59.44h0c2.65-14.25-12.42-25.2-25.16-18.28h0c-25.49,13.86-57.4,3.5-69.87-22.7h0c-6.23-13.09-24.86-13.09-31.1,0h0c-12.48,26.2-44.38,36.57-69.87,22.7h0c-12.74-6.93-27.81,4.02-25.16,18.28h0c5.31,28.53-14.41,55.67-43.18,59.44h0c-14.38,1.88-20.13,19.6-9.61,29.57h0c21.06,19.96,21.06,53.51,0,73.47h0c-10.52,9.97-4.77,27.69,9.61,29.57h0c28.77,3.77,48.49,30.91,43.18,59.44h0c-2.65,14.25,12.42,25.2,25.16,18.28h0c25.49-13.86,57.4-3.5,69.87,22.7h0c6.23,13.09,24.86,13.09,31.1,0h0c12.48-26.2,44.38-36.57,69.87-22.7h0c12.74,6.93,27.81-4.02,25.16-18.28h0c-5.31-28.53,14.41-55.67,43.18-59.44h0c14.38-1.88,20.13-19.6,9.61-29.57h0Z"/>
  </g>
</svg>