<?xml version="1.0" encoding="UTF-8"?>
<svg id="Layer_2" data-name="Layer 2" xmlns="http://www.w3.org/2000/svg" xmlns:xlink="http://www.w3.org/1999/xlink" viewBox="0 0 263.18 147.62">
  <defs>
    <style>
      .cls-1 {
        fill: none;
      }

      .cls-2 {
        fill: #f8c158;
      }

      .cls-3 {
        clip-path: url(#clippath);
      }
    </style>
    <clipPath id="clippath">
      <rect class="cls-1" x="0" y="0" width="263.18" height="147.62"/>
    </clipPath>
  </defs>
  <g id="Nuevo">
    <g class="cls-3">
      <path class="cls-2" d="M221.59-44.35l-19.79-11.2,6.07-21.92c8.05-29.06-18.68-55.8-47.74-47.74l-21.92,6.07-11.2-19.79c-14.85-26.24-52.66-26.24-67.52,0l-11.2,19.79-21.92-6.07c-29.06-8.05-55.8,18.68-47.74,47.74l6.07,21.92-19.79,11.2c-26.24,14.85-26.24,52.66,0,67.52l19.79,11.2-6.07,21.92c-8.05,29.06,18.68,55.8,47.74,47.74l21.92-6.07,11.2,19.79c14.85,26.24,52.66,26.24,67.52,0l11.2-19.79,21.92,6.07c29.06,8.05,55.8-18.68,47.74-47.74l-6.07-21.92,19.79-11.2c26.24-14.85,26.24-52.66,0-67.52Z"/>
    </g>
  </g>
</svg>