<?xml version="1.0" encoding="UTF-8"?>
<svg id="Layer_2" data-name="Layer 2" xmlns="http://www.w3.org/2000/svg" viewBox="0 0 21.83 21.83">
  <defs>
    <style>
      .cls-1 {
        fill: #fef5e4;
      }
    </style>
  </defs>
  <g id="Layer_5" data-name="Layer 5">
    <g>
      <circle cx="10.91" cy="10.91" r="10.91"/>
      <path class="cls-1" d="M9.61,12.27c0-1.34,2.22-2.22,2.22-5.47,0-1.57-.57-2.58-1.68-2.58-1.48,0-2.25,1.75-2.9,3.9h-.11v-3.61c.79-.25,2.04-.61,3.47-.61,2.54,0,4.08,1.11,4.08,2.9,0,3.04-4.45,4.27-4.45,5.63,0,.29.2.5.5.5.13,0,.29-.04.39-.07l.04.09c-.18.09-.48.14-.7.14-.57,0-.86-.36-.86-.82ZM8.75,16.19c0-.93.77-1.7,1.73-1.7s1.7.77,1.7,1.7-.77,1.73-1.7,1.73-1.73-.77-1.73-1.73Z"/>
    </g>
  </g>
</svg>