<?xml version="1.0" encoding="UTF-8"?>
<svg id="Layer_2" data-name="Layer 2" xmlns="http://www.w3.org/2000/svg" viewBox="0 0 98.74 114.72">
  <defs>
    <style>
      .cls-1 {
        fill: #fff;
      }

      .cls-2 {
        fill: #f3e2b8;
      }

      .cls-3 {
        fill: #e8a838;
      }

      .cls-4 {
        fill: #d29430;
      }

      .cls-5 {
        fill: #f1c355;
      }
    </style>
  </defs>
  <g id="Layer_5" data-name="Layer 5">
    <g>
      <path class="cls-3" d="M17.93,29.8L.53,43.09C.19,43.35,0,43.75,0,44.17l.62,69.22c.01,1.15,1.37,1.75,2.23.98l19.95-16.36c.31-.28.35-2.09.32-2.5l-3.05-64.74c-.07-1.06-1.3-1.62-2.14-.97Z"/>
      <path class="cls-3" d="M97.78,1.09L72.89.02c-.39-.09-.77.2-.78.6l-.53,34.15c0,.47.48.78.9.58l25.44-16.43c.22-.1.36-.33.36-.57l-.02-16.64c0-.29-.2-.55-.48-.61Z"/>
      <path class="cls-1" d="M95.56,7.52c-2.09-4.02-7.31-4.25-7.31-4.25l-.15-1.32c-13.31,6.79-17.68,25.59-17.68,25.59-21.67-12.58-46.54-6.07-46.54-6.07l.18,2.56-2.34.31-.21,6.72,49.41,2.4,9.71-5.48,14.93-20.47Z"/>
      <path d="M21.64,27.01c.82-.05,1.64-.07,2.46-.09,2.24-.06,4.48-.08,6.72-.06,3.34.03,6.69.14,10.02.32,4.09.22,8.17.56,12.24,1.03,4.55.52,9.08,1.21,13.57,2.1.57.11,1.14.23,1.71.35.23.05.33-.3.1-.35-4.49-.94-9.03-1.68-13.59-2.25-4.16-.52-8.34-.9-12.52-1.16-3.46-.21-6.92-.35-10.38-.4-2.41-.03-4.82-.03-7.23.03-.7.02-1.41.04-2.11.07-.32.01-.64,0-.96.04-.01,0-.03,0-.04,0-.23.01-.23.38,0,.36h0Z"/>
      <path d="M24.11,24.21c.67-.12,1.32-.18,2.03-.25,1.94-.19,3.88-.28,5.83-.31,3.03-.05,6.06.06,9.08.3,3.99.31,7.96.85,11.89,1.6,4.77.9,9.49,2.09,14.12,3.56.63.2,1.25.4,1.88.61.22.07.32-.28.1-.35-4.74-1.57-9.57-2.87-14.46-3.86-4.02-.81-8.08-1.42-12.16-1.79-3.17-.29-6.34-.44-9.52-.43-2.09.01-4.18.09-6.26.28-.59.05-1.18.11-1.77.19-.26.03-.56.04-.82.12-.01,0-.02,0-.03,0-.23.04-.13.39.1.35h0Z"/>
      <path d="M73.06,26.36c1.28-4.7,3.38-9.14,6.13-13.15,1.95-2.84,4.22-5.46,6.76-7.78.76-.7,1.56-1.38,2.38-2.01.18-.14,0-.46-.18-.31-1.88,1.45-3.62,3.08-5.22,4.83-2.81,3.06-5.22,6.5-7.09,10.22-1.31,2.59-2.36,5.31-3.12,8.11-.06.23.29.32.35.1h0Z"/>
      <path d="M75.37,26.09c1.04-3.99,3.12-7.67,5.45-11.03,2.11-3.06,4.51-5.93,7.1-8.59.89-.91,1.81-1.82,2.79-2.63.18-.15-.08-.4-.26-.26-2.14,1.77-4.05,3.87-5.84,5.98-2.65,3.11-5.09,6.44-7.01,10.05-1.08,2.03-2,4.16-2.58,6.38-.06.23.29.32.35.1h0Z"/>
      <path d="M76.74,26.31c1.97-4.17,4.44-8.08,7.24-11.74,2.08-2.71,4.34-5.29,6.78-7.67.74-.72,1.49-1.43,2.29-2.09.18-.15-.08-.4-.26-.26-1.8,1.47-3.43,3.18-5,4.89-2.73,2.99-5.23,6.2-7.42,9.6-1.47,2.27-2.8,4.63-3.95,7.07-.1.21.21.39.31.18h0Z"/>
      <path class="cls-5" d="M69.28,31.1l-49.77-2c-.87-.03-1.6.63-1.58,1.45l1.77,68.66c.01.73.06.98.83,1.03,0,0,20.33-3.34,49.04,2.94,0,0,.57-.04.82-.17l8.06-4.16c.19-.1.48-.39.48-.39,7.13-13.82,18.17-22.71,18.17-22.71.2-.25.31-.55.31-.86l1.33-72.46c0-1.34-.45-1.41-.94-1.32l-18.47,24.22c-.6.71-1.33,1.32-2.17,1.77l-7.05,3.82c-.25.13-.53.2-.82.19Z"/>
      <path class="cls-4" d="M69.37,34.12c0,.58,0,1.16,0,1.74v4.74c0,2.34,0,4.68.01,7.02,0,2.85,0,5.71,0,8.56,0,3.13,0,6.25,0,9.38v9.46c.01,2.94.02,5.88.02,8.82,0,2.48,0,4.97,0,7.45v5.36c0,.84,0,1.69,0,2.53,0,.04,0,.07,0,.11,0,.47.73.47.73,0,0-.58,0-1.16,0-1.74v-4.74c0-2.34,0-4.68-.01-7.02,0-2.85,0-5.71,0-8.56v-9.38c-.01-3.15-.02-6.31-.02-9.46v-8.82c-.01-2.48-.01-4.97-.02-7.45v-5.36c0-.84,0-1.69,0-2.53,0-.04,0-.07,0-.11,0-.47-.73-.47-.73,0h0Z"/>
      <path class="cls-4" d="M77.57,29.98c0,.58,0,1.16,0,1.74v4.74c0,2.34,0,4.68,0,7.02v8.56c0,3.13,0,6.25,0,9.38v9.46c0,2.94,0,5.88,0,8.82v7.45c0,1.79,0,3.57,0,5.36,0,.84-.01,1.69,0,2.53,0,.04,0,.07,0,.11,0,.47.73.47.73,0,0-.58,0-1.16,0-1.74v-4.74c0-2.34,0-4.68,0-7.02v-8.56c0-3.13,0-6.25,0-9.38s0-6.31,0-9.46c0-2.94,0-5.88,0-8.82v-7.45c0-1.79,0-3.57,0-5.36,0-.84.01-1.69,0-2.53,0-.04,0-.07,0-.11,0-.47-.73-.47-.73,0h0Z"/>
      <path class="cls-2" d="M81.5,35.29l.09,17.44c-.02.94.77,1.08,1.27.31l12.43-16.28c.1-.15.15-.33.15-.52l.32-16.76c.02-.93-.55-1.01-1.06-.26l-13.08,15.59c-.1.16-.11.28-.12.47Z"/>
      <path class="cls-5" d="M4.55,53.75l.02,15.33c0,.81.93,1.27,1.58.78l8.55-7.66c.25-.19.4-.49.39-.81l-.03-15.45c-.02-.83-.76-1.04-1.38-.5l-8.79,7.57c-.22.19-.34.46-.34.75Z"/>
      <path class="cls-4" d="M5.22,76.44c1.14-1.04,2.28-2.08,3.42-3.12l5.46-4.97,1.25-1.14c.35-.32-.17-.83-.51-.51-1.14,1.04-2.28,2.08-3.42,3.12l-5.46,4.97-1.25,1.14c-.35.32.17.83.51.51h0Z"/>
      <path class="cls-4" d="M5.22,80.27c1.14-1.04,2.28-2.08,3.42-3.12l5.46-4.97,1.25-1.14c.35-.32-.17-.83-.51-.51-1.14,1.04-2.28,2.08-3.42,3.12l-5.46,4.97c-.42.38-.84.76-1.25,1.14-.35.32.17.83.51.51h0Z"/>
      <path class="cls-4" d="M28.18,42.36c1.05.04,2.09.07,3.14.11,2.51.09,5.02.17,7.53.26,3.04.1,6.08.21,9.11.31l7.88.27c1.27.04,2.56.15,3.83.13.02,0,.04,0,.05,0,.47.02.47-.71,0-.73-1.05-.04-2.09-.07-3.14-.11l-7.53-.26-9.11-.31-7.88-.27c-1.27-.04-2.56-.15-3.83-.13-.02,0-.04,0-.05,0-.47-.02-.47.71,0,.73h0Z"/>
      <path class="cls-4" d="M28.18,46.76c1.05.04,2.09.07,3.14.11l7.53.26,9.11.31,7.88.27c1.27.04,2.56.15,3.83.13.02,0,.04,0,.05,0,.47.02.47-.71,0-.73-1.05-.04-2.09-.07-3.14-.11l-7.53-.26c-3.04-.1-6.08-.21-9.11-.31-2.63-.09-5.25-.18-7.88-.27-1.27-.04-2.56-.15-3.83-.13-.02,0-.04,0-.05,0-.47-.02-.47.71,0,.73h0Z"/>
      <path class="cls-4" d="M28.18,51.16c1.05.04,2.09.07,3.14.11l7.53.26c3.04.1,6.08.21,9.11.31l7.88.27c1.27.04,2.56.15,3.83.13.02,0,.04,0,.05,0,.47.02.47-.71,0-.73-1.05-.04-2.09-.07-3.14-.11l-7.53-.26c-3.04-.1-6.08-.21-9.11-.31-2.63-.09-5.25-.18-7.88-.27-1.27-.04-2.56-.15-3.83-.13-.02,0-.04,0-.05,0-.47-.02-.47.71,0,.73h0Z"/>
      <path class="cls-4" d="M28.18,55.55c1.05.04,2.09.07,3.14.11l7.53.26c3.04.1,6.08.21,9.11.31,2.63.09,5.25.18,7.88.27,1.27.04,2.56.15,3.83.13.02,0,.04,0,.05,0,.47.02.47-.71,0-.73-1.05-.04-2.09-.07-3.14-.11-2.51-.09-5.02-.17-7.53-.26-3.04-.1-6.08-.21-9.11-.31l-7.88-.27c-1.27-.04-2.56-.15-3.83-.13-.02,0-.04,0-.05,0-.47-.02-.47.71,0,.73h0Z"/>
      <path class="cls-4" d="M28.02,59.95c2.06.08,4.11.15,6.17.23,3.27.12,6.54.24,9.81.36.74.03,1.49.06,2.23.08.47.02.47-.71,0-.73-2.06-.08-4.11-.15-6.17-.23-3.27-.12-6.54-.24-9.81-.36-.74-.03-1.49-.06-2.23-.08-.47-.02-.47.71,0,.73h0Z"/>
    </g>
  </g>
</svg>