<?xml version="1.0" encoding="UTF-8"?>
<svg id="Layer_2" data-name="Layer 2" xmlns="http://www.w3.org/2000/svg" viewBox="0 0 107.95 206.95">
  <g id="Layer_5" data-name="Layer 5">
    <g>
      <path d="M21.53,201.78c-.45,2.05-1.51,5.13-2.89,5.17-.34,0-.83-.41-1.07-.74l-4.92-6.92c-2.94-4.14-5.94-8.12-8.22-12.64-.51-1.02-.06-1.91.56-2.62l3.24-3.71-4.41,2.33c-.42.22-1.29.6-1.72.34l-1.96-3.72c-.35-.67-.01-1.41.53-1.87l5.67-4.84c-.46-.32-1.01-.94-1.05-1.46l6.74-9.05c2.22-2.98,3.95-6.06,5.9-9.24,4.15-6.77,7.93-13.59,11.22-20.82,1.21-2.66,2.03-5.39,2.45-8.12l-3.23-.92,5.11-27.99c-3.62.74-7.32.74-10.64-.9-4.65-2.28-7.11-7.35-6.57-12.47.37-3.44,1.41-6.51,2.82-9.61.63-1.38,1.2-2.75,1.6-4.21.8-2.93.5-5.98-1.07-8.55l-1.5-2.46c-1.42-2.32-2.42-4.71-2.52-7.48-.3-8.61,2.76-16.02,10.21-20.47,2.9-1.54,6.01-1.66,9.17-.92,3.5.82,6.35,3.19,7.41,6.76,9.89-5.22,21.84-1.55,26.02,9.03,3.22-2,5.88-4.77,7.66-8.1.78-1.46.9-2.79.25-4.31-.71-1.65-1.09-3.58-1.17-5.3-.11-2.14,1.09-3.21,2.4-4.51,1.34-1.38,1.99-3.49,3.19-5.12l-1.2-11.82,1.9-.84c-.05-.52.11-1.44.55-1.79l19.98-1.89c.32.15.76.76.78,1.11l1.16,18.52c3.38.92.52,5.22.57,6.34l.37,7.55c-.25.45-1.23.66-1.87.64-.24,2.28-.74,4.45-1.63,6.63-4.11,10.01-14.28,22.85-21.89,30.65l-3.94,4.04,4.1,45.21c.06.64,0,1.12-.09,1.71l17.6,63.3c.06.21-.11.77-.28.77h-.71s-3.74.17-3.74.17l1.04,3.01c3.46-.16,6.68.9,9.57,2.77,2.04,1.32,5.4,4.12,4.89,5.75-.08.26-.61.58-.91.64l-9.11,1.66c-4.85.88-9.55,1.81-14.49,1.94-.97.03-1.64-.65-1.98-1.41l-2.11-4.78.25,5.17c.02.44.11,1.52-.51,1.55l-4.17.22c-.61.03-1.2-.57-1.35-1.16l-3.59-13.96-3.94.16-11.99-51.1-3.76,13.27c-1.37,4.82-3.21,9.29-5.1,13.91l-3.81,9.27c-2.2,4.61-4.93,8.82-7.99,12.88-.78,1.04-1.58,1.79-2.61,2.69l-6.15-3.08-4.31,4.13c1.81,3.65,2.14,7.66,1.28,11.62ZM94.5,17.53c.36.19.73.78.99,1.31.59-.48,1.42-1.27,2.38-.99.61.18.9,1.15,1.06,1.87.57-.63,1.4-1.15,2.2-.73.59.31.85,1.06,1.52,1.88l-1.18-19.47-18.69,1.75,3.33,32.44,1.18-.21c-1.1-4.25.1-8.89,2.06-12.81,1.15-2.29,3.33-5.99,5.15-5.04ZM83.86,34.02c.51-.14.7-.31.68-.49l-2.91-28.31c-.12-.03-.57.14-.69.3l1.99,19.06.28,2.76.64,6.68ZM81.35,22.37l-.41-3.73-1.63,2.69,2.04,1.04ZM100.45,20.09c-.99.92-1.7,1.79-2.24,2.86l-3.32,6.58c-.11.21-.69.48-.86.33s-.32-.54-.4-.86l3.66-8.25c.11-.57.13-1.03.08-1.64-.8.51-1.28.91-1.64,1.55-1.37,2.41-2.44,4.81-3.61,7.35-.12.25-.75.51-.98.39s-.39-.72-.27-.98l2.94-6.24c.29-.61.5-1.72.23-2.28-.17-.25-.93.08-1.16.38-2.74,3.65-4.54,7.95-4.71,12.58-.09,2.33.77,4.43,1.8,6.36l10.76.36c.54-1.9.94-3.63.9-5.49-.06-3.03.76-5.82,1.87-8.62.44-1.11.83-2.19.57-3.48-1.34,1.01-2.1,2.37-2.72,3.82l-2.31,5.58-.85.24c-.2.06-.44-.65-.36-.86l2.73-6.76c.4-.98.74-2.03-.13-2.95ZM82.67,35.16l-.74-7.18c-2.48.1-4.57-2.85-4.3-3.54.09-.21.6-.49.8-.38.86.43,1.22,2.54,3.52,2.51-.05-1.43-.81-2.43-1.82-3.27-.72-.6-1.85-.86-2.6-.13-1.94,1.89-.78,5.67.3,8.45.39,1,.37,2.11.27,3.15,1.32,1.62,4.54,2.19,6.97,2.17l-.43-1.69c-.69.13-1.36.18-1.97-.09ZM41,88.24c3.2-4.44,4.15-9.7,3.47-14.92l-.46-3.51-1.01-.88c-2.95-1.22-5.46-3.1-7.41-5.61-6.71-9.23-3.91-21.8,5.54-27.93-.78-3.45-3.67-5.73-7.06-6.38-3.41-.66-6.57-.02-9.33,2.07-4.44,3.35-7.12,8.29-7.66,13.87-.53,5.51-.03,7.91,2.98,12.35,2.38,3.52,3.24,7.74,1.64,11.71l-1.61,3.98c-1.14,2.81-2.13,5.47-2.47,8.55-.48,4.37,1.41,9.12,5.53,11.19,6.11,3.07,13.81,1.12,17.84-4.48ZM103.09,32.99c.63-.85.59-1.94-.02-2.61l.02,2.61ZM43.25,42.21c.06-.51.56-.91.96-.83,2.38.53,4.54.2,6.82-.42,3.23-.87,6.27-2.03,8.89-4.15.14-.12.4-.5.36-.67s-.31-.39-.53-.51c-10.43-5.49-22.82.84-25.86,11.77-1.42,5.1-.61,10.42,2.54,14.78,4.49-5.2,6.55-13.03,6.83-19.98ZM84.18,45.67c1.23-2.6,1.94-5.04,2.4-7.82-1.72.56-3.15.53-4.72.11-1.66-.31-3.18-.85-4.54-1.99-1.91,3.76-4.82,6.78-8.48,9.04,1.27,3.86.99,7.79-.25,11.87,5.98-2.77,11.01-6.62,15.59-11.21ZM68.09,53.52c-3.68,5.83-9.37,7.98-16.19,7.54-.42-.02-.77-.5-.69-.9.05-.25.52-.48.85-.45,3.29.31,6.44-.26,9.37-1.71,3.68-1.89,6.18-5.22,6.88-9.34-.53-4.67-2.68-8.84-6.51-11.71-2.88,2.54-6.22,4.09-9.87,5.1-2.41.67-4.73,1.15-7.36.77-.42,7.03-2.48,14.96-7.31,20.42,6.72,7.48,17.58,7.43,25.01.75,2.96-2.81,4.99-6.3,5.83-10.48ZM88.95,38.99l-.95-1.59-.92,4.55,1.87-2.96ZM29.84,122.08c3.66.87,7.06,1.39,10.61,1.82l10.63.99c5.28.03,10.47-.3,15.65-1.03l3.7-45.23,7.68-7.71c5.97-6.32,11.47-12.88,16.29-20.12,2.27-3.5,4.3-6.9,5.85-10.87l-10.16-.38c-1.23,2.54-2.83,4.56-4.64,6.66-5.05,5.36-11.03,9.64-17.71,12.59-4.05,8.41-13.12,13-22.35,10.94l.45,3.6c.69,5.26-.43,10.56-3.3,15.03-1.86,2.9-4.56,4.88-7.66,6.14l-5.04,27.57ZM68.24,121.37l10.14-.07-4.05-44.56-2.65,2.53-3.44,42.1ZM13.92,198.76l4.79,6.71c2.43-4.09,2.71-10.31.48-14.33-.39-.7-.59-1.2.05-1.82l4.11-4.09-8.4-5.6-7.64-6.1-5.99,5.14,1.51,2.92,7.68-4.14c.35.04.71.1.91.18.17.06.15.72.04.87l-1.4,1.84-4.65,5.36c2.43,4.79,5.42,8.74,8.51,13.06ZM82.97,201.13c5.33-.18,10.01-1.09,14.98-2.04l8.61-1.64c-2.99-3.91-7.31-6.27-11.99-6.54l-2.15-.06-1.44-4.11-19.68,1.19,3.6,13.93,3.25-.17-.42-9.02c-.01-.26.93-.44,1.09-.25l.58.65,3.56,8.07Z"/>
      <path d="M56.71,43.86c.75-1.22,1.75,1.95,5.2,2.45.55.08,1.41-.19,1.72-.54,1.36-1.48.04-4.28-2.03-5.74-.19-.14-.32-.75-.23-.94.74-1.76,6.28,4.37,3.29,7.52-2.76,2.91-8.84-1.3-7.95-2.75Z"/>
      <path d="M45.71,52.43c.11-.34.3-.68.5-.72s.76.16.87.34c1.66,2.49,4.69,3.49,5.82,2.27,1.19-1.29.11-3.77-1.74-5.36-.2-.17-.26-.68-.13-.86.97-1.4,5.4,3.93,3.01,6.96-1.77,2.25-6.45.69-8.33-2.63Z"/>
    </g>
  </g>
</svg>