<?xml version="1.0" encoding="UTF-8"?>
<svg id="Layer_2" data-name="Layer 2" xmlns="http://www.w3.org/2000/svg" viewBox="0 0 98.02 97.25">
  <defs>
    <style>
      .cls-1 {
        fill: #0094a6;
      }

      .cls-2 {
        fill: #b3d2d6;
      }

      .cls-3 {
        fill: #fff;
      }

      .cls-4 {
        fill: #366065;
      }
    </style>
  </defs>
  <g id="Layer_5" data-name="Layer 5">
    <g>
      <path class="cls-3" d="M2.24,9.84v-4.02l1.17-.41v-1.49h2.38l2.58-1.56s20.44.65,40.12,16.74C59.51,6.36,87.62,0,87.62,0l2.55,2.25,1.71.28v1.88l2.27.22v1.63h1.94s0,1.85,0,1.85l-46.48,16.04-4.33-.45L2.24,9.84Z"/>
      <path class="cls-1" d="M0,6.08s33.72,6.04,45.05,15.89l6.63.35c17-10.22,46.33-15.16,46.33-15.16l-1.56,74.88s-35.23,4-44.23,15.22l-8.91-.67s-20.68-12.38-42.04-14.94L0,6.08Z"/>
      <path class="cls-4" d="M52.01,25.63c0,.62-.02,1.25-.03,1.87l-.07,5.05c-.04,2.49-.07,4.98-.11,7.47l-.13,9.16c-.05,3.33-.1,6.65-.15,9.98l-.15,10.07c-.05,3.14-.09,6.28-.14,9.42-.04,2.65-.08,5.31-.12,7.96l-.08,5.71c-.01.9-.04,1.81-.04,2.71,0,.04,0,.08,0,.12,0,.48.75.48.75,0,0-.62.02-1.25.03-1.87l.07-5.05.11-7.47.13-9.16c.05-3.33.1-6.65.15-9.98l.15-10.07c.05-3.14.09-6.28.14-9.42.04-2.65.08-5.31.12-7.96l.08-5.71c.01-.9.04-1.81.04-2.71,0-.04,0-.08,0-.12,0-.48-.75-.48-.75,0h0Z"/>
      <path class="cls-4" d="M44.36,25.1c0,.62-.01,1.24-.02,1.86l-.04,5.07-.06,7.47-.07,9.11-.08,10c-.03,3.37-.06,6.73-.08,10.1l-.08,9.38-.07,7.93c-.02,1.9-.03,3.8-.05,5.71,0,.9-.03,1.81-.02,2.71,0,.04,0,.08,0,.12,0,.48.75.48.75,0,0-.62.01-1.24.02-1.86.01-1.69.03-3.38.04-5.07l.06-7.47c.02-3.04.05-6.07.07-9.11.03-3.33.05-6.67.08-10s.06-6.73.08-10.1c.03-3.13.05-6.26.08-9.38.02-2.64.04-5.29.07-7.93.02-1.9.03-3.8.05-5.71,0-.9.03-1.81.02-2.71,0-.04,0-.08,0-.12,0-.48-.75-.48-.75,0h0Z"/>
      <path class="cls-4" d="M5.95,22.35c1.1.24,2.2.48,3.3.73l7.92,1.74c3.18.7,6.36,1.4,9.55,2.1l8.25,1.81c1.34.29,2.68.62,4.03.89.02,0,.04,0,.06.01.47.1.67-.62.2-.73-1.1-.24-2.2-.48-3.3-.73l-7.92-1.74c-3.18-.7-6.36-1.4-9.55-2.1-2.75-.6-5.5-1.21-8.25-1.81-1.34-.29-2.68-.62-4.03-.89-.02,0-.04,0-.06-.01-.47-.1-.67.62-.2.73h0Z"/>
      <path class="cls-4" d="M5.95,26.1c1.1.25,2.21.5,3.31.75,2.63.6,5.26,1.19,7.88,1.79,3.2.72,6.4,1.45,9.59,2.17l8.24,1.87c1.34.3,2.67.64,4.02.91.02,0,.04,0,.06.01.47.11.67-.62.2-.73-1.1-.25-2.21-.5-3.31-.75l-7.88-1.79-9.59-2.17c-2.75-.62-5.49-1.24-8.24-1.87-1.34-.3-2.67-.64-4.02-.91-.02,0-.04,0-.06-.01-.47-.11-.67.62-.2.73h0Z"/>
      <path class="cls-4" d="M5.96,29.84c1.1.25,2.21.5,3.31.75l7.88,1.79,9.59,2.18,8.24,1.87c1.34.3,2.67.64,4.02.91.02,0,.04,0,.06.01.47.11.67-.62.2-.73-1.1-.25-2.21-.5-3.31-.75l-7.88-1.79-9.59-2.18c-2.75-.62-5.49-1.25-8.24-1.87-1.34-.3-2.67-.64-4.02-.91-.02,0-.04,0-.06-.01-.47-.11-.67.62-.2.73h0Z"/>
      <path class="cls-4" d="M5.96,33.58c1.1.25,2.21.5,3.31.75l7.88,1.78c3.2.72,6.39,1.45,9.59,2.17,2.75.62,5.49,1.24,8.24,1.86,1.34.3,2.67.64,4.02.91.02,0,.04,0,.06.01.47.11.67-.62.2-.73-1.1-.25-2.21-.5-3.31-.75l-7.88-1.78-9.59-2.17c-2.75-.62-5.49-1.24-8.24-1.86-1.34-.3-2.67-.64-4.02-.91-.02,0-.04,0-.06-.01-.47-.11-.67.62-.2.73h0Z"/>
      <path class="cls-4" d="M5.83,37.33l2.17.5,5.2,1.21,6.26,1.45,5.45,1.26c.88.2,1.76.44,2.65.62.01,0,.03,0,.04,0,.47.11.67-.62.2-.73l-2.17-.5-5.2-1.21-6.26-1.45-5.45-1.26c-.88-.2-1.76-.44-2.65-.62-.01,0-.03,0-.04,0-.47-.11-.67.62-.2.73h0Z"/>
      <path class="cls-2" d="M62.69,33.78l-.26,11.91c-.04.69.7,1.18,1.36.88,12.3-5.49,21.94-7.64,24.68-7.95.46-.05.81-.41.83-.84l.86-12.46c.04-.57-.48-1.03-1.07-.96-3.84.46-17.02,2.53-26.01,8.75-.23.16-.37.41-.39.68Z"/>
      <path d="M46.77,19.1c-.72-.47-1.45-.91-2.19-1.34-1.94-1.15-3.93-2.24-5.93-3.27-2.86-1.48-5.78-2.85-8.75-4.1-3.53-1.49-7.12-2.81-10.79-3.9-3.87-1.15-7.82-2.05-11.83-2.57-.49-.06-.98-.12-1.48-.17-.24-.03-.24.35,0,.38,4.03.42,8.01,1.26,11.9,2.35,3.69,1.04,7.32,2.32,10.87,3.77,3.07,1.26,6.09,2.64,9.05,4.14,2.12,1.08,4.21,2.21,6.27,3.4.62.36,1.23.72,1.83,1.1.27.17.54.37.82.52.01,0,.02.01.03.02.2.13.39-.19.19-.32h0Z"/>
      <path d="M3.37,5.6c.95.14,1.89.32,2.83.49,2.45.46,4.9.99,7.33,1.57,3.39.81,6.76,1.73,10.08,2.77,3.78,1.19,7.51,2.53,11.14,4.12,3.6,1.57,7.11,3.38,10.37,5.58.38.26.76.52,1.14.79.2.14.39-.18.19-.32-3.18-2.28-6.64-4.16-10.2-5.79s-7.34-3.06-11.11-4.29c-3.4-1.11-6.84-2.08-10.32-2.94-2.59-.64-5.19-1.21-7.81-1.72-1.15-.22-2.33-.5-3.5-.62-.02,0-.03,0-.05,0-.24-.04-.34.33-.1.36h0Z"/>
      <path d="M90.16,2.06c-.64-.01-1.28.03-1.91.08-1.78.14-3.54.42-5.29.77-2.73.55-5.42,1.31-8.04,2.22-3.51,1.22-6.92,2.72-10.21,4.45-4.11,2.16-8.03,4.67-11.75,7.45-.49.37-.98.74-1.47,1.12-.19.15.08.41.27.27,3.74-2.9,7.7-5.54,11.85-7.82,3.33-1.83,6.79-3.43,10.36-4.73,2.7-.99,5.45-1.81,8.26-2.42,1.84-.4,3.71-.71,5.58-.89.53-.05,1.07-.09,1.61-.11.23,0,.48,0,.71-.01,0,0,.02,0,.03,0,.24,0,.24-.37,0-.38h0Z"/>
      <path d="M91.88,4.22c-.67.04-1.34.13-2.01.22-1.84.25-3.66.6-5.47,1-2.83.64-5.62,1.42-8.37,2.34-3.57,1.19-7.08,2.58-10.49,4.16-4.18,1.93-8.23,4.14-12.13,6.59-.53.33-1.05.66-1.57,1-.2.13-.01.46.19.32,3.91-2.55,7.98-4.85,12.18-6.88,3.5-1.69,7.09-3.18,10.76-4.45,2.83-.98,5.7-1.83,8.61-2.52,1.93-.46,3.89-.85,5.85-1.14.8-.12,1.61-.16,2.41-.28.01,0,.02,0,.03,0,.24-.01.24-.39,0-.38h0Z"/>
      <path d="M94.14,6.07c-.65.02-1.31.09-1.96.16-1.86.2-3.7.51-5.54.88-2.9.59-5.78,1.34-8.61,2.21-3.79,1.17-7.51,2.57-11.15,4.14-4.56,1.97-8.99,4.22-13.29,6.7-.59.34-1.18.69-1.76,1.04-.21.12-.02.45.19.32,4.35-2.59,8.84-4.96,13.47-7.04,3.73-1.67,7.54-3.16,11.43-4.42,2.92-.94,5.89-1.76,8.89-2.4,1.95-.42,3.92-.77,5.9-1.01.79-.1,1.6-.11,2.39-.21.01,0,.02,0,.03,0,.24,0,.24-.38,0-.38h0Z"/>
    </g>
  </g>
</svg>