<?xml version="1.0" encoding="UTF-8"?>
<svg id="Layer_2" data-name="Layer 2" xmlns="http://www.w3.org/2000/svg" viewBox="0 0 65.05 101.19">
  <defs>
    <style>
      .cls-1 {
        fill: #9d3418;
      }

      .cls-2 {
        fill: #de6034;
      }

      .cls-3 {
        fill: #c3431f;
      }

      .cls-4 {
        fill: #fff;
      }

      .cls-5 {
        fill: #e38b7a;
      }

      .cls-6 {
        fill: #5e1e09;
      }
    </style>
  </defs>
  <g id="Layer_5" data-name="Layer 5">
    <g>
      <path class="cls-2" d="M0,92.28V14.03c0-.79.54-1.47,1.3-1.66L51.58.03c.58-.14,1.14.3,1.14.89v1.14l9.4,7.25,1.98-.42c.49-.1.94.27.94.77v77.13c0,.94-.64,1.76-1.55,1.99l-44.97,11.13-4.19,1.27s-9.29.49-13.65-6.46c-.46-.73-.69-1.58-.69-2.45Z"/>
      <path class="cls-4" d="M3.48,14.16s3.32,4.71,11.4,6.55l47.72-11.5-9.42-7.3L3.48,14.16Z"/>
      <path class="cls-6" d="M1.61,21.47c.4.53.88,1,1.37,1.45,1.19,1.09,2.54,2.01,3.98,2.74,1.09.55,2.24,1,3.42,1.33.41.12.59-.53.18-.64-3.01-.84-5.87-2.47-8-4.78-.11-.12-.21-.23-.31-.35-.03-.04-.16-.21-.06-.07-.26-.34-.84,0-.58.34h0Z"/>
      <path class="cls-6" d="M1.67,27.4c.37.43.83.8,1.28,1.15,1.2.93,2.53,1.68,3.92,2.28,1.14.49,2.31.89,3.51,1.19.42.11.59-.54.18-.64-2.89-.74-5.84-1.99-8.04-4.06-.13-.12-.26-.25-.38-.38-.28-.33-.75.15-.47.47h0Z"/>
      <path class="cls-6" d="M1.58,88.79c.23.6.62,1.13,1.03,1.62,1.03,1.24,2.39,2.19,3.84,2.87,1.25.59,2.58.99,3.93,1.25.42.08.6-.56.18-.64-3.08-.6-6.46-2.04-8.1-4.83-.07-.12-.14-.25-.2-.37-.02-.04-.03-.07-.05-.11,0,0,.04.1.02.04-.15-.4-.8-.22-.64.18h0Z"/>
      <path class="cls-6" d="M31.86,82.91c.68-.17,1.36-.34,2.04-.51l4.9-1.23,5.96-1.49,5.13-1.28c.83-.21,1.68-.38,2.5-.62.01,0,.02,0,.04,0,.42-.1.24-.75-.18-.64-.68.17-1.36.34-2.04.51l-4.9,1.23-5.96,1.49-5.13,1.28c-.83.21-1.68.38-2.5.62-.01,0-.02,0-.04,0-.42.1-.24.75.18.64h0Z"/>
      <path class="cls-6" d="M36.02,85.6c1.5-.4,3-.8,4.5-1.2,2.39-.64,4.79-1.27,7.18-1.91.55-.15,1.11-.29,1.66-.44.42-.11.24-.76-.18-.64-1.5.4-3,.8-4.5,1.2-2.39.64-4.79,1.27-7.18,1.91-.55.15-1.11.29-1.66.44-.42.11-.24.76.18.64h0Z"/>
      <path class="cls-5" d="M26.57,32.3v18.23c0,.66.56,1.14,1.13.97l28.9-8.27c.55-.16.94-.72.94-1.35v-18.08c0-.65-.55-1.13-1.12-.98l-28.58,7.67c-.75.2-1.27.95-1.27,1.8Z"/>
      <path d="M5.6,15.36c.43-.11.87-.22,1.3-.33l3.55-.89,5.24-1.32,6.41-1.61c2.33-.59,4.67-1.17,7-1.76l7.06-1.77,6.59-1.65,5.59-1.4,4-1.01c.63-.16,1.27-.3,1.9-.48.03,0,.05-.01.08-.02.21-.05.12-.37-.09-.32-.43.11-.87.22-1.3.33l-3.55.89-5.24,1.32-6.41,1.61-7,1.76c-2.35.59-4.71,1.18-7.06,1.77l-6.59,1.65-5.59,1.4-4,1.01c-.63.16-1.27.3-1.9.48-.03,0-.05.01-.08.02-.21.05-.12.37.09.32h0Z"/>
      <path d="M56.09,4.04c-.42.11-.84.22-1.27.33l-3.43.89-5.08,1.33-6.18,1.61-6.79,1.77-6.86,1.79-6.37,1.66-5.38,1.4-3.89,1.01c-.61.16-1.23.31-1.84.48-.03,0-.05.01-.08.02-.21.05-.12.38.09.32.42-.11.84-.22,1.27-.33l3.43-.89,5.08-1.33c2.06-.54,4.12-1.07,6.18-1.61l6.79-1.77c2.29-.6,4.57-1.19,6.86-1.79l6.37-1.66,5.38-1.4,3.89-1.01c.61-.16,1.23-.31,1.84-.48.03,0,.05-.01.08-.02.21-.05.12-.38-.09-.32h0Z"/>
      <path d="M11.63,18.25c.42-.11.84-.21,1.25-.32l3.42-.88c1.68-.43,3.37-.86,5.05-1.3l6.16-1.58c2.25-.58,4.5-1.15,6.75-1.73l6.81-1.75,6.35-1.63,5.37-1.38,3.86-.99c.61-.16,1.22-.3,1.83-.47.03,0,.05-.01.08-.02.21-.05.12-.38-.09-.32-.42.11-.84.21-1.25.32l-3.42.88c-1.68.43-3.37.86-5.05,1.3l-6.16,1.58-6.75,1.73-6.81,1.75-6.35,1.63-5.37,1.38-3.86.99c-.61.16-1.22.3-1.83.47-.03,0-.05.01-.08.02-.21.05-.12.38.09.32h0Z"/>
      <path d="M13.45,20.17c.43-.11.85-.21,1.28-.32l3.46-.87,5.14-1.3,6.24-1.57,6.84-1.72,6.93-1.75,6.46-1.63c1.81-.46,3.63-.91,5.44-1.37l3.91-.99c.62-.16,1.25-.3,1.86-.47.03,0,.05-.01.08-.02.21-.05.12-.37-.09-.32l-1.28.32-3.46.87-5.14,1.3c-2.08.52-4.16,1.05-6.24,1.57l-6.84,1.72-6.93,1.75-6.46,1.63-5.44,1.37-3.91.99c-.62.16-1.25.3-1.86.47-.03,0-.05.01-.08.02-.21.05-.12.37.09.32h0Z"/>
      <path d="M4.02,14.99c.83.17,1.65.43,2.46.71,1.69.59,3.34,1.36,4.79,2.43.86.64,1.64,1.4,2.22,2.3.12.18.41.01.29-.17-1.04-1.62-2.67-2.79-4.36-3.67-1.39-.72-2.87-1.28-4.38-1.69-.31-.08-.62-.17-.93-.23-.21-.04-.3.28-.09.32h0Z"/>
      <path class="cls-6" d="M2.91,13.9c.35.66.9,1.24,1.43,1.75,1.52,1.49,3.38,2.63,5.31,3.52,1.72.8,3.52,1.4,5.35,1.88.31.08.45-.4.13-.48-2.85-.74-5.65-1.8-8.11-3.42-.76-.5-1.48-1.05-2.14-1.68-.4-.38-.85-.85-1.14-1.25-.14-.18-.28-.37-.39-.58-.15-.29-.58-.03-.43.25h0Z"/>
      <path class="cls-3" d="M15.39,20.58l48.33-11.76c.22-.05.72-.16.89,0l.36.23c.08.13.08.71.08.9h0c0,.31-.21.58-.52.65L15.71,22.28c-.42.1-.83-.22-.83-.65v-.4c0-.31.21-.58.51-.65Z"/>
      <path class="cls-6" d="M14.54,20.88v78.96c0,.43.67.43.67,0V20.88c0-.43-.67-.43-.67,0h0Z"/>
      <path class="cls-1" d="M18.16,22.8v75.18c0,.43.67.43.67,0V22.8c0-.43-.67-.43-.67,0h0Z"/>
    </g>
  </g>
</svg>