<?xml version="1.0" encoding="UTF-8"?>
<svg id="Layer_2" data-name="Layer 2" xmlns="http://www.w3.org/2000/svg" viewBox="0 0 136.86 171.17">
  <g id="Logo_Original" data-name="Logo Original">
    <g>
      <path d="M64.98,131.48l-.66.68-7.02-2.13c-.47-.14-.74-.25-1.25-.71l-2.09,7.11-33.11,12.96c-.18.07-.54.17-.61.07l-.42-.52-1.57-7.78-12.1,18.78c-.11.17-.53.38-.71.35s-.42-.37-.46-.62L.02,130.12c-.07-.41.07-.8.47-.93l14.48-4.57.15-1.14,16.06-7.09,2.88-12.05-20.31-22.99c-.16-.21-.34-.5-.32-.67s.24-.38.45-.57l19.91-17.58c-.29-7.23.4-13.86,3.51-20.37,1.72-3.61,4.6-6.33,8.07-8.24,2.75-1.51,5.62-2.24,8.73-2.72,4.66-.71,9.29-.4,13.67,1.28l8.54-7.56c-.28-7.16,2.72-13.94,8.01-18.67,9.9-8.83,25.1-8.28,34.15,1.46,5.28,5.68,7.35,13.67,5.48,21.27-1.58,6.43-5.66,11.76-11.42,15.15l2.92,2.93c4.61-1.72,8.76-3.55,13.08-.69,2.71,1.8,4.63,4.22,5.64,7.36,1.37,4.26,2.27,9.83,2.19,14.26.17.22.42.57.51.76s-.29.55-.57.7l-38.06,33.1,13.78,19.33-7.15,30.78c-.09.5-.44.76-.86.72l-5.05-.89,12.74,17.7.17.64c.05.17-.52.37-.74.32l-32.28-7.33c-.21-.05-.46-.41-.52-.62l2.58-14.14-1.64-.3c-.2-.04-.47-.41-.56-.68l3.1-17.41-7.87-6.98-8.94,7.79ZM112,34.32c-2.92,1-5.72,1.01-8.7.58l8.39,8.43c3.95-2.26,7.13-5.47,9.22-9.46,3.62-6.94,3.42-15.17-.68-21.95-5.94,1.22-12.01.76-17.82-1.03-2.9,4.82-6.51,8.96-10.91,12.23l9.89,9.91c2.99.95,6.11,1.08,9.18.34,4.45-1.18,7.84-4.37,9.09-8.81.08-.28.61-.57.82-.45.17.1.34.42.43.7-1.22,4.47-4.44,7.99-8.92,9.52ZM111.44,49.07l-27.09-27.09c-.21-.49-.63-.66-1.12-.47l13.08,13.21,14.4,14.51c.13.13.37.27.5.3.09.02.2-.26.22-.46ZM57.07,128.63l69.75-61.42-4.94-5.12c-1.71.64-3.18,1.27-4.92,1.48-1,.12-2.24-.66-2.03-1.68.24-1.16,1.3-1.84,2.19-2.67l-3.35.78c-.51.12-1.17-.36-1.4-.73s-.22-1.19.08-1.53l1.19-1.36c-1.67.37-3.4.34-3.56-.82-.05-.33.2-.94.42-1.16l.87-.87-1.86.4c-.33.07-.97-.27-1.13-.56-.14-.26-.14-1.03.07-1.25l1.64-1.79-1.39-1.53-15.97-16.1-10.98-11.08-33.2,29.3-.45,13.17.05,3.82c1.56,1.55,3.09,2.9,4.32,4.7,1.54,2.25,2.45,4.93,2.91,7.59.12.72-.35,1.5-.84,1.78s-1.19.07-1.86-.22c.42,1.89.26,4.06-1.05,4.35-.56.12-1.12-.07-1.69-.3.02,1.06-.72,1.89-1.8,1.79-.41-.04-.97-.29-1.37-.49.06.78-.1,1.72-.76,2.2-.88.63-2.04.26-2.6-.64-.61-.98-1.04-2.05-1.38-3.17-.67-2.22-1.73-4.13-3.32-5.79-1.83-1.89-3.06-3.98-3.6-6.59-.59-3.03-.93-6.03-1.27-9.13l-19.03,16.84,42.26,47.82ZM96.54,31.77l-9.02-9.14c-.42-.43-.82-.76-1.5-.59l26.56,26.56.33-.19-4.57-4.7-11.8-11.95ZM113.78,47.71l.52-.19-25.04-25.05-.04.31,7.13,7.19,11.67,11.82,5.77,5.94ZM47.01,68.18v-5.86s.71-15.97.71-15.97c.02-.35.4-.68.66-.64.2.03.51.43.5.64l-.18,3.02,18.06-16.01c-4.35-1.64-8.77-1.64-13.23-.93-6.82,1.08-12.62,4.44-15.51,10.84-3.83,8.47-3.66,17.79-2.29,26.99,3.83-.19,7.99-.14,11.27-2.08ZM117.7,57.75l8.92-3.66c.24-.1.78.06.85.27s-.11.71-.33.81l-3.36,1.56c-2.56,1.19-6.59,3.15-7.84,5.4.84.39,1.64.36,2.42.05l9.32-3.65c.44-.17,1.02-.73,1.34.07.15.38-.51.88-1.09.99l7.28,7.27c-.11-4.54-.9-8.75-2.18-12.88-.86-2.77-2.6-4.89-4.92-6.48-1.8-1.24-3.77-1.77-5.98-1.34-3.05.6-6,1.63-8.69,3.21-1.52.89-2.97,1.81-3.99,3.41,2.79-.59,5.16-1.71,7.68-2.68l6.13-2.38c.3-.12.81.22.79.47-.02.19-.24.62-.43.69l-4.17,1.59c-3.01,1.15-5.93,2.52-8.32,4.82,1.08.29,2.01.1,2.91-.25l10.79-4.3c.21-.09.56-.09.71,0s.31.51.23.66-.36.37-.56.45l-6.33,2.62c-2.16.89-6.09,3.74-5.55,4.22.5.44,2.9-.32,4.37-.92ZM134.5,67.86l-7.35-7.48-.47-.25c-.07-.04-.28.34-.22.39l6.88,6.92c.34.42.71.57,1.16.42ZM131.51,67.51l.17-.18-6.61-6.6-.06.28,6.51,6.49ZM129.28,66.91l-5.3-5.32c-.12-.08-.51-.25-.61-.15l-.27.29,4.89,4.98c.32.16.96.27,1.28.2ZM59.63,128.85l69.91-60.49c-.48-.28-1.14-.39-1.91-.38l-69.28,61.02c.05.12.45.4.61.36s.32-.2.67-.5ZM61.79,130.15l69.63-60.99c.13-.19.31-.48.2-.51l-.55-.16-70.7,61.17c.42.29.95.45,1.43.49ZM64.14,130.77l70.67-61.47c-.43-.2-.93-.29-1.55-.25l-70.18,61.47c.16.18.79.48,1.05.25ZM45.4,76.74c-.11-.18.05-.76.23-.73l.68.1c.88,1.52,1.66,2.94,2.32,4.54.5,1.9,2.14,5.22,2.78,4.28.39-.56.43-1.41.3-2.07-.63-3.19-1.8-6.04-3.6-8.72-.15-.22.02-.74.24-.83.17-.07.62.04.73.24l2.08,3.69,1.53,2.87c.22.41.79.77,1.33.91.19-.38.29-1.06.17-1.5-1.44-5.04-2.43-6.88-6.43-10.44-3.64,2.11-7.76,2.07-11.83,2.3.51,3.15,1.29,5.1,3.46,7.46,1.73,1.74,2.74,3.86,3.66,6.15l1.21,3.02c.13.33.93.64,1.12.33.27-.44.34-1.15.24-1.67-.58-2.97-1.63-5.75-3.39-8.21-.13-.18-.21-.67-.06-.79s.51-.16.74-.12c1.53,1.87,2.53,3.81,3.28,6.07.54,1.47,1.42,3.31,2.33,2.81.79-.44-.08-3.02-.68-4.62-.67-1.78-1.4-3.33-2.42-5.07ZM79.91,147.73l23.89,4.48,7.01-30.13-13.42-18.79-22.61,19.67,7.53,6.65c.35.31.72.61.62,1.16l-3,16.96ZM20.85,148.18l32.15-12.58,2.15-7.36-20.15-22.82-2.84,11.78-16,7.06,4.7,23.92Z"/>
      <path d="M113.77,23.52c-3.2-.6-5.54-4.15-4.67-4.87.2-.17.8-.07.95.2.83,1.51,1.88,2.76,3.54,3.32.6.2,1.36.16,1.84-.18,1.54-1.08.89-4-.79-5.98-.14-.17-.14-.67-.04-.86.62-1.26,3.48,2.26,2.95,5.65-.3,1.92-1.88,3.08-3.78,2.73Z"/>
      <path d="M96.96,23.98c1.19-.79,1.15,2.86,4.46,4.06.5.18,1.36.13,1.8-.16.36-.24.7-.95.74-1.49.22-2.95-2.16-4.18-1.18-4.94,1.17-.9,4.33,5.16,1.17,7.48-2.17,1.59-5.89-.55-7.25-4.13-.09-.23.08-.7.27-.82Z"/>
    </g>
  </g>
</svg>