<?xml version="1.0" encoding="UTF-8"?>
<svg id="Layer_2" data-name="Layer 2" xmlns="http://www.w3.org/2000/svg" viewBox="0 0 148.65 148.65">
  <defs>
    <style>
      .cls-1 {
        fill: #f76537;
      }
    </style>
  </defs>
  <g id="Layer_5" data-name="Layer 5">
    <path class="cls-1" d="M142.18,70.66c-14.65-8.29-21.78-25.49-17.28-41.72l1.99-7.17-7.17,1.99c-16.22,4.5-33.43-2.63-41.72-17.28l-3.67-6.48-3.67,6.48c-8.29,14.65-25.49,21.78-41.72,17.28l-7.17-1.99,1.99,7.17c4.5,16.22-2.63,33.43-17.28,41.72l-6.48,3.67,6.48,3.67c14.65,8.29,21.78,25.49,17.28,41.72l-1.99,7.17,7.17-1.99c16.22-4.5,33.43,2.63,41.72,17.28l3.67,6.48,3.67-6.48c8.29-14.65,25.49-21.78,41.72-17.28l7.17,1.99-1.99-7.17c-4.5-16.22,2.63-33.43,17.28-41.72l6.48-3.67-6.48-3.67Z"/>
  </g>
</svg>