<?xml version="1.0" encoding="UTF-8"?>
<svg id="Layer_2" data-name="Layer 2" xmlns="http://www.w3.org/2000/svg" viewBox="0 0 490.53 510.86">
  <defs>
    <style>
      .cls-1 {
        fill: none;
        stroke: #ff581f;
        stroke-miterlimit: 10;
      }
    </style>
  </defs>
  <g id="Logo_Original" data-name="Logo Original">
    <path class="cls-1" d="M482.2,308.47c-30.55-28.82-30.55-77.26,0-106.09h0c15.26-14.4,6.91-39.99-13.94-42.71h0c-41.73-5.44-70.33-44.63-62.63-85.83h0c3.85-20.58-18.01-36.39-36.49-26.39h0c-36.97,20.02-83.24,5.05-101.34-32.78h0c-9.04-18.9-36.06-18.9-45.1,0h0c-18.09,37.83-64.37,52.8-101.34,32.78h0c-18.47-10-40.33,5.81-36.49,26.39h0c7.7,41.2-20.9,80.38-62.63,85.83h0c-20.85,2.72-29.2,28.3-13.94,42.71h0c30.55,28.82,30.55,77.26,0,106.09h0c-15.26,14.4-6.91,39.99,13.94,42.71h0c41.73,5.44,70.33,44.63,62.63,85.83h0c-3.85,20.58,18.01,36.39,36.49,26.39h0c36.97-20.02,83.24-5.05,101.34,32.78h0c9.04,18.9,36.06,18.9,45.1,0h0c18.09-37.83,64.37-52.8,101.34-32.78h0c18.47,10,40.33-5.81,36.49-26.39h0c-7.7-41.2,20.9-80.38,62.63-85.83h0c20.85-2.72,29.2-28.3,13.94-42.71h0Z"/>
  </g>
</svg>