<?xml version="1.0" encoding="UTF-8"?>
<svg id="Layer_2" data-name="Layer 2" xmlns="http://www.w3.org/2000/svg" viewBox="0 0 395.41 73.85">
  <defs>
    <style>
      .cls-1 {
        fill: #ff581f;
      }
    </style>
  </defs>
  <g id="Logo_Original" data-name="Logo Original">
    <path class="cls-1" d="M227.23.3c-29.96-.88-59.97.19-89.79,3.23-14.64,1.49-29.23,3.45-43.74,5.89-13.61,2.29-27.22,4.87-40.51,8.64-12.26,3.47-24.38,7.97-35.33,14.56-5.28,3.17-10.49,6.76-14.24,11.73-3.23,4.29-5.16,10.06-2.05,14.96,3.08,4.85,9.11,6.91,14.41,8.19,6.84,1.66,13.9,2.58,20.88,3.4,14.63,1.73,29.37,2.32,44.09,2.62,30.32.62,60.66.38,90.97-.65,30.3-1.04,60.58-2.89,90.78-5.56s57.54-5.81,85.74-12.13c6.96-1.56,13.89-3.31,20.75-5.29,6.11-1.76,12.52-3.4,18.19-6.37,4.07-2.13,8.88-5.81,7.9-11.03-.56-2.97-2.93-5.17-5.26-6.89-2.55-1.88-5.37-3.43-8.21-4.81-12.12-5.87-25.56-8.44-38.76-10.57-14.53-2.35-29.16-4.06-43.82-5.3-29.84-2.54-59.8-3.17-89.74-3.43-7.27-.06-14.54-.11-21.8-.15-1.93-.01-1.93,2.99,0,3,29.23.17,58.48.34,87.68,1.93,14.44.79,28.87,1.92,43.24,3.58,13.81,1.6,27.73,3.44,41.28,6.65,6.31,1.49,12.59,3.34,18.52,6,2.77,1.24,5.46,2.65,8.02,4.27,2.31,1.46,5.55,3.54,5.96,6.52.65,4.65-6.06,7.6-9.42,9-6.11,2.53-12.67,4.22-19.03,5.96-27.12,7.41-55.04,11.43-82.96,14.32-29.08,3-58.28,5.05-87.48,6.43s-59.03,2-88.56,1.83c-14.64-.08-29.29-.24-43.91-.97-14.13-.71-28.42-1.86-42.28-4.81-5.01-1.07-11.62-2.59-14.57-7.25-3.01-4.76.28-10.16,3.6-13.75,4.13-4.46,9.5-7.74,14.78-10.67,5.48-3.04,11.22-5.58,17.09-7.77,12.15-4.52,24.79-7.6,37.48-10.13,13.89-2.77,27.9-5.01,41.94-6.82,28.89-3.74,58.01-5.62,87.14-5.65,7.01,0,14.02.09,21.03.3,1.93.06,1.93-2.94,0-3h0Z"/>
  </g>
</svg>