<?xml version="1.0" encoding="UTF-8"?>
<svg id="Layer_2" data-name="Layer 2" xmlns="http://www.w3.org/2000/svg" viewBox="0 0 321.59 321.59">
  <defs>
    <style>
      .cls-1 {
        fill: #f76537;
      }
    </style>
  </defs>
  <g id="Layer_5" data-name="Layer 5">
    <path class="cls-1" d="M307.58,152.86c-31.7-17.94-47.11-55.15-37.38-90.25l4.3-15.52-15.52,4.3c-35.1,9.73-72.31-5.69-90.25-37.38l-7.93-14.01-7.93,14.01c-17.94,31.7-55.15,47.11-90.25,37.38l-15.52-4.3,4.3,15.52c9.73,35.1-5.69,72.31-37.38,90.25l-14.01,7.93,14.01,7.93c31.7,17.94,47.11,55.15,37.38,90.25l-4.3,15.52,15.52-4.3c35.1-9.73,72.31,5.69,90.25,37.38l7.93,14.01,7.93-14.01c17.94-31.7,55.15-47.11,90.25-37.38l15.52,4.3-4.3-15.52c-9.73-35.1,5.69-72.31,37.38-90.25l14.01-7.93-14.01-7.93Z"/>
  </g>
</svg>