<?xml version="1.0" encoding="UTF-8"?>
<svg id="Layer_2" data-name="Layer 2" xmlns="http://www.w3.org/2000/svg" viewBox="0 0 325 325">
  <defs>
    <style>
      .cls-1 {
        fill: none;
        stroke: #f1c355;
        stroke-miterlimit: 10;
      }
    </style>
  </defs>
  <g id="Layer_5" data-name="Layer 5">
    <path class="cls-1" d="M302.95,125.55l-21.66-12.26,6.65-23.99c8.81-31.81-20.44-61.06-52.25-52.25l-23.99,6.65-12.26-21.66c-16.26-28.72-57.64-28.72-73.89,0l-12.26,21.66-23.99-6.65c-31.81-8.81-61.06,20.44-52.25,52.25l6.65,23.99-21.66,12.26c-28.72,16.26-28.72,57.64,0,73.89l21.66,12.26-6.65,23.99c-8.81,31.81,20.44,61.06,52.25,52.25l23.99-6.65,12.26,21.66c16.26,28.72,57.64,28.72,73.89,0l12.26-21.66,23.99,6.65c31.81,8.81,61.06-20.44,52.25-52.25l-6.65-23.99,21.66-12.26c28.72-16.26,28.72-57.64,0-73.89Z"/>
  </g>
</svg>