<?xml version="1.0" encoding="UTF-8"?>
<svg id="Layer_2" data-name="Layer 2" xmlns="http://www.w3.org/2000/svg" viewBox="0 0 577.22 559.61">
  <defs>
    <style>
      .cls-1 {
        fill: none;
        stroke: #f2bbff;
        stroke-miterlimit: 10;
      }
    </style>
  </defs>
  <g id="Layer_5" data-name="Layer 5">
    <path class="cls-1" d="M502.83,136.66l-45.87-15.45c-20.95-7.06-39.24-20.35-52.43-38.09l-28.87-38.85c-43.37-58.36-130.74-58.36-174.11,0l-28.87,38.85c-13.19,17.74-31.48,31.04-52.43,38.09l-45.87,15.45C5.49,159.87-21.52,242.97,20.59,302.25l28.03,39.46c12.8,18.02,19.79,39.53,20.03,61.64l.52,48.4c.78,72.7,71.47,124.06,140.86,102.34l46.19-14.46c21.1-6.61,43.71-6.61,64.81,0l46.19,14.46c69.39,21.72,140.07-29.64,140.86-102.34l.52-48.4c.24-22.11,7.23-43.61,20.03-61.64l28.03-39.46c42.1-59.28,15.1-142.38-53.8-165.59Z"/>
  </g>
</svg>