<?xml version="1.0" encoding="UTF-8"?>
<svg id="Layer_2" data-name="Layer 2" xmlns="http://www.w3.org/2000/svg" viewBox="0 0 449.39 470.06">
  <defs>
    <style>
      .cls-1 {
        fill: none;
        stroke: #7575f2;
        stroke-miterlimit: 10;
      }
    </style>
  </defs>
  <g id="Layer_5" data-name="Layer 5">
    <path class="cls-1" d="M441.73,283.83c-27.98-26.52-27.98-71.08,0-97.6h0c13.98-13.25,6.33-36.79-12.77-39.29h0c-38.22-5.01-64.42-41.06-57.37-78.96h0c3.52-18.94-16.5-33.48-33.42-24.28h0c-33.87,18.42-76.25,4.64-92.82-30.16h0c-8.28-17.39-33.03-17.39-41.31,0h0c-16.57,34.8-58.96,48.58-92.82,30.16h0c-16.92-9.2-36.94,5.35-33.42,24.28h0c7.05,37.9-19.15,73.95-57.37,78.96h0c-19.1,2.5-26.74,26.04-12.77,39.29h0c27.98,26.52,27.98,71.08,0,97.6h0c-13.98,13.25-6.33,36.79,12.77,39.29h0c38.22,5.01,64.42,41.06,57.37,78.96h0c-3.52,18.94,16.5,33.48,33.42,24.28h0c33.87-18.42,76.25-4.64,92.82,30.16h0c8.28,17.39,33.03,17.39,41.31,0h0c16.57-34.8,58.96-48.58,92.82-30.16h0c16.92,9.2,36.94-5.35,33.42-24.28h0c-7.05-37.9,19.15-73.95,57.37-78.96h0c19.1-2.5,26.74-26.04,12.77-39.29h0Z"/>
  </g>
</svg>